<svg width="25" height="26" viewBox="0 0 25 26" fill="none" xmlns="http://www.w3.org/2000/svg">
<path fill-rule="evenodd" clip-rule="evenodd" d="M17.2707 16.9654C16.302 17.827 15.0188 18.3077 13.6146 18.3077C10.5143 18.3077 8.2383 16.0557 8.2383 12.9635C8.2383 9.8731 10.4418 7.7173 13.6146 7.7173C14.9949 7.7173 16.302 8.173 17.2953 9.0346L17.9722 9.6096L20.9754 6.6385L20.2241 5.9673C18.4575 4.38653 16.1085 3.5 13.6146 3.5C8.0448 3.5 4 7.477 4 12.9404C4 18.3789 8.1416 22.5 13.6146 22.5C16.1571 22.5 18.53 21.6135 20.2726 20.0078L21 19.3384L17.9496 16.3672L17.2707 16.9654Z" fill="white"/>
<path fill-rule="evenodd" clip-rule="evenodd" d="M13.4683 9.82544C15.2472 9.82544 16.6896 11.2513 16.6896 13.012C16.6896 14.7726 15.2472 16.1985 13.4683 16.1985C11.6895 16.1985 10.2477 14.7726 10.2477 13.012C10.2477 11.2513 11.6895 9.82544 13.4683 9.82544Z" fill="white"/>
</svg>
