<svg width="138" height="35" viewBox="0 0 138 35" fill="none" xmlns="http://www.w3.org/2000/svg">
<g clip-path="url(#clip0_1985_729)">
<path d="M75.877 21.8968L72.8101 23.681C72.641 23.7831 72.4242 23.7757 72.263 23.6624C72.1019 23.5491 72.0288 23.3528 72.0787 23.1669L72.8651 19.8254L70.1678 17.5573C70.0193 17.4315 69.963 17.2328 70.0246 17.0519C70.0862 16.8711 70.2538 16.7428 70.4509 16.7257L74.0054 16.4384L75.4287 13.2934C75.5031 13.1161 75.682 13 75.8809 13C76.0797 13 76.2587 13.1161 76.3331 13.2934L77.7328 16.446L81.2873 16.7333C81.483 16.753 81.6481 16.8822 81.7078 17.0626C81.7674 17.2429 81.7104 17.44 81.5625 17.5649L78.8731 19.8329L79.6595 23.1745C79.7039 23.3609 79.6281 23.5548 79.467 23.6669C79.3058 23.779 79.0905 23.7875 78.9203 23.6886L75.877 21.8968Z" fill="#FF3D2E"/>
<path d="M89.9442 21.8968L86.8773 23.681C86.7082 23.7831 86.4915 23.7757 86.3303 23.6624C86.1691 23.5491 86.0961 23.3528 86.146 23.1669L86.9324 19.8254L84.2351 17.5573C84.0866 17.4315 84.0303 17.2328 84.0919 17.0519C84.1534 16.8711 84.321 16.7428 84.5182 16.7257L88.0726 16.4384L89.496 13.2934C89.5704 13.1161 89.7493 13 89.9481 13C90.147 13 90.3259 13.1161 90.4003 13.2934L91.8001 16.446L95.3545 16.7333C95.5503 16.753 95.7153 16.8822 95.775 17.0626C95.8347 17.2429 95.7777 17.44 95.6298 17.5649L92.9403 19.8329L93.7267 23.1745C93.7712 23.3609 93.6954 23.5548 93.5342 23.6669C93.373 23.779 93.1578 23.7875 92.9875 23.6886L89.9442 21.8968Z" fill="#FF3D2E"/>
<path d="M104.011 21.8968L100.944 23.681C100.775 23.7831 100.559 23.7757 100.397 23.6624C100.236 23.5491 100.163 23.3528 100.213 23.1669L100.999 19.8254L98.3022 17.5573C98.1537 17.4315 98.0974 17.2328 98.159 17.0519C98.2206 16.8711 98.3882 16.7428 98.5853 16.7257L102.14 16.4384L103.563 13.2934C103.637 13.1161 103.816 13 104.015 13C104.214 13 104.393 13.1161 104.467 13.2934L105.867 16.446L109.422 16.7333C109.617 16.753 109.782 16.8822 109.842 17.0626C109.902 17.2429 109.845 17.44 109.697 17.5649L107.007 19.8329L107.794 23.1745C107.838 23.3609 107.763 23.5548 107.601 23.6669C107.44 23.779 107.225 23.7875 107.055 23.6886L104.011 21.8968Z" fill="#FF3D2E"/>
<path d="M118.079 21.8968L115.012 23.681C114.843 23.7831 114.626 23.7757 114.465 23.6624C114.304 23.5491 114.23 23.3528 114.28 23.1669L115.067 19.8254L112.369 17.5573C112.221 17.4315 112.165 17.2328 112.226 17.0519C112.288 16.8711 112.455 16.7428 112.653 16.7257L116.207 16.4384L117.63 13.2934C117.705 13.1161 117.884 13 118.083 13C118.281 13 118.46 13.1161 118.535 13.2934L119.934 16.446L123.489 16.7333C123.685 16.753 123.85 16.8822 123.909 17.0626C123.969 17.2429 123.912 17.44 123.764 17.5649L121.075 19.8329L121.861 23.1745C121.906 23.3609 121.83 23.5548 121.669 23.6669C121.507 23.779 121.292 23.7875 121.122 23.6886L118.079 21.8968Z" fill="#FF3D2E"/>
<path d="M132.146 21.8968L129.079 23.681C128.91 23.7831 128.693 23.7757 128.532 23.6624C128.371 23.5491 128.298 23.3528 128.348 23.1669L129.134 19.8254L126.437 17.5573C126.288 17.4315 126.232 17.2328 126.293 17.0519C126.355 16.8711 126.523 16.7428 126.72 16.7257L130.274 16.4384L131.698 13.2934C131.772 13.1161 131.951 13 132.15 13C132.349 13 132.527 13.1161 132.602 13.2934L134.002 16.446L137.556 16.7333C137.752 16.753 137.917 16.8822 137.977 17.0626C138.036 17.2429 137.979 17.44 137.831 17.5649L135.142 19.8329L135.928 23.1745C135.973 23.3609 135.897 23.5548 135.736 23.6669C135.575 23.779 135.359 23.7875 135.189 23.6886L132.146 21.8968Z" fill="#FF3D2E"/>
<path d="M0 0H22C27.5228 0 32 4.47715 32 10V35H10C4.47715 35 0 30.5228 0 25V0Z" fill="white"/>
<path d="M42.4268 19.2627L41.415 19.0029L41.9141 14.0469H47.0205V15.2158H42.9873L42.6865 17.9229C42.8688 17.818 43.099 17.7201 43.377 17.6289C43.6595 17.5378 43.9831 17.4922 44.3477 17.4922C44.8079 17.4922 45.2204 17.5719 45.585 17.7314C45.9495 17.8864 46.2594 18.1097 46.5146 18.4014C46.7744 18.693 46.9727 19.0439 47.1094 19.4541C47.2461 19.8643 47.3145 20.3223 47.3145 20.8281C47.3145 21.3066 47.2484 21.7464 47.1162 22.1475C46.9886 22.5485 46.7949 22.8994 46.5352 23.2002C46.2754 23.4964 45.9473 23.7266 45.5508 23.8906C45.1589 24.0547 44.6963 24.1367 44.1631 24.1367C43.762 24.1367 43.3815 24.082 43.0215 23.9727C42.666 23.8587 42.347 23.6878 42.0645 23.46C41.7865 23.2275 41.5586 22.9404 41.3809 22.5986C41.2077 22.2523 41.0983 21.8467 41.0527 21.3818H42.2559C42.3105 21.7555 42.4199 22.07 42.584 22.3252C42.748 22.5804 42.9622 22.7741 43.2266 22.9062C43.4954 23.0339 43.8076 23.0977 44.1631 23.0977C44.4639 23.0977 44.7305 23.0452 44.9629 22.9404C45.1953 22.8356 45.3913 22.6852 45.5508 22.4893C45.7103 22.2933 45.8311 22.0563 45.9131 21.7783C45.9997 21.5003 46.043 21.1882 46.043 20.8418C46.043 20.5273 45.9997 20.2357 45.9131 19.9668C45.8265 19.6979 45.6966 19.4632 45.5234 19.2627C45.3548 19.0622 45.1475 18.9072 44.9014 18.7979C44.6553 18.6839 44.3727 18.627 44.0537 18.627C43.6299 18.627 43.3086 18.6839 43.0898 18.7979C42.8757 18.9118 42.6546 19.0667 42.4268 19.2627ZM48.8594 23.3301C48.8594 23.1159 48.9255 22.9359 49.0576 22.79C49.1943 22.6396 49.3903 22.5645 49.6455 22.5645C49.9007 22.5645 50.0944 22.6396 50.2266 22.79C50.3633 22.9359 50.4316 23.1159 50.4316 23.3301C50.4316 23.5397 50.3633 23.7174 50.2266 23.8633C50.0944 24.0091 49.9007 24.082 49.6455 24.082C49.3903 24.082 49.1943 24.0091 49.0576 23.8633C48.9255 23.7174 48.8594 23.5397 48.8594 23.3301ZM58.6416 18.2305V19.748C58.6416 20.5638 58.5687 21.252 58.4229 21.8125C58.277 22.373 58.0674 22.8242 57.7939 23.166C57.5205 23.5078 57.1901 23.7562 56.8027 23.9111C56.4199 24.0615 55.987 24.1367 55.5039 24.1367C55.1211 24.1367 54.7679 24.0889 54.4443 23.9932C54.1208 23.8975 53.8291 23.7448 53.5693 23.5352C53.3141 23.321 53.0954 23.043 52.9131 22.7012C52.7308 22.3594 52.5918 21.9447 52.4961 21.457C52.4004 20.9694 52.3525 20.3997 52.3525 19.748V18.2305C52.3525 17.4147 52.4255 16.7311 52.5713 16.1797C52.7217 15.6283 52.9336 15.1862 53.207 14.8535C53.4805 14.5163 53.8086 14.2747 54.1914 14.1289C54.5788 13.9831 55.0117 13.9102 55.4902 13.9102C55.8776 13.9102 56.2331 13.958 56.5566 14.0537C56.8848 14.1449 57.1764 14.293 57.4316 14.498C57.6868 14.6986 57.9033 14.9674 58.0811 15.3047C58.2633 15.6374 58.4023 16.0452 58.498 16.5283C58.5938 17.0114 58.6416 17.5788 58.6416 18.2305ZM57.3701 19.9531V18.0186C57.3701 17.5719 57.3428 17.18 57.2881 16.8428C57.238 16.501 57.1628 16.2093 57.0625 15.9678C56.9622 15.7262 56.8346 15.5303 56.6797 15.3799C56.5293 15.2295 56.3538 15.1201 56.1533 15.0518C55.9574 14.9788 55.7363 14.9424 55.4902 14.9424C55.1895 14.9424 54.9229 14.9993 54.6904 15.1133C54.458 15.2227 54.262 15.3981 54.1025 15.6396C53.9476 15.8812 53.8291 16.1979 53.7471 16.5898C53.665 16.9818 53.624 17.458 53.624 18.0186V19.9531C53.624 20.3997 53.6491 20.7939 53.6992 21.1357C53.7539 21.4775 53.8337 21.7738 53.9385 22.0244C54.0433 22.2705 54.1709 22.4733 54.3213 22.6328C54.4717 22.7923 54.6449 22.9108 54.8408 22.9883C55.0413 23.0612 55.2624 23.0977 55.5039 23.0977C55.8138 23.0977 56.085 23.0384 56.3174 22.9199C56.5498 22.8014 56.7435 22.6169 56.8984 22.3662C57.0579 22.111 57.1764 21.7852 57.2539 21.3887C57.3314 20.9876 57.3701 20.5091 57.3701 19.9531Z" fill="white"/>
<path d="M41.0262 35V29.105H43.2378C43.6882 29.105 44.0487 29.1653 44.3195 29.286C44.5929 29.4039 44.8061 29.5875 44.9589 29.8369C45.1143 30.0835 45.1921 30.3422 45.1921 30.6129C45.1921 30.8649 45.1237 31.1022 44.987 31.3247C44.8503 31.5472 44.6439 31.7268 44.3678 31.8635C44.7243 31.9681 44.9977 32.1463 45.1881 32.3983C45.3811 32.6503 45.4776 32.9479 45.4776 33.291C45.4776 33.5671 45.4186 33.8245 45.3007 34.0631C45.1854 34.299 45.042 34.4813 44.8704 34.6099C44.6988 34.7386 44.483 34.8365 44.223 34.9035C43.9656 34.9678 43.6493 35 43.274 35H41.0262ZM41.8063 31.582H43.081C43.4268 31.582 43.6748 31.5592 43.8249 31.5137C44.0233 31.4547 44.1721 31.3568 44.2713 31.2201C44.3731 31.0834 44.4241 30.9118 44.4241 30.7054C44.4241 30.5097 44.3771 30.3382 44.2833 30.1907C44.1895 30.0406 44.0554 29.9387 43.8812 29.8851C43.707 29.8288 43.408 29.8007 42.9845 29.8007H41.8063V31.582ZM41.8063 34.3043H43.274C43.526 34.3043 43.7029 34.295 43.8048 34.2762C43.9844 34.244 44.1345 34.1904 44.2552 34.1153C44.3758 34.0403 44.475 33.9317 44.5527 33.7896C44.6305 33.6449 44.6693 33.4787 44.6693 33.291C44.6693 33.0712 44.613 32.8809 44.5005 32.72C44.3879 32.5565 44.231 32.4426 44.03 32.3782C43.8316 32.3112 43.5448 32.2777 43.1695 32.2777H41.8063V34.3043ZM49.2454 34.4732C48.9773 34.7011 48.7186 34.8619 48.4693 34.9558C48.2227 35.0496 47.9573 35.0965 47.6731 35.0965C47.204 35.0965 46.8434 34.9826 46.5914 34.7547C46.3395 34.5242 46.2135 34.2306 46.2135 33.8741C46.2135 33.665 46.2604 33.4746 46.3542 33.3031C46.4507 33.1288 46.5754 32.9894 46.7282 32.8849C46.8837 32.7803 47.0579 32.7012 47.2509 32.6476C47.393 32.6101 47.6075 32.5739 47.8943 32.5391C48.4787 32.4694 48.909 32.3863 49.1851 32.2898C49.1878 32.1906 49.1891 32.1276 49.1891 32.1008C49.1891 31.8059 49.1207 31.5981 48.984 31.4775C48.7991 31.314 48.5243 31.2322 48.1597 31.2322C47.8192 31.2322 47.5672 31.2925 47.4037 31.4131C47.2429 31.5311 47.1236 31.7415 47.0458 32.0445L46.3381 31.948C46.4025 31.645 46.5083 31.4011 46.6558 31.2161C46.8032 31.0285 47.0163 30.885 47.2951 30.7858C47.5739 30.684 47.897 30.633 48.2642 30.633C48.6288 30.633 48.925 30.6759 49.1529 30.7617C49.3808 30.8475 49.5483 30.9561 49.6556 31.0874C49.7628 31.2161 49.8378 31.3796 49.8807 31.578C49.9049 31.7013 49.9169 31.9238 49.9169 32.2455V33.2106C49.9169 33.8835 49.9317 34.3097 49.9612 34.4893C49.9933 34.6662 50.055 34.8365 50.1461 35H49.3902C49.3151 34.8499 49.2668 34.6743 49.2454 34.4732ZM49.1851 32.8567C48.9224 32.964 48.5283 33.0551 48.0029 33.1302C47.7053 33.1731 47.4949 33.2213 47.3715 33.2749C47.2482 33.3285 47.1531 33.4076 47.086 33.5122C47.019 33.614 46.9855 33.728 46.9855 33.854C46.9855 34.047 47.0579 34.2078 47.2027 34.3365C47.3501 34.4652 47.5646 34.5295 47.846 34.5295C48.1248 34.5295 48.3728 34.4692 48.59 34.3486C48.8071 34.2253 48.9666 34.0577 49.0685 33.8459C49.1462 33.6824 49.1851 33.4411 49.1851 33.1221V32.8567ZM50.7533 33.7253L51.4691 33.6127C51.5093 33.8995 51.6206 34.1194 51.8028 34.2722C51.9878 34.425 52.2452 34.5014 52.5749 34.5014C52.9073 34.5014 53.1539 34.4344 53.3148 34.3003C53.4756 34.1636 53.5561 34.0041 53.5561 33.8218C53.5561 33.6583 53.485 33.5296 53.3429 33.4358C53.2438 33.3714 52.9971 33.2897 52.6031 33.1905C52.0723 33.0564 51.7037 32.9412 51.4972 32.8447C51.2935 32.7455 51.138 32.6101 51.0308 32.4385C50.9262 32.2643 50.874 32.0726 50.874 31.8635C50.874 31.6732 50.9169 31.4976 51.0026 31.3367C51.0911 31.1732 51.2104 31.0378 51.3605 30.9306C51.4731 30.8475 51.6259 30.7778 51.8189 30.7215C52.0146 30.6625 52.2237 30.633 52.4462 30.633C52.7813 30.633 53.0749 30.6813 53.3269 30.7778C53.5815 30.8743 53.7692 31.0057 53.8898 31.1719C54.0105 31.3354 54.0936 31.5552 54.1391 31.8313L53.4314 31.9278C53.3992 31.708 53.3054 31.5365 53.1499 31.4131C52.9971 31.2898 52.78 31.2282 52.4985 31.2282C52.1661 31.2282 51.9288 31.2831 51.7868 31.393C51.6447 31.5029 51.5736 31.6316 51.5736 31.7791C51.5736 31.8729 51.6031 31.9573 51.6621 32.0324C51.7211 32.1101 51.8136 32.1745 51.9396 32.2254C52.0119 32.2522 52.2251 32.3139 52.5789 32.4104C53.091 32.5471 53.4475 32.6597 53.6485 32.7482C53.8523 32.8339 54.0118 32.9599 54.1271 33.1261C54.2423 33.2924 54.3 33.4988 54.3 33.7454C54.3 33.9867 54.2289 34.2145 54.0869 34.429C53.9475 34.6408 53.7451 34.8056 53.4797 34.9236C53.2143 35.0389 52.914 35.0965 52.5789 35.0965C52.024 35.0965 51.6004 34.9812 51.3082 34.7507C51.0187 34.5201 50.8338 34.1783 50.7533 33.7253ZM58.0839 33.6248L58.8318 33.7173C58.7138 34.1542 58.4954 34.4933 58.1764 34.7346C57.8573 34.9759 57.4499 35.0965 56.9539 35.0965C56.3293 35.0965 55.8334 34.9048 55.4661 34.5215C55.1015 34.1355 54.9192 33.5953 54.9192 32.901C54.9192 32.1825 55.1042 31.6249 55.4741 31.2282C55.8441 30.8314 56.3239 30.633 56.9137 30.633C57.4847 30.633 57.9512 30.8274 58.3131 31.2161C58.675 31.6048 58.8559 32.1517 58.8559 32.8567C58.8559 32.8996 58.8546 32.964 58.8519 33.0497H55.6672C55.694 33.5189 55.8267 33.8781 56.0653 34.1274C56.3038 34.3767 56.6014 34.5014 56.9579 34.5014C57.2233 34.5014 57.4499 34.4317 57.6375 34.2923C57.8252 34.1529 57.974 33.9304 58.0839 33.6248ZM55.7074 32.4546H58.0919C58.0597 32.0954 57.9686 31.826 57.8185 31.6464C57.5879 31.3676 57.289 31.2282 56.9218 31.2282C56.5893 31.2282 56.3092 31.3394 56.0813 31.5619C55.8562 31.7844 55.7315 32.082 55.7074 32.4546ZM62.5152 35V34.4612C62.2444 34.8847 61.8463 35.0965 61.3209 35.0965C60.9804 35.0965 60.6668 35.0027 60.3799 34.815C60.0958 34.6274 59.8746 34.366 59.7164 34.0309C59.561 33.6931 59.4832 33.3058 59.4832 32.8688C59.4832 32.4426 59.5543 32.0565 59.6963 31.7107C59.8384 31.3622 60.0515 31.0955 60.3357 30.9105C60.6199 30.7255 60.9375 30.633 61.2887 30.633C61.5461 30.633 61.7753 30.688 61.9763 30.7979C62.1774 30.9051 62.3409 31.0459 62.4669 31.2201V29.105H63.1867V35H62.5152ZM60.2271 32.8688C60.2271 33.4157 60.3424 33.8245 60.573 34.0952C60.8035 34.366 61.0756 34.5014 61.3892 34.5014C61.7056 34.5014 61.9736 34.3727 62.1935 34.1153C62.416 33.8553 62.5272 33.4599 62.5272 32.9291C62.5272 32.3447 62.4146 31.9158 62.1894 31.6423C61.9643 31.3689 61.6868 31.2322 61.3571 31.2322C61.0354 31.2322 60.766 31.3635 60.5488 31.6263C60.3344 31.889 60.2271 32.3032 60.2271 32.8688ZM66.3513 32.8648C66.3513 32.074 66.5712 31.4882 67.0108 31.1075C67.3781 30.7912 67.8257 30.633 68.3539 30.633C68.9409 30.633 69.4208 30.8261 69.7934 31.2121C70.166 31.5954 70.3524 32.1262 70.3524 32.8045C70.3524 33.354 70.2693 33.787 70.1031 34.1033C69.9395 34.4169 69.6996 34.6609 69.3833 34.8351C69.0696 35.0094 68.7265 35.0965 68.3539 35.0965C67.756 35.0965 67.2722 34.9048 66.9022 34.5215C66.535 34.1381 66.3513 33.5859 66.3513 32.8648ZM67.0952 32.8648C67.0952 33.4116 67.2145 33.8218 67.4531 34.0952C67.6917 34.366 67.992 34.5014 68.3539 34.5014C68.7131 34.5014 69.012 34.3647 69.2506 34.0912C69.4892 33.8178 69.6085 33.4009 69.6085 32.8406C69.6085 32.3125 69.4878 31.9131 69.2465 31.6423C69.008 31.3689 68.7104 31.2322 68.3539 31.2322C67.992 31.2322 67.6917 31.3676 67.4531 31.6383C67.2145 31.9091 67.0952 32.3179 67.0952 32.8648ZM71.2048 35V30.7295H71.8563V31.3367C72.1699 30.8676 72.623 30.633 73.2154 30.633C73.4728 30.633 73.7087 30.68 73.9231 30.7738C74.1403 30.8649 74.3025 30.9856 74.4097 31.1357C74.5169 31.2858 74.592 31.4641 74.6349 31.6705C74.6617 31.8045 74.6751 32.0391 74.6751 32.3742V35H73.9513V32.4023C73.9513 32.1075 73.9231 31.8876 73.8668 31.7429C73.8105 31.5954 73.71 31.4788 73.5653 31.393C73.4232 31.3046 73.2556 31.2603 73.0626 31.2603C72.7543 31.2603 72.4876 31.3582 72.2624 31.5539C72.0399 31.7496 71.9287 32.1209 71.9287 32.6677V35H71.2048ZM78.9938 31.8032C78.6935 31.6933 78.471 31.5365 78.3263 31.3327C78.1815 31.129 78.1091 30.885 78.1091 30.6009C78.1091 30.172 78.2633 29.8114 78.5716 29.5192C78.8799 29.227 79.29 29.0809 79.802 29.0809C80.3167 29.0809 80.7309 29.231 81.0446 29.5312C81.3582 29.8288 81.515 30.1921 81.515 30.621C81.515 30.8944 81.4427 31.133 81.2979 31.3367C81.1558 31.5378 80.9387 31.6933 80.6465 31.8032C81.0084 31.9211 81.2832 32.1115 81.4708 32.3742C81.6611 32.6369 81.7563 32.9506 81.7563 33.3151C81.7563 33.8191 81.578 34.2427 81.2215 34.5858C80.865 34.929 80.3958 35.1005 79.8141 35.1005C79.2324 35.1005 78.7632 34.929 78.4067 34.5858C78.0502 34.24 77.8719 33.8097 77.8719 33.295C77.8719 32.9117 77.9684 32.5913 78.1614 32.334C78.3571 32.074 78.6346 31.897 78.9938 31.8032ZM78.849 30.5767C78.849 30.8555 78.9388 31.0834 79.1184 31.2603C79.2981 31.4373 79.5313 31.5257 79.8181 31.5257C80.0969 31.5257 80.3248 31.4386 80.5017 31.2644C80.6813 31.0874 80.7711 30.8716 80.7711 30.617C80.7711 30.3516 80.6786 30.1291 80.4937 29.9494C80.3114 29.7672 80.0835 29.676 79.8101 29.676C79.534 29.676 79.3048 29.7645 79.1225 29.9414C78.9402 30.1183 78.849 30.3301 78.849 30.5767ZM78.6158 33.2991C78.6158 33.5055 78.6641 33.7052 78.7606 33.8982C78.8598 34.0912 79.0059 34.2413 79.1989 34.3486C79.3919 34.4531 79.5996 34.5054 79.8221 34.5054C80.168 34.5054 80.4535 34.3941 80.6786 34.1716C80.9038 33.9491 81.0164 33.6663 81.0164 33.3232C81.0164 32.9747 80.8998 32.6865 80.6666 32.4586C80.436 32.2308 80.1465 32.1168 79.798 32.1168C79.4576 32.1168 79.1747 32.2294 78.9496 32.4546C78.7271 32.6798 78.6158 32.9613 78.6158 33.2991ZM89.2557 32.9331L90.0358 33.1302C89.8723 33.7709 89.5774 34.2601 89.1512 34.5979C88.7276 34.933 88.2089 35.1005 87.595 35.1005C86.9597 35.1005 86.4423 34.9719 86.0428 34.7145C85.6461 34.4545 85.3432 34.0792 85.1341 33.5886C84.9277 33.098 84.8244 32.5712 84.8244 32.0083C84.8244 31.3944 84.9411 30.8596 85.1743 30.4038C85.4102 29.9454 85.7439 29.5983 86.1755 29.3624C86.6098 29.1238 87.087 29.0045 87.6071 29.0045C88.1968 29.0045 88.6928 29.1546 89.0949 29.4548C89.497 29.7551 89.7771 30.1773 89.9353 30.7215L89.1673 30.9025C89.0306 30.4735 88.8322 30.1612 88.5721 29.9655C88.3121 29.7698 87.9851 29.672 87.591 29.672C87.1379 29.672 86.7586 29.7806 86.453 29.9977C86.1501 30.2148 85.937 30.507 85.8136 30.8743C85.6903 31.2389 85.6287 31.6155 85.6287 32.0043C85.6287 32.5056 85.7011 32.9439 85.8458 33.3192C85.9933 33.6918 86.2211 33.9706 86.5294 34.1556C86.8377 34.3405 87.1714 34.433 87.5307 34.433C87.9676 34.433 88.3376 34.307 88.6405 34.055C88.9434 33.803 89.1485 33.4291 89.2557 32.9331ZM90.8923 35V29.105H91.6161V35H90.8923ZM95.5408 35V34.3727C95.2084 34.8552 94.7567 35.0965 94.1857 35.0965C93.9337 35.0965 93.6978 35.0483 93.4779 34.9517C93.2608 34.8552 93.0986 34.7346 92.9914 34.5898C92.8868 34.4424 92.8131 34.2628 92.7702 34.051C92.7407 33.9089 92.726 33.6837 92.726 33.3755V30.7295H93.4498V33.098C93.4498 33.476 93.4645 33.7307 93.494 33.862C93.5396 34.0524 93.6361 34.2025 93.7835 34.3124C93.931 34.4196 94.1133 34.4732 94.3304 34.4732C94.5476 34.4732 94.7513 34.4183 94.9416 34.3084C95.132 34.1958 95.266 34.0443 95.3437 33.854C95.4242 33.661 95.4644 33.3822 95.4644 33.0176V30.7295H96.1882V35H95.5408ZM98.9065 34.3526L99.011 34.992C98.8073 35.0348 98.625 35.0563 98.4642 35.0563C98.2014 35.0563 97.9977 35.0147 97.8529 34.9316C97.7082 34.8485 97.6063 34.74 97.5473 34.6059C97.4884 34.4692 97.4589 34.1837 97.4589 33.7494V31.2925H96.9281V30.7295H97.4589V29.672L98.1786 29.2377V30.7295H98.9065V31.2925H98.1786V33.7896C98.1786 33.9961 98.1907 34.1288 98.2148 34.1877C98.2416 34.2467 98.2832 34.2936 98.3395 34.3285C98.3985 34.3633 98.4816 34.3807 98.5888 34.3807C98.6692 34.3807 98.7751 34.3714 98.9065 34.3526ZM102.405 33.4358L103.117 33.5283C103.039 34.0188 102.839 34.4035 102.517 34.6823C102.198 34.9584 101.806 35.0965 101.339 35.0965C100.755 35.0965 100.284 34.9062 99.9278 34.5255C99.574 34.1422 99.3971 33.5939 99.3971 32.8809C99.3971 32.4198 99.4735 32.0163 99.6263 31.6705C99.7791 31.3247 100.011 31.066 100.322 30.8944C100.636 30.7202 100.976 30.633 101.343 30.633C101.807 30.633 102.186 30.751 102.481 30.9869C102.776 31.2201 102.965 31.5525 103.048 31.9841L102.345 32.0927C102.278 31.8059 102.158 31.5901 101.987 31.4453C101.818 31.3006 101.613 31.2282 101.371 31.2282C101.007 31.2282 100.711 31.3595 100.483 31.6222C100.255 31.8823 100.141 32.2951 100.141 32.8608C100.141 33.4344 100.251 33.8513 100.471 34.1113C100.691 34.3714 100.977 34.5014 101.331 34.5014C101.615 34.5014 101.853 34.4143 102.043 34.24C102.233 34.0658 102.354 33.7977 102.405 33.4358ZM103.736 35V29.105H104.46V31.2201C104.797 30.8287 105.224 30.633 105.738 30.633C106.055 30.633 106.33 30.696 106.563 30.822C106.796 30.9454 106.962 31.1169 107.061 31.3367C107.163 31.5566 107.214 31.8756 107.214 32.2938V35H106.49V32.2938C106.49 31.9319 106.411 31.6692 106.253 31.5056C106.098 31.3394 105.876 31.2563 105.59 31.2563C105.375 31.2563 105.173 31.3126 104.982 31.4252C104.795 31.5351 104.661 31.6852 104.58 31.8756C104.5 32.0659 104.46 32.3286 104.46 32.6637V35H103.736ZM110.604 35V30.7295H111.255V31.377C111.422 31.074 111.574 30.8743 111.714 30.7778C111.856 30.6813 112.011 30.633 112.18 30.633C112.424 30.633 112.672 30.7108 112.924 30.8663L112.675 31.5378C112.498 31.4332 112.321 31.381 112.144 31.381C111.986 31.381 111.844 31.4292 111.718 31.5257C111.592 31.6196 111.502 31.7509 111.448 31.9198C111.368 32.1772 111.328 32.4586 111.328 32.7642V35H110.604ZM116.278 33.6248L117.026 33.7173C116.908 34.1542 116.689 34.4933 116.37 34.7346C116.051 34.9759 115.644 35.0965 115.148 35.0965C114.523 35.0965 114.027 34.9048 113.66 34.5215C113.295 34.1355 113.113 33.5953 113.113 32.901C113.113 32.1825 113.298 31.6249 113.668 31.2282C114.038 30.8314 114.518 30.633 115.108 30.633C115.679 30.633 116.145 30.8274 116.507 31.2161C116.869 31.6048 117.05 32.1517 117.05 32.8567C117.05 32.8996 117.049 32.964 117.046 33.0497H113.861C113.888 33.5189 114.021 33.8781 114.259 34.1274C114.498 34.3767 114.795 34.5014 115.152 34.5014C115.417 34.5014 115.644 34.4317 115.831 34.2923C116.019 34.1529 116.168 33.9304 116.278 33.6248ZM113.901 32.4546H116.286C116.254 32.0954 116.163 31.826 116.012 31.6464C115.782 31.3676 115.483 31.2282 115.116 31.2282C114.783 31.2282 114.503 31.3394 114.275 31.5619C114.05 31.7844 113.925 32.082 113.901 32.4546ZM119.125 35L117.5 30.7295H118.264L119.181 33.287C119.28 33.5631 119.371 33.85 119.454 34.1475C119.519 33.9223 119.609 33.6516 119.724 33.3352L120.673 30.7295H121.417L119.8 35H119.125ZM122.06 29.9374V29.105H122.784V29.9374H122.06ZM122.06 35V30.7295H122.784V35H122.06ZM126.813 33.6248L127.561 33.7173C127.443 34.1542 127.225 34.4933 126.906 34.7346C126.587 34.9759 126.179 35.0965 125.683 35.0965C125.059 35.0965 124.563 34.9048 124.195 34.5215C123.831 34.1355 123.649 33.5953 123.649 32.901C123.649 32.1825 123.834 31.6249 124.203 31.2282C124.573 30.8314 125.053 30.633 125.643 30.633C126.214 30.633 126.68 30.8274 127.042 31.2161C127.404 31.6048 127.585 32.1517 127.585 32.8567C127.585 32.8996 127.584 32.964 127.581 33.0497H124.396C124.423 33.5189 124.556 33.8781 124.795 34.1274C125.033 34.3767 125.331 34.5014 125.687 34.5014C125.953 34.5014 126.179 34.4317 126.367 34.2923C126.554 34.1529 126.703 33.9304 126.813 33.6248ZM124.437 32.4546H126.821C126.789 32.0954 126.698 31.826 126.548 31.6464C126.317 31.3676 126.018 31.2282 125.651 31.2282C125.319 31.2282 125.039 31.3394 124.811 31.5619C124.585 31.7844 124.461 32.082 124.437 32.4546ZM129.262 35L127.955 30.7295H128.703L129.383 33.1945L129.636 34.1113C129.647 34.0658 129.72 33.7722 129.857 33.2307L130.537 30.7295H131.281L131.92 33.2066L132.133 34.0229L132.378 33.1985L133.11 30.7295H133.814L132.479 35H131.727L131.047 32.4426L130.883 31.7147L130.018 35H129.262ZM134.136 33.7253L134.851 33.6127C134.892 33.8995 135.003 34.1194 135.185 34.2722C135.37 34.425 135.628 34.5014 135.957 34.5014C136.29 34.5014 136.536 34.4344 136.697 34.3003C136.858 34.1636 136.938 34.0041 136.938 33.8218C136.938 33.6583 136.867 33.5296 136.725 33.4358C136.626 33.3714 136.379 33.2897 135.985 33.1905C135.455 33.0564 135.086 32.9412 134.88 32.8447C134.676 32.7455 134.52 32.6101 134.413 32.4385C134.309 32.2643 134.256 32.0726 134.256 31.8635C134.256 31.6732 134.299 31.4976 134.385 31.3367C134.473 31.1732 134.593 31.0378 134.743 30.9306C134.855 30.8475 135.008 30.7778 135.201 30.7215C135.397 30.6625 135.606 30.633 135.829 30.633C136.164 30.633 136.457 30.6813 136.709 30.7778C136.964 30.8743 137.152 31.0057 137.272 31.1719C137.393 31.3354 137.476 31.5552 137.521 31.8313L136.814 31.9278C136.782 31.708 136.688 31.5365 136.532 31.4131C136.379 31.2898 136.162 31.2282 135.881 31.2282C135.548 31.2282 135.311 31.2831 135.169 31.393C135.027 31.5029 134.956 31.6316 134.956 31.7791C134.956 31.8729 134.985 31.9573 135.044 32.0324C135.103 32.1101 135.196 32.1745 135.322 32.2254C135.394 32.2522 135.607 32.3139 135.961 32.4104C136.473 32.5471 136.83 32.6597 137.031 32.7482C137.235 32.8339 137.394 32.9599 137.509 33.1261C137.625 33.2924 137.682 33.4988 137.682 33.7454C137.682 33.9867 137.611 34.2145 137.469 34.429C137.33 34.6408 137.127 34.8056 136.862 34.9236C136.597 35.0389 136.296 35.0965 135.961 35.0965C135.406 35.0965 134.983 34.9812 134.691 34.7507C134.401 34.5201 134.216 34.1783 134.136 33.7253Z" fill="white"/>
<path fill-rule="evenodd" clip-rule="evenodd" d="M20.2707 21.4654C19.302 22.327 18.0188 22.8077 16.6146 22.8077C13.5143 22.8077 11.2383 20.5557 11.2383 17.4635C11.2383 14.3731 13.4418 12.2173 16.6146 12.2173C17.9949 12.2173 19.302 12.673 20.2953 13.5346L20.9722 14.1096L23.9754 11.1385L23.2241 10.4673C21.4575 8.88653 19.1085 8 16.6146 8C11.0448 8 7 11.977 7 17.4404C7 22.8789 11.1416 27 16.6146 27C19.1571 27 21.53 26.1135 23.2726 24.5078L24 23.8384L20.9496 20.8672L20.2707 21.4654Z" fill="black"/>
<path fill-rule="evenodd" clip-rule="evenodd" d="M16.4683 14.3254C18.2472 14.3254 19.6896 15.7513 19.6896 17.512C19.6896 19.2726 18.2472 20.6985 16.4683 20.6985C14.6895 20.6985 13.2477 19.2726 13.2477 17.512C13.2477 15.7513 14.6895 14.3254 16.4683 14.3254Z" fill="#FF3D2E"/>
</g>
<defs>
<clipPath id="clip0_1985_729">
<rect width="138" height="35" fill="white"/>
</clipPath>
</defs>
</svg>
