<svg width="25" height="25" viewBox="0 0 25 25" fill="none" xmlns="http://www.w3.org/2000/svg">
<path fill-rule="evenodd" clip-rule="evenodd" d="M17.2707 16.4654C16.302 17.327 15.0188 17.8077 13.6146 17.8077C10.5143 17.8077 8.2383 15.5557 8.2383 12.4635C8.2383 9.3731 10.4418 7.2173 13.6146 7.2173C14.9949 7.2173 16.302 7.673 17.2953 8.5346L17.9722 9.1096L20.9754 6.1385L20.2241 5.4673C18.4575 3.88653 16.1085 3 13.6146 3C8.0448 3 4 6.977 4 12.4404C4 17.8789 8.1416 22 13.6146 22C16.1571 22 18.53 21.1135 20.2726 19.5078L21 18.8384L17.9496 15.8672L17.2707 16.4654Z" fill="black"/>
<path fill-rule="evenodd" clip-rule="evenodd" d="M13.4683 9.32544C15.2472 9.32544 16.6896 10.7513 16.6896 12.512C16.6896 14.2726 15.2472 15.6985 13.4683 15.6985C11.6895 15.6985 10.2477 14.2726 10.2477 12.512C10.2477 10.7513 11.6895 9.32544 13.4683 9.32544Z" fill="black"/>
</svg>
