<svg width="25" height="26" viewBox="0 0 25 26" fill="none" xmlns="http://www.w3.org/2000/svg">
<path d="M21.62 13.2159C21.62 12.5423 21.5595 11.8945 21.4473 11.2727H12.5V14.9518H17.6127C17.3882 16.135 16.7145 17.1368 15.7041 17.8104V20.2027H18.7873C20.5836 18.5445 21.62 16.1091 21.62 13.2159Z" fill="white"/>
<path d="M12.5 22.5001C15.065 22.5001 17.2154 21.6537 18.7873 20.2028L15.7041 17.8105C14.8577 18.3805 13.7782 18.726 12.5 18.726C10.03 18.726 7.93135 17.0592 7.17998 14.8137H4.01907V17.2664C5.58226 20.3669 8.78635 22.5001 12.5 22.5001Z" fill="white"/>
<path d="M7.18 14.8049C6.99 14.2349 6.87773 13.6304 6.87773 12.9999C6.87773 12.3695 6.99 11.7649 7.18 11.1949V8.74219H4.01909C3.37136 10.0204 3 11.4626 3 12.9999C3 14.5372 3.37136 15.9795 4.01909 17.2576L6.48045 15.3404L7.18 14.8049Z" fill="white"/>
<path d="M12.5 7.28273C13.8991 7.28273 15.1427 7.76636 16.1359 8.69909L18.8563 5.97864C17.2068 4.44136 15.065 3.5 12.5 3.5C8.78635 3.5 5.58226 5.63318 4.01907 8.74227L7.17998 11.195C7.93135 8.94955 10.03 7.28273 12.5 7.28273Z" fill="white"/>
</svg>
