<svg width="25" height="25" viewBox="0 0 25 25" fill="none" xmlns="http://www.w3.org/2000/svg">
<path d="M21.62 12.7159C21.62 12.0423 21.5595 11.3945 21.4473 10.7727H12.5V14.4518H17.6127C17.3882 15.635 16.7145 16.6368 15.7041 17.3104V19.7027H18.7873C20.5836 18.0445 21.62 15.6091 21.62 12.7159Z" fill="black"/>
<path d="M12.5 22.0001C15.065 22.0001 17.2154 21.1537 18.7873 19.7028L15.7041 17.3105C14.8577 17.8805 13.7782 18.226 12.5 18.226C10.03 18.226 7.93135 16.5592 7.17998 14.3137H4.01907V16.7664C5.58226 19.8669 8.78635 22.0001 12.5 22.0001Z" fill="black"/>
<path d="M7.18 14.3049C6.99 13.7349 6.87773 13.1304 6.87773 12.4999C6.87773 11.8695 6.99 11.2649 7.18 10.6949V8.24219H4.01909C3.37136 9.52037 3 10.9626 3 12.4999C3 14.0372 3.37136 15.4795 4.01909 16.7576L6.48045 14.8404L7.18 14.3049Z" fill="black"/>
<path d="M12.5 6.78273C13.8991 6.78273 15.1427 7.26636 16.1359 8.19909L18.8563 5.47864C17.2068 3.94136 15.065 3 12.5 3C8.78635 3 5.58226 5.13318 4.01907 8.24227L7.17998 10.695C7.93135 8.44955 10.03 6.78273 12.5 6.78273Z" fill="black"/>
</svg>
