<svg width="138" height="37" viewBox="0 0 138 37" fill="none" xmlns="http://www.w3.org/2000/svg">
<path d="M75.877 21.8968L72.8101 23.681C72.641 23.7831 72.4242 23.7757 72.263 23.6624C72.1019 23.5491 72.0288 23.3528 72.0787 23.1669L72.8651 19.8254L70.1678 17.5573C70.0193 17.4315 69.963 17.2328 70.0246 17.0519C70.0862 16.8711 70.2538 16.7428 70.4509 16.7257L74.0054 16.4384L75.4287 13.2934C75.5031 13.1161 75.682 13 75.8809 13C76.0797 13 76.2587 13.1161 76.3331 13.2934L77.7328 16.446L81.2873 16.7333C81.483 16.753 81.6481 16.8822 81.7078 17.0626C81.7674 17.2429 81.7104 17.44 81.5625 17.5649L78.8731 19.8329L79.6595 23.1745C79.7039 23.3609 79.6281 23.5548 79.467 23.6669C79.3058 23.779 79.0905 23.7875 78.9203 23.6886L75.877 21.8968Z" fill="#FBBC05"/>
<path d="M89.9442 21.8968L86.8773 23.681C86.7082 23.7831 86.4915 23.7757 86.3303 23.6624C86.1691 23.5491 86.0961 23.3528 86.146 23.1669L86.9324 19.8254L84.2351 17.5573C84.0866 17.4315 84.0303 17.2328 84.0919 17.0519C84.1534 16.8711 84.321 16.7428 84.5182 16.7257L88.0726 16.4384L89.496 13.2934C89.5704 13.1161 89.7493 13 89.9481 13C90.147 13 90.3259 13.1161 90.4003 13.2934L91.8001 16.446L95.3545 16.7333C95.5503 16.753 95.7153 16.8822 95.775 17.0626C95.8347 17.2429 95.7777 17.44 95.6298 17.5649L92.9403 19.8329L93.7267 23.1745C93.7712 23.3609 93.6954 23.5548 93.5342 23.6669C93.373 23.779 93.1578 23.7875 92.9875 23.6886L89.9442 21.8968Z" fill="#FBBC05"/>
<path d="M104.011 21.8968L100.944 23.681C100.775 23.7831 100.559 23.7757 100.397 23.6624C100.236 23.5491 100.163 23.3528 100.213 23.1669L100.999 19.8254L98.3022 17.5573C98.1537 17.4315 98.0974 17.2328 98.159 17.0519C98.2206 16.8711 98.3882 16.7428 98.5853 16.7257L102.14 16.4384L103.563 13.2934C103.637 13.1161 103.816 13 104.015 13C104.214 13 104.393 13.1161 104.467 13.2934L105.867 16.446L109.422 16.7333C109.617 16.753 109.782 16.8822 109.842 17.0626C109.902 17.2429 109.845 17.44 109.697 17.5649L107.007 19.8329L107.794 23.1745C107.838 23.3609 107.763 23.5548 107.601 23.6669C107.44 23.779 107.225 23.7875 107.055 23.6886L104.011 21.8968Z" fill="#FBBC05"/>
<path d="M118.079 21.8968L115.012 23.681C114.843 23.7831 114.626 23.7757 114.465 23.6624C114.304 23.5491 114.23 23.3528 114.28 23.1669L115.067 19.8254L112.369 17.5573C112.221 17.4315 112.165 17.2328 112.226 17.0519C112.288 16.8711 112.455 16.7428 112.653 16.7257L116.207 16.4384L117.63 13.2934C117.705 13.1161 117.884 13 118.083 13C118.281 13 118.46 13.1161 118.535 13.2934L119.934 16.446L123.489 16.7333C123.685 16.753 123.85 16.8822 123.909 17.0626C123.969 17.2429 123.912 17.44 123.764 17.5649L121.075 19.8329L121.861 23.1745C121.906 23.3609 121.83 23.5548 121.669 23.6669C121.507 23.779 121.292 23.7875 121.122 23.6886L118.079 21.8968Z" fill="#FBBC05"/>
<path d="M132.146 21.8968L129.079 23.681C128.91 23.7831 128.693 23.7757 128.532 23.6624C128.371 23.5491 128.298 23.3528 128.348 23.1669L129.134 19.8254L126.437 17.5573C126.288 17.4315 126.232 17.2328 126.293 17.0519C126.355 16.8711 126.523 16.7428 126.72 16.7257L130.274 16.4384L131.698 13.2934C131.772 13.1161 131.951 13 132.15 13C132.349 13 132.527 13.1161 132.602 13.2934L134.002 16.446L137.556 16.7333C137.752 16.753 137.917 16.8822 137.977 17.0626C138.036 17.2429 137.979 17.44 137.831 17.5649L135.142 19.8329L135.928 23.1745C135.973 23.3609 135.897 23.5548 135.736 23.6669C135.575 23.779 135.359 23.7875 135.189 23.6886L132.146 21.8968Z" fill="#FBBC05"/>
<path d="M0 19C0 10.1635 7.16349 3.00003 16.0001 3.00006V3.00006C24.8366 3.00009 32 10.1635 32 19V19C32 27.8366 24.8365 35 16 35V35C7.16346 35 0 27.8366 0 19V19Z" fill="white"/>
<path d="M25.12 19.2159C25.12 18.5423 25.0595 17.8945 24.9473 17.2727H16V20.9518H21.1127C20.8882 22.135 20.2145 23.1368 19.2041 23.8104V26.2027H22.2873C24.0836 24.5445 25.12 22.1091 25.12 19.2159Z" fill="#4285F4"/>
<path d="M16 28.5001C18.565 28.5001 20.7154 27.6537 22.2873 26.2028L19.2041 23.8105C18.3577 24.3805 17.2782 24.726 16 24.726C13.53 24.726 11.4313 23.0592 10.68 20.8137H7.51907V23.2664C9.08226 26.3669 12.2863 28.5001 16 28.5001Z" fill="#34A853"/>
<path d="M10.68 20.8049C10.49 20.2349 10.3777 19.6304 10.3777 18.9999C10.3777 18.3695 10.49 17.7649 10.68 17.1949V14.7422H7.51909C6.87136 16.0204 6.5 17.4626 6.5 18.9999C6.5 20.5372 6.87136 21.9795 7.51909 23.2576L9.98045 21.3404L10.68 20.8049Z" fill="#FBBC05"/>
<path d="M16 13.2827C17.3991 13.2827 18.6427 13.7664 19.6359 14.6991L22.3563 11.9786C20.7068 10.4414 18.565 9.5 16 9.5C12.2863 9.5 9.08226 11.6332 7.51907 14.7423L10.68 17.195C11.4313 14.9495 13.53 13.2827 16 13.2827Z" fill="#EA4335"/>
<path d="M42.4268 19.2627L41.415 19.0029L41.9141 14.0469H47.0205V15.2158H42.9873L42.6865 17.9229C42.8688 17.818 43.099 17.7201 43.377 17.6289C43.6595 17.5378 43.9831 17.4922 44.3477 17.4922C44.8079 17.4922 45.2204 17.5719 45.585 17.7314C45.9495 17.8864 46.2594 18.1097 46.5146 18.4014C46.7744 18.693 46.9727 19.0439 47.1094 19.4541C47.2461 19.8643 47.3145 20.3223 47.3145 20.8281C47.3145 21.3066 47.2484 21.7464 47.1162 22.1475C46.9886 22.5485 46.7949 22.8994 46.5352 23.2002C46.2754 23.4964 45.9473 23.7266 45.5508 23.8906C45.1589 24.0547 44.6963 24.1367 44.1631 24.1367C43.762 24.1367 43.3815 24.082 43.0215 23.9727C42.666 23.8587 42.347 23.6878 42.0645 23.46C41.7865 23.2275 41.5586 22.9404 41.3809 22.5986C41.2077 22.2523 41.0983 21.8467 41.0527 21.3818H42.2559C42.3105 21.7555 42.4199 22.07 42.584 22.3252C42.748 22.5804 42.9622 22.7741 43.2266 22.9062C43.4954 23.0339 43.8076 23.0977 44.1631 23.0977C44.4639 23.0977 44.7305 23.0452 44.9629 22.9404C45.1953 22.8356 45.3913 22.6852 45.5508 22.4893C45.7103 22.2933 45.8311 22.0563 45.9131 21.7783C45.9997 21.5003 46.043 21.1882 46.043 20.8418C46.043 20.5273 45.9997 20.2357 45.9131 19.9668C45.8265 19.6979 45.6966 19.4632 45.5234 19.2627C45.3548 19.0622 45.1475 18.9072 44.9014 18.7979C44.6553 18.6839 44.3727 18.627 44.0537 18.627C43.6299 18.627 43.3086 18.6839 43.0898 18.7979C42.8757 18.9118 42.6546 19.0667 42.4268 19.2627ZM48.8594 23.3301C48.8594 23.1159 48.9255 22.9359 49.0576 22.79C49.1943 22.6396 49.3903 22.5645 49.6455 22.5645C49.9007 22.5645 50.0944 22.6396 50.2266 22.79C50.3633 22.9359 50.4316 23.1159 50.4316 23.3301C50.4316 23.5397 50.3633 23.7174 50.2266 23.8633C50.0944 24.0091 49.9007 24.082 49.6455 24.082C49.3903 24.082 49.1943 24.0091 49.0576 23.8633C48.9255 23.7174 48.8594 23.5397 48.8594 23.3301ZM58.6416 18.2305V19.748C58.6416 20.5638 58.5687 21.252 58.4229 21.8125C58.277 22.373 58.0674 22.8242 57.7939 23.166C57.5205 23.5078 57.1901 23.7562 56.8027 23.9111C56.4199 24.0615 55.987 24.1367 55.5039 24.1367C55.1211 24.1367 54.7679 24.0889 54.4443 23.9932C54.1208 23.8975 53.8291 23.7448 53.5693 23.5352C53.3141 23.321 53.0954 23.043 52.9131 22.7012C52.7308 22.3594 52.5918 21.9447 52.4961 21.457C52.4004 20.9694 52.3525 20.3997 52.3525 19.748V18.2305C52.3525 17.4147 52.4255 16.7311 52.5713 16.1797C52.7217 15.6283 52.9336 15.1862 53.207 14.8535C53.4805 14.5163 53.8086 14.2747 54.1914 14.1289C54.5788 13.9831 55.0117 13.9102 55.4902 13.9102C55.8776 13.9102 56.2331 13.958 56.5566 14.0537C56.8848 14.1449 57.1764 14.293 57.4316 14.498C57.6868 14.6986 57.9033 14.9674 58.0811 15.3047C58.2633 15.6374 58.4023 16.0452 58.498 16.5283C58.5938 17.0114 58.6416 17.5788 58.6416 18.2305ZM57.3701 19.9531V18.0186C57.3701 17.5719 57.3428 17.18 57.2881 16.8428C57.238 16.501 57.1628 16.2093 57.0625 15.9678C56.9622 15.7262 56.8346 15.5303 56.6797 15.3799C56.5293 15.2295 56.3538 15.1201 56.1533 15.0518C55.9574 14.9788 55.7363 14.9424 55.4902 14.9424C55.1895 14.9424 54.9229 14.9993 54.6904 15.1133C54.458 15.2227 54.262 15.3981 54.1025 15.6396C53.9476 15.8812 53.8291 16.1979 53.7471 16.5898C53.665 16.9818 53.624 17.458 53.624 18.0186V19.9531C53.624 20.3997 53.6491 20.7939 53.6992 21.1357C53.7539 21.4775 53.8337 21.7738 53.9385 22.0244C54.0433 22.2705 54.1709 22.4733 54.3213 22.6328C54.4717 22.7923 54.6449 22.9108 54.8408 22.9883C55.0413 23.0612 55.2624 23.0977 55.5039 23.0977C55.8138 23.0977 56.085 23.0384 56.3174 22.9199C56.5498 22.8014 56.7435 22.6169 56.8984 22.3662C57.0579 22.111 57.1764 21.7852 57.2539 21.3887C57.3314 20.9876 57.3701 20.5091 57.3701 19.9531Z" fill="white"/>
<path d="M41.7772 34.1189V28.4574H43.9013C44.3338 28.4574 44.6801 28.5153 44.9401 28.6312C45.2027 28.7444 45.4074 28.9208 45.5542 29.1602C45.7035 29.3971 45.7781 29.6455 45.7781 29.9056C45.7781 30.1476 45.7125 30.3754 45.5812 30.5891C45.4499 30.8028 45.2516 30.9753 44.9865 31.1066C45.3289 31.207 45.5915 31.3782 45.7743 31.6203C45.9597 31.8623 46.0523 32.148 46.0523 32.4776C46.0523 32.7428 45.9957 32.9899 45.8824 33.2191C45.7717 33.4456 45.634 33.6207 45.4692 33.7443C45.3044 33.8679 45.0972 33.9618 44.8474 34.0262C44.6003 34.088 44.2965 34.1189 43.936 34.1189H41.7772ZM42.5264 30.8363H43.7507C44.0828 30.8363 44.3209 30.8144 44.4651 30.7706C44.6556 30.714 44.7985 30.62 44.8938 30.4887C44.9916 30.3574 45.0405 30.1926 45.0405 29.9944C45.0405 29.8065 44.9955 29.6417 44.9054 29.5001C44.8152 29.3559 44.6865 29.2581 44.5192 29.2066C44.3518 29.1525 44.0648 29.1255 43.658 29.1255H42.5264V30.8363ZM42.5264 33.4508H43.936C44.178 33.4508 44.348 33.4418 44.4458 33.4238C44.6183 33.3929 44.7625 33.3414 44.8783 33.2693C44.9942 33.1972 45.0894 33.0929 45.1641 32.9565C45.2388 32.8174 45.2761 32.6578 45.2761 32.4776C45.2761 32.2665 45.222 32.0837 45.1139 31.9292C45.0058 31.7722 44.8552 31.6627 44.6621 31.6009C44.4715 31.5366 44.1961 31.5044 43.8356 31.5044H42.5264V33.4508ZM49.6709 33.613C49.4135 33.8318 49.165 33.9863 48.9256 34.0764C48.6887 34.1665 48.4338 34.2116 48.1609 34.2116C47.7104 34.2116 47.3641 34.1022 47.1221 33.8833C46.8801 33.6619 46.7591 33.38 46.7591 33.0376C46.7591 32.8368 46.8041 32.654 46.8942 32.4892C46.9869 32.3218 47.1066 32.188 47.2534 32.0875C47.4027 31.9871 47.5701 31.9112 47.7554 31.8597C47.8919 31.8236 48.0978 31.7889 48.3733 31.7554C48.9346 31.6885 49.3478 31.6087 49.613 31.516C49.6156 31.4207 49.6169 31.3602 49.6169 31.3345C49.6169 31.0513 49.5512 30.8517 49.4199 30.7359C49.2423 30.5788 48.9784 30.5003 48.6282 30.5003C48.3012 30.5003 48.0592 30.5582 47.9022 30.6741C47.7477 30.7874 47.6331 30.9895 47.5585 31.2804L46.8788 31.1877C46.9406 30.8968 47.0423 30.6625 47.1839 30.4849C47.3255 30.3046 47.5302 30.1669 47.7979 30.0716C48.0657 29.9738 48.3759 29.9249 48.7286 29.9249C49.0788 29.9249 49.3633 29.9661 49.5821 30.0485C49.8009 30.1309 49.9619 30.2351 50.0648 30.3613C50.1678 30.4849 50.2399 30.6419 50.2811 30.8324C50.3043 30.9509 50.3159 31.1646 50.3159 31.4735V32.4004C50.3159 33.0466 50.33 33.4559 50.3583 33.6284C50.3892 33.7984 50.4485 33.9618 50.536 34.1189H49.81C49.7379 33.9747 49.6915 33.8061 49.6709 33.613ZM49.613 32.0605C49.3607 32.1635 48.9822 32.251 48.4776 32.3231C48.1918 32.3643 47.9897 32.4107 47.8713 32.4621C47.7529 32.5136 47.6615 32.5896 47.5971 32.69C47.5327 32.7878 47.5005 32.8973 47.5005 33.0183C47.5005 33.2036 47.5701 33.3581 47.7091 33.4817C47.8507 33.6053 48.0567 33.6671 48.327 33.6671C48.5947 33.6671 48.8329 33.6091 49.0414 33.4933C49.25 33.3748 49.4032 33.2139 49.501 33.0105C49.5757 32.8535 49.613 32.6218 49.613 32.3154V32.0605ZM51.1191 32.8947L51.8065 32.7865C51.8452 33.062 51.952 33.2731 52.1271 33.4199C52.3047 33.5666 52.5519 33.64 52.8686 33.64C53.1878 33.64 53.4247 33.5757 53.5792 33.4469C53.7336 33.3156 53.8109 33.1624 53.8109 32.9874C53.8109 32.8303 53.7426 32.7067 53.6062 32.6166C53.5109 32.5548 53.2741 32.4763 52.8956 32.381C52.3858 32.2523 52.0318 32.1416 51.8336 32.0489C51.6379 31.9537 51.4886 31.8236 51.3856 31.6589C51.2852 31.4915 51.235 31.3074 51.235 31.1066C51.235 30.9238 51.2762 30.7552 51.3586 30.6007C51.4435 30.4437 51.5581 30.3137 51.7023 30.2107C51.8104 30.1309 51.9572 30.0639 52.1425 30.0098C52.3305 29.9532 52.5313 29.9249 52.745 29.9249C53.0668 29.9249 53.3487 29.9712 53.5907 30.0639C53.8353 30.1566 54.0155 30.2828 54.1314 30.4424C54.2473 30.5994 54.3271 30.8105 54.3708 31.0757L53.6911 31.1684C53.6603 30.9573 53.5701 30.7925 53.4208 30.6741C53.2741 30.5557 53.0655 30.4964 52.7952 30.4964C52.4759 30.4964 52.2481 30.5492 52.1116 30.6548C51.9752 30.7603 51.907 30.8839 51.907 31.0255C51.907 31.1156 51.9353 31.1967 51.9919 31.2688C52.0486 31.3435 52.1374 31.4053 52.2584 31.4542C52.3279 31.4799 52.5326 31.5392 52.8724 31.6318C53.3642 31.7631 53.7066 31.8713 53.8997 31.9562C54.0954 32.0386 54.2485 32.1596 54.3593 32.3193C54.47 32.4789 54.5253 32.6771 54.5253 32.914C54.5253 33.1457 54.4571 33.3645 54.3206 33.5705C54.1868 33.7739 53.9924 33.9322 53.7375 34.0455C53.4826 34.1562 53.1943 34.2116 52.8724 34.2116C52.3395 34.2116 51.9327 34.1009 51.6521 33.8795C51.374 33.658 51.1964 33.3298 51.1191 32.8947ZM58.1594 32.7981L58.8777 32.887C58.7644 33.3066 58.5546 33.6323 58.2482 33.864C57.9418 34.0957 57.5505 34.2116 57.0742 34.2116C56.4743 34.2116 55.998 34.0275 55.6453 33.6593C55.2951 33.2886 55.12 32.7698 55.12 32.103C55.12 31.413 55.2977 30.8775 55.653 30.4964C56.0083 30.1154 56.4691 29.9249 57.0355 29.9249C57.5839 29.9249 58.0319 30.1115 58.3795 30.4849C58.7271 30.8582 58.9008 31.3834 58.9008 32.0605C58.9008 32.1017 58.8995 32.1635 58.897 32.2459H55.8384C55.8641 32.6964 55.9915 33.0414 56.2207 33.2809C56.4498 33.5203 56.7356 33.64 57.078 33.64C57.3329 33.64 57.5505 33.5731 57.7307 33.4392C57.9109 33.3053 58.0538 33.0916 58.1594 32.7981ZM55.877 31.6743H58.1671C58.1362 31.3293 58.0486 31.0706 57.9045 30.8981C57.6831 30.6303 57.396 30.4964 57.0433 30.4964C56.724 30.4964 56.455 30.6033 56.2361 30.817C56.0199 31.0307 55.9001 31.3165 55.877 31.6743ZM62.4152 34.1189V33.6014C62.1551 34.0082 61.7728 34.2116 61.2682 34.2116C60.9412 34.2116 60.64 34.1215 60.3645 33.9412C60.0916 33.761 59.8792 33.51 59.7273 33.1882C59.578 32.8638 59.5033 32.4918 59.5033 32.0721C59.5033 31.6627 59.5715 31.292 59.708 30.9599C59.8444 30.6252 60.0491 30.369 60.322 30.1914C60.5949 30.0137 60.9 29.9249 61.2373 29.9249C61.4844 29.9249 61.7046 29.9777 61.8977 30.0832C62.0908 30.1862 62.2478 30.3214 62.3688 30.4887V28.4574H63.0601V34.1189H62.4152ZM60.2177 32.0721C60.2177 32.5973 60.3284 32.9899 60.5499 33.25C60.7713 33.51 61.0326 33.64 61.3338 33.64C61.6376 33.64 61.8951 33.5164 62.1062 33.2693C62.3199 33.0195 62.4267 32.6398 62.4267 32.13C62.4267 31.5688 62.3186 31.1568 62.1023 30.8942C61.8861 30.6316 61.6196 30.5003 61.3029 30.5003C60.994 30.5003 60.7352 30.6265 60.5267 30.8788C60.3207 31.1311 60.2177 31.5289 60.2177 32.0721ZM66.0994 32.0682C66.0994 31.3087 66.3105 30.7462 66.7327 30.3806C67.0855 30.0768 67.5154 29.9249 68.0226 29.9249C68.5864 29.9249 69.0473 30.1103 69.4052 30.481C69.763 30.8492 69.942 31.3589 69.942 32.0103C69.942 32.5381 69.8622 32.9539 69.7025 33.2577C69.5455 33.5589 69.3151 33.7932 69.0113 33.9606C68.71 34.1279 68.3805 34.2116 68.0226 34.2116C67.4485 34.2116 66.9838 34.0275 66.6285 33.6593C66.2758 33.2912 66.0994 32.7608 66.0994 32.0682ZM66.8138 32.0682C66.8138 32.5935 66.9284 32.9874 67.1575 33.25C67.3867 33.51 67.675 33.64 68.0226 33.64C68.3676 33.64 68.6547 33.5087 68.8838 33.2461C69.113 32.9835 69.2275 32.5832 69.2275 32.0451C69.2275 31.5379 69.1117 31.1543 68.88 30.8942C68.6508 30.6316 68.365 30.5003 68.0226 30.5003C67.675 30.5003 67.3867 30.6303 67.1575 30.8904C66.9284 31.1504 66.8138 31.543 66.8138 32.0682ZM70.7607 34.1189V30.0176H71.3863V30.6007C71.6875 30.1502 72.1226 29.9249 72.6916 29.9249C72.9388 29.9249 73.1654 29.9699 73.3713 30.0601C73.5799 30.1476 73.7356 30.2634 73.8386 30.4076C73.9416 30.5518 74.0137 30.723 74.0549 30.9213C74.0806 31.05 74.0935 31.2753 74.0935 31.5971V34.1189H73.3984V31.6241C73.3984 31.3409 73.3713 31.1298 73.3173 30.9908C73.2632 30.8492 73.1666 30.7372 73.0276 30.6548C72.8912 30.5698 72.7303 30.5273 72.5449 30.5273C72.2488 30.5273 71.9926 30.6213 71.7764 30.8093C71.5627 30.9972 71.4558 31.3538 71.4558 31.879V34.1189H70.7607ZM80.7784 29.8438L80.0871 29.8979C80.0254 29.6249 79.9378 29.4267 79.8245 29.3031C79.6366 29.1049 79.4049 29.0058 79.1294 29.0058C78.908 29.0058 78.7136 29.0675 78.5463 29.1911C78.3274 29.3508 78.1549 29.5838 78.0288 29.8901C77.9026 30.1965 77.837 30.6329 77.8318 31.1993C77.9992 30.9444 78.2038 30.7552 78.4458 30.6316C78.6879 30.508 78.9415 30.4462 79.2066 30.4462C79.6701 30.4462 80.064 30.6175 80.3884 30.9599C80.7153 31.2997 80.8788 31.74 80.8788 32.2806C80.8788 32.6359 80.8016 32.9668 80.6471 33.2731C80.4952 33.5769 80.2854 33.8099 80.0176 33.9721C79.7499 34.1343 79.4461 34.2154 79.1062 34.2154C78.5269 34.2154 78.0545 34.003 77.6889 33.5782C77.3233 33.1509 77.1405 32.448 77.1405 31.4696C77.1405 30.3754 77.3426 29.5799 77.7468 29.083C78.0996 28.6505 78.5746 28.4342 79.1719 28.4342C79.6173 28.4342 79.9816 28.5591 80.2648 28.8088C80.5506 29.0585 80.7218 29.4035 80.7784 29.8438ZM77.9399 32.2845C77.9399 32.5239 77.9901 32.7531 78.0906 32.9719C78.1935 33.1908 78.3364 33.3581 78.5192 33.474C78.702 33.5872 78.8938 33.6439 79.0946 33.6439C79.3881 33.6439 79.6405 33.5255 79.8516 33.2886C80.0627 33.0517 80.1682 32.7299 80.1682 32.3231C80.1682 31.9318 80.064 31.6241 79.8554 31.4001C79.6469 31.1736 79.3843 31.0603 79.0676 31.0603C78.7535 31.0603 78.487 31.1736 78.2682 31.4001C78.0494 31.6241 77.9399 31.9189 77.9399 32.2845ZM86.7064 31.8983V31.2341L89.1047 31.2302V33.3311C88.7365 33.6246 88.3567 33.846 87.9654 33.9953C87.5741 34.1421 87.1724 34.2154 86.7605 34.2154C86.2044 34.2154 85.6985 34.097 85.2428 33.8602C84.7896 33.6207 84.4472 33.2757 84.2155 32.8252C83.9838 32.3746 83.8679 31.8713 83.8679 31.3152C83.8679 30.7642 83.9825 30.2506 84.2116 29.7743C84.4434 29.2954 84.7755 28.9401 85.208 28.7084C85.6405 28.4767 86.1387 28.3608 86.7026 28.3608C87.1119 28.3608 87.4814 28.4278 87.8109 28.5616C88.143 28.6929 88.4031 28.877 88.591 29.1139C88.779 29.3508 88.9219 29.6597 89.0197 30.0407L88.3439 30.2261C88.2589 29.9378 88.1533 29.7112 88.0272 29.5464C87.901 29.3816 87.7208 29.2503 87.4865 29.1525C87.2522 29.0521 86.9922 29.0019 86.7064 29.0019C86.364 29.0019 86.0679 29.0547 85.8182 29.1602C85.5685 29.2632 85.3663 29.3997 85.2119 29.5696C85.06 29.7395 84.9415 29.9262 84.8566 30.1296C84.7124 30.4797 84.6403 30.8595 84.6403 31.2688C84.6403 31.7734 84.7266 32.1957 84.8991 32.5355C85.0741 32.8754 85.3277 33.1277 85.6598 33.2925C85.992 33.4572 86.3447 33.5396 86.718 33.5396C87.0424 33.5396 87.3591 33.4778 87.668 33.3542C87.977 33.2281 88.2113 33.0942 88.3709 32.9526V31.8983H86.7064ZM89.8654 32.0682C89.8654 31.3087 90.0766 30.7462 90.4988 30.3806C90.8515 30.0768 91.2815 29.9249 91.7887 29.9249C92.3525 29.9249 92.8134 30.1103 93.1712 30.481C93.5291 30.8492 93.708 31.3589 93.708 32.0103C93.708 32.5381 93.6282 32.9539 93.4686 33.2577C93.3115 33.5589 93.0811 33.7932 92.7773 33.9606C92.4761 34.1279 92.1465 34.2116 91.7887 34.2116C91.2145 34.2116 90.7498 34.0275 90.3945 33.6593C90.0418 33.2912 89.8654 32.7608 89.8654 32.0682ZM90.5799 32.0682C90.5799 32.5935 90.6945 32.9874 90.9236 33.25C91.1527 33.51 91.4411 33.64 91.7887 33.64C92.1337 33.64 92.4207 33.5087 92.6499 33.2461C92.879 32.9835 92.9936 32.5832 92.9936 32.0451C92.9936 31.5379 92.8777 31.1543 92.646 30.8942C92.4169 30.6316 92.1311 30.5003 91.7887 30.5003C91.4411 30.5003 91.1527 30.6303 90.9236 30.8904C90.6945 31.1504 90.5799 31.543 90.5799 32.0682ZM94.268 32.0682C94.268 31.3087 94.4791 30.7462 94.9013 30.3806C95.2541 30.0768 95.684 29.9249 96.1912 29.9249C96.755 29.9249 97.2159 30.1103 97.5738 30.481C97.9316 30.8492 98.1106 31.3589 98.1106 32.0103C98.1106 32.5381 98.0308 32.9539 97.8711 33.2577C97.7141 33.5589 97.4837 33.7932 97.1799 33.9606C96.8786 34.1279 96.5491 34.2116 96.1912 34.2116C95.6171 34.2116 95.1524 34.0275 94.7971 33.6593C94.4444 33.2912 94.268 32.7608 94.268 32.0682ZM94.9824 32.0682C94.9824 32.5935 95.097 32.9874 95.3262 33.25C95.5553 33.51 95.8436 33.64 96.1912 33.64C96.5362 33.64 96.8233 33.5087 97.0524 33.2461C97.2816 32.9835 97.3961 32.5832 97.3961 32.0451C97.3961 31.5379 97.2803 31.1543 97.0486 30.8942C96.8194 30.6316 96.5336 30.5003 96.1912 30.5003C95.8436 30.5003 95.5553 30.6303 95.3262 30.8904C95.097 31.1504 94.9824 31.543 94.9824 32.0682ZM98.8019 34.4587L99.4777 34.5592C99.506 34.7677 99.5845 34.9196 99.7133 35.0149C99.8858 35.1436 100.121 35.2079 100.42 35.2079C100.742 35.2079 100.99 35.1436 101.165 35.0149C101.34 34.8861 101.459 34.7059 101.521 34.4742C101.557 34.3326 101.573 34.0352 101.571 33.5821C101.267 33.94 100.889 34.1189 100.435 34.1189C99.8716 34.1189 99.4352 33.9155 99.1263 33.5087C98.8173 33.1019 98.6628 32.614 98.6628 32.0451C98.6628 31.6537 98.7336 31.2933 98.8752 30.9637C99.0168 30.6316 99.2215 30.3754 99.4893 30.1952C99.7596 30.015 100.076 29.9249 100.439 29.9249C100.923 29.9249 101.322 30.1206 101.636 30.5119V30.0176H102.278V33.5628C102.278 34.2013 102.212 34.6531 102.081 34.9183C101.952 35.1861 101.746 35.3972 101.463 35.5517C101.182 35.7061 100.836 35.7834 100.424 35.7834C99.9347 35.7834 99.5395 35.6727 99.2382 35.4512C98.937 35.2324 98.7916 34.9016 98.8019 34.4587ZM99.3773 31.9949C99.3773 32.5329 99.4841 32.9256 99.6978 33.1727C99.9115 33.4199 100.179 33.5435 100.501 33.5435C100.82 33.5435 101.088 33.4212 101.304 33.1766C101.521 32.9294 101.629 32.5432 101.629 32.018C101.629 31.516 101.517 31.1375 101.293 30.8826C101.071 30.6278 100.804 30.5003 100.489 30.5003C100.181 30.5003 99.9179 30.6265 99.7017 30.8788C99.4854 31.1285 99.3773 31.5005 99.3773 31.9949ZM103.316 34.1189V28.4574H104.012V34.1189H103.316ZM107.9 32.7981L108.619 32.887C108.505 33.3066 108.296 33.6323 107.989 33.864C107.683 34.0957 107.292 34.2116 106.815 34.2116C106.215 34.2116 105.739 34.0275 105.386 33.6593C105.036 33.2886 104.861 32.7698 104.861 32.103C104.861 31.413 105.039 30.8775 105.394 30.4964C105.749 30.1154 106.21 29.9249 106.777 29.9249C107.325 29.9249 107.773 30.1115 108.121 30.4849C108.468 30.8582 108.642 31.3834 108.642 32.0605C108.642 32.1017 108.641 32.1635 108.638 32.2459H105.579C105.605 32.6964 105.733 33.0414 105.962 33.2809C106.191 33.5203 106.477 33.64 106.819 33.64C107.074 33.64 107.292 33.5731 107.472 33.4392C107.652 33.3053 107.795 33.0916 107.9 32.7981ZM105.618 31.6743H107.908C107.877 31.3293 107.79 31.0706 107.646 30.8981C107.424 30.6303 107.137 30.4964 106.784 30.4964C106.465 30.4964 106.196 30.6033 105.977 30.817C105.761 31.0307 105.641 31.3165 105.618 31.6743ZM111.689 34.1189V30.0176H112.315V30.6393C112.474 30.3484 112.621 30.1566 112.755 30.0639C112.891 29.9712 113.041 29.9249 113.203 29.9249C113.437 29.9249 113.675 29.9996 113.917 30.1489L113.678 30.7938C113.508 30.6934 113.338 30.6432 113.168 30.6432C113.016 30.6432 112.88 30.6895 112.759 30.7822C112.638 30.8723 112.551 30.9985 112.5 31.1607C112.423 31.4079 112.384 31.6782 112.384 31.9717V34.1189H111.689ZM117.138 32.7981L117.856 32.887C117.743 33.3066 117.533 33.6323 117.227 33.864C116.921 34.0957 116.529 34.2116 116.053 34.2116C115.453 34.2116 114.977 34.0275 114.624 33.6593C114.274 33.2886 114.099 32.7698 114.099 32.103C114.099 31.413 114.276 30.8775 114.632 30.4964C114.987 30.1154 115.448 29.9249 116.014 29.9249C116.563 29.9249 117.011 30.1115 117.358 30.4849C117.706 30.8582 117.88 31.3834 117.88 32.0605C117.88 32.1017 117.878 32.1635 117.876 32.2459H114.817C114.843 32.6964 114.97 33.0414 115.199 33.2809C115.429 33.5203 115.714 33.64 116.057 33.64C116.312 33.64 116.529 33.5731 116.709 33.4392C116.89 33.3053 117.033 33.0916 117.138 32.7981ZM114.856 31.6743H117.146C117.115 31.3293 117.027 31.0706 116.883 30.8981C116.662 30.6303 116.375 30.4964 116.022 30.4964C115.703 30.4964 115.434 30.6033 115.215 30.817C114.999 31.0307 114.879 31.3165 114.856 31.6743ZM119.872 34.1189L118.312 30.0176H119.046L119.926 32.4737C120.022 32.7389 120.109 33.0144 120.189 33.3002C120.251 33.0839 120.337 32.8239 120.448 32.5201L121.359 30.0176H122.074L120.521 34.1189H119.872ZM122.691 29.2568V28.4574H123.387V29.2568H122.691ZM122.691 34.1189V30.0176H123.387V34.1189H122.691ZM127.256 32.7981L127.975 32.887C127.861 33.3066 127.651 33.6323 127.345 33.864C127.039 34.0957 126.647 34.2116 126.171 34.2116C125.571 34.2116 125.095 34.0275 124.742 33.6593C124.392 33.2886 124.217 32.7698 124.217 32.103C124.217 31.413 124.395 30.8775 124.75 30.4964C125.105 30.1154 125.566 29.9249 126.132 29.9249C126.681 29.9249 127.129 30.1115 127.476 30.4849C127.824 30.8582 127.998 31.3834 127.998 32.0605C127.998 32.1017 127.996 32.1635 127.994 32.2459H124.935C124.961 32.6964 125.088 33.0414 125.318 33.2809C125.547 33.5203 125.832 33.64 126.175 33.64C126.43 33.64 126.647 33.5731 126.828 33.4392C127.008 33.3053 127.151 33.0916 127.256 32.7981ZM124.974 31.6743H127.264C127.233 31.3293 127.146 31.0706 127.001 30.8981C126.78 30.6303 126.493 30.4964 126.14 30.4964C125.821 30.4964 125.552 30.6033 125.333 30.817C125.117 31.0307 124.997 31.3165 124.974 31.6743ZM129.608 34.1189L128.353 30.0176H129.071L129.724 32.3849L129.967 33.2654C129.978 33.2217 130.048 32.9397 130.18 32.4197L130.832 30.0176H131.547L132.161 32.3965L132.366 33.1805L132.601 32.3888L133.304 30.0176H133.98L132.698 34.1189H131.975L131.323 31.6627L131.164 30.9637L130.334 34.1189H129.608ZM134.289 32.8947L134.976 32.7865C135.015 33.062 135.122 33.2731 135.297 33.4199C135.474 33.5666 135.721 33.64 136.038 33.64C136.357 33.64 136.594 33.5757 136.749 33.4469C136.903 33.3156 136.98 33.1624 136.98 32.9874C136.98 32.8303 136.912 32.7067 136.776 32.6166C136.681 32.5548 136.444 32.4763 136.065 32.381C135.555 32.2523 135.201 32.1416 135.003 32.0489C134.808 31.9537 134.658 31.8236 134.555 31.6589C134.455 31.4915 134.405 31.3074 134.405 31.1066C134.405 30.9238 134.446 30.7552 134.528 30.6007C134.613 30.4437 134.728 30.3137 134.872 30.2107C134.98 30.1309 135.127 30.0639 135.312 30.0098C135.5 29.9532 135.701 29.9249 135.915 29.9249C136.236 29.9249 136.518 29.9712 136.76 30.0639C137.005 30.1566 137.185 30.2828 137.301 30.4424C137.417 30.5994 137.497 30.8105 137.54 31.0757L136.861 31.1684C136.83 30.9573 136.74 30.7925 136.59 30.6741C136.444 30.5557 136.235 30.4964 135.965 30.4964C135.646 30.4964 135.418 30.5492 135.281 30.6548C135.145 30.7603 135.077 30.8839 135.077 31.0255C135.077 31.1156 135.105 31.1967 135.162 31.2688C135.218 31.3435 135.307 31.4053 135.428 31.4542C135.498 31.4799 135.702 31.5392 136.042 31.6318C136.534 31.7631 136.876 31.8713 137.069 31.9562C137.265 32.0386 137.418 32.1596 137.529 32.3193C137.64 32.4789 137.695 32.6771 137.695 32.914C137.695 33.1457 137.627 33.3645 137.49 33.5705C137.356 33.7739 137.162 33.9322 136.907 34.0455C136.652 34.1562 136.364 34.2116 136.042 34.2116C135.509 34.2116 135.102 34.1009 134.822 33.8795C134.544 33.658 134.366 33.3298 134.289 32.8947Z" fill="white"/>
</svg>
