<svg width="64" height="16" viewBox="0 0 64 16" fill="none" xmlns="http://www.w3.org/2000/svg">
<g clip-path="url(#clip0_58_8588)">
<mask id="mask0_58_8588" style="mask-type:luminance" maskUnits="userSpaceOnUse" x="0" y="0" width="64" height="16">
<path d="M64 0H0V16H64V0Z" fill="white"/>
</mask>
<g mask="url(#mask0_58_8588)">
<mask id="mask1_58_8588" style="mask-type:luminance" maskUnits="userSpaceOnUse" x="0" y="0" width="64" height="16">
<path d="M64 0H0V16H64V0Z" fill="white"/>
</mask>
<g mask="url(#mask1_58_8588)">
<path d="M63.613 1.13334C63.3939 0.813708 63.1328 0.597156 62.049 0.513128C61.7625 0.49144 60.8239 0.460887 59.2473 0.460887C55.0905 0.460887 52.267 1.723 50.8215 4.21527C51.2189 1.70893 48.7754 0.454902 43.4911 0.453272C37.2847 0.453272 33.4098 2.95495 31.8663 7.95822C31.302 9.42165 31.2388 11.0309 31.6867 12.5341L30.2209 12.6334C29.0747 12.72 27.5694 12.799 26.6473 12.799C24.3762 12.7989 22.9681 12.4169 22.423 11.6527C21.934 10.9676 21.9823 9.69791 22.5503 7.84356C23.4953 4.77181 25.8437 3.3862 29.5942 3.3862C31.5376 3.3862 33.4301 3.58992 33.4301 3.58992C33.662 3.5523 33.8195 3.3338 33.7819 3.10193C33.7807 3.0947 33.7794 3.08755 33.7778 3.08047L33.7409 2.78758L33.6072 1.75479C33.5223 1.07557 33.018 0.674026 32.0943 0.550047C31.2524 0.493999 30.6259 0.45452 29.7013 0.45452H29.6516C24.7493 0.465562 21.3337 2.07659 19.4047 5.28756C20.112 2.06136 17.8425 0.448139 12.5964 0.448139C10.5004 0.413321 8.40415 0.498355 6.31787 0.702859C5.52875 0.691512 4.81659 1.17422 4.53489 1.9114L4.11841 3.23841C4.04325 3.48039 4.15914 3.60266 4.47115 3.60266H4.48134C4.71314 3.57335 5.59949 3.48677 7.11757 3.36325C9.12597 3.20281 10.6122 3.12127 11.5927 3.12127C14.4795 3.12127 15.6974 3.84292 15.2465 5.28629C15.1609 5.59441 14.9066 5.82644 14.592 5.88357C11.8581 6.3369 9.68928 6.6625 8.08547 6.86041C3.56957 7.43694 0.960937 8.8454 0.259576 11.086C-0.703114 14.1671 1.71056 15.7077 7.50085 15.7077C9.93428 15.739 12.3663 15.5725 14.7728 15.2097C15.9024 15.02 16.4742 14.7309 16.7009 14.0024L17.7795 10.5639C17.6662 13.9961 20.0719 15.7242 25.0004 15.7242C26.7078 15.7586 28.4154 15.6799 30.1124 15.4886C31.1236 15.3129 31.605 15.0938 31.8304 14.3298L32.0494 13.2485C33.1004 14.8854 35.4034 15.7039 38.9583 15.7039C41.1508 15.8044 43.3479 15.6995 45.5209 15.3906C45.958 15.3005 46.3192 14.9944 46.4798 14.5781C46.5014 14.5078 46.5168 14.4359 46.5257 14.3629L46.9753 12.9046C47.0543 12.6499 46.937 12.5302 46.6289 12.5417L44.2283 12.6564C42.6271 12.7465 41.373 12.7888 40.4663 12.7837C39.2846 12.8445 38.1005 12.7268 36.9539 12.4348C36.0372 12.1228 35.4687 11.2066 35.5963 10.2468L43.1993 9.27254C46.6073 8.83702 48.8878 7.78634 50.0407 6.12057L47.458 15.0964C47.4028 15.2321 47.4241 15.387 47.514 15.5026C47.6492 15.6283 47.8323 15.6892 48.0158 15.6694H51.1639C51.5271 15.7212 51.8734 15.499 51.9777 15.1473L54.7578 5.45443C55.1246 4.18089 56.2962 3.55687 58.3416 3.55687C60.1882 3.55687 61.5802 3.57468 62.4678 3.60654H62.5378C62.8374 3.60927 63.1013 3.41011 63.181 3.12135L63.6687 1.79177C63.7671 1.57094 63.7465 1.31512 63.6139 1.11295L63.613 1.13334ZM12.8932 12.7951C11.4882 12.9731 10.0722 13.0497 8.65614 13.0244C5.457 13.0244 4.05994 12.3787 4.46491 11.0873C4.75532 10.1615 5.592 9.60493 6.984 9.41518L14.2597 8.43709L12.8932 12.7951ZM46.5146 4.94127C46.2081 5.93459 44.7859 6.61386 42.2483 6.9789L36.1888 7.83985L36.3428 7.34191C36.6421 6.01295 37.3984 4.83113 38.4798 4.00269C39.8722 3.30654 41.4266 2.99857 42.9792 3.1112C45.7114 3.1112 46.8898 3.71866 46.5146 4.93367" fill="#142C16"/>
</g>
</g>
</g>
<defs>
<clipPath id="clip0_58_8588">
<rect width="64" height="16" fill="white"/>
</clipPath>
</defs>
</svg>
