<svg width="129" height="51" viewBox="0 0 129 51" fill="none" xmlns="http://www.w3.org/2000/svg">
<path fill-rule="evenodd" clip-rule="evenodd" d="M129 0H0V51H129V0ZM4 5H125V46H4V5ZM2 48V3H127V48H2ZM9.7971 8.73755L12.9506 29.3316L16.2971 8.73755H19.3218L13.5298 42.9108C13.2722 43.104 13.0306 43.2812 12.7891 43.4583L12.7885 43.4588C12.5475 43.6355 12.3066 43.8122 12.0496 44.0049L6.70801 8.73755H9.7971ZM98.4159 27.8514V8.73755H101.441V29.396C101.441 31.1336 100.089 32.4207 98.3516 32.4207L94.8763 31.4554C93.1387 31.0693 91.9803 29.7178 91.9803 28.0445V8.73755H95.005V27.4653C95.005 27.9801 95.4555 28.3663 96.0347 28.495L97.3862 28.8811C97.9654 28.8811 98.4159 28.4306 98.4159 27.8514ZM52.6585 8.80191H52.7872C54.4605 8.80191 55.7476 10.1534 55.7476 11.8267V15.495C55.7476 16.7178 54.9753 17.8118 53.9456 18.2623C55.0397 18.7772 55.7476 19.8712 55.7476 21.094V25.8564V25.9207C55.7476 27.5296 54.5248 28.7524 52.9159 28.8811C48.7327 29.396 46.5446 29.8465 46.5446 29.8465V8.80191H52.6585ZM52.0149 25.9851C52.6585 25.9207 53.0446 25.5346 53.0446 24.9554V20.7079C52.9803 20.193 52.5298 19.8069 52.0149 19.8069H49.5694V26.2425L52.0149 25.9851ZM52.0149 16.8465C52.5941 16.8465 53.0446 16.396 53.0446 15.8168V12.7277C52.9803 12.2128 52.5298 11.8267 52.0149 11.8267H49.5694V16.8465H52.0149ZM27.4951 8.73755H30.5199V30.9405C30.5199 30.9405 32.5793 30.1683 34.9605 29.4603V32.6782C32.3862 33.5148 29.8763 34.4158 27.4951 35.3811V8.73755ZM42.6189 21.0296L39.4654 21.2871V28.2376C39.4654 28.2376 42.0397 27.594 43.9704 27.2079V30.3613C41.3961 30.8762 38.8862 31.5197 36.505 32.2277V8.73755H43.9704V11.7623H39.4654V18.0693L42.6189 18.0049V21.0296ZM107.04 35.4455C106.074 34.995 105.045 34.6089 104.015 34.2227V8.73755H107.04V35.4455ZM119.01 32.4207V8.73755H121.97V43.7475L121.953 43.7351C120.736 42.8383 119.519 41.9417 118.173 41.1089L112.703 20.2574V38.0197C111.738 37.5049 110.708 36.99 109.678 36.5395V8.73755H112.703V8.80191L119.01 32.4207ZM83.0347 8.73755H86.3813C88.1189 8.73755 89.4704 10.1534 89.4704 11.8267V26.7574C89.4704 28.4306 88.1189 29.5891 86.3813 29.5891L86.0595 29.5247C86.0595 29.9752 86.1238 30.6831 86.8961 30.6831V33.193L86.3813 33.1287L86.0595 33.0643C84.5793 32.8712 83.4209 31.7772 83.4209 30.297V29.0742H83.3565L82.9704 29.0098C81.2327 28.8168 79.9456 27.594 79.9456 25.8564V11.8267C79.9456 10.1534 81.3615 8.73755 83.0347 8.73755ZM85.4159 26.2425C85.9951 26.2425 86.4456 25.792 86.4456 25.2128V12.792C86.4456 12.2128 85.9951 11.7623 85.4159 11.7623H85.3515H84.0001C83.4209 11.7623 82.9704 12.2128 82.9704 12.7277V25.0198C83.0347 25.5346 83.4852 25.9851 84.0001 26.0495L85.4159 26.2425ZM24.4704 36.7326C23.4407 37.1831 22.411 37.698 21.4456 38.2128V8.73755H24.4704V36.7326ZM77.7575 28.495C75.3763 28.2376 72.8664 28.1089 70.3565 28.0445H70.2921V8.73755H77.7575V11.7623H73.2525V16.8465H76.2773V19.7425H73.2525V25.0841L77.7575 25.4059V28.495ZM64.6288 8.80191H64.7575C66.4308 8.80191 67.7179 10.1534 67.6535 11.891V15.5594C67.6535 16.7821 66.8812 17.8762 65.8515 18.3267C66.8812 18.8415 67.6535 19.9356 67.6535 21.1584V25.9207V28.0445H67.1387H64.9506V20.7079C64.8862 20.193 64.4357 19.8069 63.9209 19.8069H61.4753V28.1732C60.9923 28.2054 60.4931 28.2376 59.994 28.2698C59.4956 28.302 58.9972 28.3341 58.5149 28.3663V8.80191H64.6288ZM63.9852 16.8465C64.5644 16.8465 65.0149 16.396 65.0149 15.8168V12.7277C64.9506 12.2128 64.5001 11.8267 63.9852 11.8267H61.5397V16.8465H63.9852Z" fill="#142C16"/>
</svg>
