<svg width="130" height="23" viewBox="0 0 130 23" fill="none" xmlns="http://www.w3.org/2000/svg">
<g clip-path="url(#clip0_58_8501)">
<mask id="mask0_58_8501" style="mask-type:luminance" maskUnits="userSpaceOnUse" x="0" y="0" width="130" height="23">
<path d="M130 0H0V23H130V0Z" fill="white"/>
</mask>
<g mask="url(#mask0_58_8501)">
<mask id="mask1_58_8501" style="mask-type:luminance" maskUnits="userSpaceOnUse" x="0" y="0" width="130" height="23">
<path d="M130 0.5H0V22.5H130V0.5Z" fill="white"/>
</mask>
<g mask="url(#mask1_58_8501)">
<mask id="mask2_58_8501" style="mask-type:luminance" maskUnits="userSpaceOnUse" x="0" y="0" width="130" height="23">
<path d="M130 0.5H0V22.2964H130V0.5Z" fill="white"/>
</mask>
<g mask="url(#mask2_58_8501)">
<path d="M60.6714 13.2083H55.2199L57.945 5.99897L60.6714 13.2083ZM86.1612 21.3839H94.7601V1.38437H87.3683V11.9255L79.5843 1.38437H70.2263V17.6923L64.0167 1.38437H52.0165L47.5155 13.2083H40.1853C39.8202 15.5718 38.471 16.8251 36.1108 16.8251C33.3843 16.8251 31.8661 14.6888 31.8661 11.3843C31.8661 8.07994 33.4134 5.97061 36.1108 5.97061C38.3311 5.97061 39.7631 7.16814 40.0731 9.1059H48.1949V8.56328C48.1951 4.14723 44.4277 0.5 36.1949 0.5C27.3139 0.5 23.9415 5.00207 23.9415 11.384C23.9415 11.5305 23.9461 11.6746 23.9493 11.8199C22.8354 10.4464 20.6978 9.6462 17.1699 9.1331L12.0275 8.39194C10.0883 8.10807 8.88007 7.88117 8.88007 6.91171C8.88007 6.08522 9.63816 5.20108 11.7475 5.20108C14.0798 5.20108 15.3731 6.11382 15.3731 7.59521H23.6338V7.16837C23.6338 3.17823 19.6994 0.556959 11.9704 0.556959C4.01972 0.556959 0.533135 3.49255 0.533135 7.62358C0.533135 10.843 2.61224 12.7238 7.50195 13.4083L13.3197 14.2324C15.3988 14.5184 16.0741 14.9452 16.0741 15.8284C16.0741 16.9681 15.006 17.597 12.6166 17.597C9.91928 17.597 8.68448 16.4278 8.68448 14.8043H0V15.2607C0 19.7037 4.13047 22.2671 12.2525 22.2671C19.7574 22.2671 24.1085 20.5869 24.8216 16.3415C26.3231 19.9855 29.8544 22.2966 36.1949 22.2966C41.0039 22.2966 43.7021 20.9685 45.3222 18.9661L44.402 21.3839H52.1286L53.2247 18.5074H62.6666L63.7627 21.3839H70.2263H71.6304H77.6182V9.8731L86.1612 21.3839ZM119.039 13.2083H113.588L116.313 5.99897L119.039 13.2083ZM130 21.3839L122.384 1.38437H110.384L104.174 17.6923V1.38205H96.6143V21.3839H102.768H104.174H110.496L111.59 18.5074H121.034L122.131 21.3839H130Z" fill="#142C16"/>
</g>
</g>
</g>
</g>
<defs>
<clipPath id="clip0_58_8501">
<rect width="130" height="23" fill="white"/>
</clipPath>
</defs>
</svg>
