<svg width="348" height="83" viewBox="0 0 348 83" fill="none" xmlns="http://www.w3.org/2000/svg">
<g clip-path="url(#clip0_58_8617)">
<mask id="mask0_58_8617" style="mask-type:luminance" maskUnits="userSpaceOnUse" x="0" y="0" width="348" height="83">
<path d="M348 0H0V83H348V0Z" fill="white"/>
</mask>
<g mask="url(#mask0_58_8617)">
<path fill-rule="evenodd" clip-rule="evenodd" d="M71.2506 63C64.4548 74.0052 52.2835 81.3391 38.3993 81.3391C17.0911 81.3391 -0.182617 64.0654 -0.182617 42.7572C-0.182617 21.449 17.0911 4.17529 38.3993 4.17529C49.5651 4.17529 59.6231 8.91853 66.6683 16.5H48V39H55.5V63H71.2506Z" fill="#142C16"/>
<path d="M55.7852 24.6119H78.5114V31.3423H70.6446V55.2048H63.6519V31.3423H55.7852V24.6119ZM85.9428 55.2048V24.6119H92.9355V55.2048H85.9428ZM126.163 24.6119H133.155V55.2048H126.163V37.4172L118.252 50.3974H117.465L109.555 37.4172V55.2048H102.562V24.6119H109.555L117.859 38.2039L126.163 24.6119ZM161.751 39.3402C164.257 40.9718 165.51 43.2736 165.51 46.2455C165.51 48.8969 164.563 51.0529 162.669 52.7137C160.775 54.3745 158.43 55.2048 155.633 55.2048H142.784V24.6119H154.759C157.468 24.6119 159.756 25.4277 161.62 27.0593C163.485 28.6618 164.417 30.7596 164.417 33.3527C164.417 35.8293 163.529 37.8251 161.751 39.3402ZM154.759 31.1675H149.776V36.5868H154.759C155.545 36.5868 156.186 36.3392 156.682 35.8439C157.177 35.3194 157.425 34.6638 157.425 33.8772C157.425 33.0905 157.177 32.4495 156.682 31.9542C156.186 31.4297 155.545 31.1675 154.759 31.1675ZM149.776 48.6492H155.633C156.507 48.6492 157.206 48.387 157.731 47.8625C158.255 47.3089 158.517 46.5951 158.517 45.721C158.517 44.8469 158.255 44.1477 157.731 43.6232C157.206 43.0696 156.507 42.7928 155.633 42.7928H149.776V48.6492ZM180.352 43.0551V48.4744H192.59V55.2048H173.36V24.6119H192.371V31.3423H180.352V36.412H191.278V43.0551H180.352ZM224.506 55.2048H216.988L211.22 45.1529H207.898V55.2048H200.905V24.6119H213.143C216.056 24.6119 218.533 25.6316 220.572 27.6712C222.612 29.7107 223.632 32.1873 223.632 35.1009C223.632 36.9365 223.107 38.6555 222.058 40.258C221.038 41.8605 219.684 43.0988 217.994 43.9728L224.506 55.2048ZM213.143 31.1675H207.898V39.0343H213.143C214.104 39.0343 214.92 38.6555 215.59 37.898C216.289 37.1404 216.639 36.2081 216.639 35.1009C216.639 33.9937 216.289 33.0613 215.59 32.3038C214.92 31.5463 214.104 31.1675 213.143 31.1675ZM246.684 38.1602H262.024V40.7824C262.024 45.3277 260.597 48.9843 257.741 51.7522C254.915 54.4619 251.317 55.8167 246.946 55.8167C242.197 55.8167 238.249 54.287 235.103 51.2278C231.985 48.1685 230.426 44.4099 230.426 39.9521C230.426 35.4942 231.97 31.7211 235.059 28.6326C238.147 25.5442 241.95 24 246.466 24C249.292 24 251.885 24.641 254.245 25.923C256.634 27.1758 258.499 28.8657 259.839 30.9927L253.895 34.4016C253.196 33.3236 252.176 32.4641 250.836 31.8231C249.525 31.1529 248.054 30.8179 246.422 30.8179C243.829 30.8179 241.673 31.6774 239.954 33.3964C238.264 35.0863 237.419 37.2861 237.419 39.9958C237.419 42.618 238.293 44.7887 240.041 46.5077C241.789 48.1685 244.12 48.9988 247.034 48.9988C251.055 48.9988 253.662 47.4255 254.857 44.2788H246.684V38.1602ZM296.324 55.2048H288.676L287.146 50.3974H275.783L274.253 55.2048H266.605L277.007 24.6119H285.922L296.324 55.2048ZM281.465 32.6097L277.881 43.8417H285.048L281.465 32.6097ZM298.941 24.6119H321.667V31.3423H313.801V55.2048H306.808V31.3423H298.941V24.6119ZM336.091 43.0551V48.4744H348.329V55.2048H329.099V24.6119H348.11V31.3423H336.091V36.412H347.017V43.0551H336.091Z" fill="#142C16"/>
</g>
</g>
<defs>
<clipPath id="clip0_58_8617">
<rect width="348" height="83" fill="white"/>
</clipPath>
</defs>
</svg>
