<svg width="177" height="48" viewBox="0 0 177 48" fill="none" xmlns="http://www.w3.org/2000/svg">
<path fill-rule="evenodd" clip-rule="evenodd" d="M10 0C4.47715 0 0 4.47715 0 10V38C0 43.5228 4.47715 48 10 48H38C43.5228 48 48 43.5229 48 38V10C48 4.47715 43.5229 0 38 0H10ZM37.0286 16.7072C37.0286 19.01 35.7118 21.0196 33.7947 22.0224C37.6148 22.1575 40.6988 25.3232 40.6988 29.175V29.5863C40.6988 33.5232 37.4777 36.7443 33.5408 36.7443H25.8749C25.3178 36.7443 24.866 36.2926 24.866 35.7355V11.723C24.866 11.1658 25.3178 10.7141 25.8749 10.7141H31.0354C34.3315 10.7141 37.0286 13.4112 37.0286 16.7072ZM21.8082 19.8473H17.6161C17.0701 19.8473 16.6274 20.2899 16.6274 20.8359V35.7564C16.6274 36.3024 17.0701 36.745 17.6161 36.745H21.8082C22.3542 36.745 22.7968 36.3024 22.7968 35.7564V20.8359C22.7968 20.2899 22.3542 19.8473 21.8082 19.8473ZM13.5617 28.9664H9.36948C8.82348 28.9664 8.38086 29.409 8.38086 29.955V35.7564C8.38086 36.3024 8.82348 36.745 9.36948 36.745H13.5617C14.1077 36.745 14.5503 36.3024 14.5503 35.7564V29.955C14.5503 29.409 14.1077 28.9664 13.5617 28.9664Z" fill="#142C16"/>
<path d="M65.3125 34V13.6364H74.142C75.6932 13.6364 76.9957 13.8452 78.0497 14.2628C79.1103 14.6804 79.9091 15.2704 80.446 16.0327C80.9896 16.795 81.2614 17.6932 81.2614 18.7273C81.2614 19.4763 81.0956 20.1591 80.7642 20.7756C80.4394 21.392 79.982 21.9091 79.392 22.3267C78.8021 22.7377 78.1127 23.0227 77.3239 23.1818V23.3807C78.1989 23.4138 78.9943 23.6359 79.7102 24.0469C80.4261 24.4512 80.9962 25.0114 81.4205 25.7273C81.8447 26.4366 82.0568 27.2718 82.0568 28.233C82.0568 29.3466 81.7652 30.3376 81.1818 31.206C80.6051 32.0743 79.7831 32.7571 78.7159 33.2543C77.6487 33.7514 76.3759 34 74.8977 34H65.3125ZM70.8409 29.5852H73.4261C74.3542 29.5852 75.0502 29.4129 75.5142 29.0682C75.9782 28.7169 76.2102 28.1998 76.2102 27.517C76.2102 27.0398 76.1009 26.6354 75.8821 26.304C75.6634 25.9725 75.3518 25.7206 74.9474 25.5483C74.5497 25.3759 74.0691 25.2898 73.5057 25.2898H70.8409V29.5852ZM70.8409 21.8693H73.108C73.5919 21.8693 74.0194 21.7931 74.3906 21.6406C74.7618 21.4882 75.0502 21.2694 75.2557 20.9844C75.4678 20.6927 75.5739 20.3381 75.5739 19.9205C75.5739 19.2907 75.3485 18.8101 74.8977 18.4787C74.447 18.1406 73.8769 17.9716 73.1875 17.9716H70.8409V21.8693ZM88.3509 34.2386C87.3764 34.2386 86.5147 34.0795 85.7656 33.7614C85.0232 33.4366 84.4399 32.946 84.0156 32.2898C83.5914 31.6335 83.3793 30.7983 83.3793 29.7841C83.3793 28.9489 83.5218 28.2363 83.8068 27.6463C84.0919 27.0497 84.4896 26.5625 85 26.1847C85.5104 25.8068 86.1037 25.5185 86.7798 25.3196C87.4626 25.1207 88.1984 24.9915 88.9872 24.9318C89.8423 24.8655 90.5284 24.786 91.0455 24.6932C91.5691 24.5937 91.947 24.4579 92.179 24.2855C92.411 24.1065 92.527 23.8712 92.527 23.5795V23.5398C92.527 23.142 92.3745 22.8371 92.0696 22.625C91.7647 22.4129 91.3736 22.3068 90.8963 22.3068C90.3726 22.3068 89.9451 22.4228 89.6136 22.6548C89.2888 22.8802 89.0933 23.2282 89.027 23.6989H83.9759C84.0421 22.7708 84.3371 21.9157 84.8608 21.1335C85.3911 20.3447 86.1634 19.715 87.1776 19.2443C88.1918 18.767 89.4579 18.5284 90.9759 18.5284C92.0696 18.5284 93.0507 18.6577 93.919 18.9162C94.7874 19.1681 95.5265 19.5227 96.1364 19.9801C96.7462 20.4309 97.2102 20.9612 97.5284 21.571C97.8532 22.1742 98.0156 22.8305 98.0156 23.5398V34H92.8849V31.8523H92.7656C92.4607 32.4223 92.0895 32.883 91.652 33.2344C91.2211 33.5857 90.7273 33.8409 90.1705 34C89.6203 34.1591 89.0137 34.2386 88.3509 34.2386ZM90.1406 30.7784C90.5582 30.7784 90.9493 30.6922 91.3139 30.5199C91.6851 30.3475 91.9867 30.099 92.2188 29.7741C92.4508 29.4493 92.5668 29.0549 92.5668 28.5909V27.3182C92.4209 27.3778 92.2652 27.4342 92.0994 27.4872C91.9403 27.5402 91.768 27.59 91.5824 27.6364C91.4034 27.6828 91.2112 27.7259 91.0057 27.7656C90.8068 27.8054 90.598 27.8419 90.3793 27.875C89.955 27.9413 89.607 28.0507 89.3352 28.2031C89.0701 28.349 88.8712 28.5312 88.7386 28.75C88.6127 28.9621 88.5497 29.2008 88.5497 29.4659C88.5497 29.8902 88.6989 30.215 88.9972 30.4403C89.2955 30.6657 89.6766 30.7784 90.1406 30.7784ZM106.127 13.6364V34H100.638V13.6364H106.127ZM113.179 34.2386C112.205 34.2386 111.343 34.0795 110.594 33.7614C109.851 33.4366 109.268 32.946 108.844 32.2898C108.42 31.6335 108.207 30.7983 108.207 29.7841C108.207 28.9489 108.35 28.2363 108.635 27.6463C108.92 27.0497 109.318 26.5625 109.828 26.1847C110.339 25.8068 110.932 25.5185 111.608 25.3196C112.291 25.1207 113.027 24.9915 113.815 24.9318C114.67 24.8655 115.357 24.786 115.874 24.6932C116.397 24.5937 116.775 24.4579 117.007 24.2855C117.239 24.1065 117.355 23.8712 117.355 23.5795V23.5398C117.355 23.142 117.203 22.8371 116.898 22.625C116.593 22.4129 116.202 22.3068 115.724 22.3068C115.201 22.3068 114.773 22.4228 114.442 22.6548C114.117 22.8802 113.921 23.2282 113.855 23.6989H108.804C108.87 22.7708 109.165 21.9157 109.689 21.1335C110.219 20.3447 110.991 19.715 112.006 19.2443C113.02 18.767 114.286 18.5284 115.804 18.5284C116.898 18.5284 117.879 18.6577 118.747 18.9162C119.616 19.1681 120.355 19.5227 120.964 19.9801C121.574 20.4309 122.038 20.9612 122.357 21.571C122.681 22.1742 122.844 22.8305 122.844 23.5398V34H117.713V31.8523H117.594C117.289 32.4223 116.918 32.883 116.48 33.2344C116.049 33.5857 115.555 33.8409 114.999 34C114.448 34.1591 113.842 34.2386 113.179 34.2386ZM114.969 30.7784C115.386 30.7784 115.777 30.6922 116.142 30.5199C116.513 30.3475 116.815 30.099 117.047 29.7741C117.279 29.4493 117.395 29.0549 117.395 28.5909V27.3182C117.249 27.3778 117.093 27.4342 116.928 27.4872C116.768 27.5402 116.596 27.59 116.411 27.6364C116.232 27.6828 116.039 27.7259 115.834 27.7656C115.635 27.8054 115.426 27.8419 115.207 27.875C114.783 27.9413 114.435 28.0507 114.163 28.2031C113.898 28.349 113.699 28.5312 113.567 28.75C113.441 28.9621 113.378 29.2008 113.378 29.4659C113.378 29.8902 113.527 30.215 113.825 30.4403C114.124 30.6657 114.505 30.7784 114.969 30.7784ZM130.955 25.4091V34H125.466V18.7273H130.676V21.6307H130.836C131.167 20.6629 131.75 19.9039 132.586 19.3537C133.427 18.8035 134.408 18.5284 135.529 18.5284C136.609 18.5284 137.547 18.777 138.343 19.2741C139.145 19.7647 139.765 20.4408 140.202 21.3026C140.646 22.1643 140.865 23.1487 140.858 24.2557V34H135.37V25.4091C135.376 24.6534 135.184 24.0601 134.793 23.6293C134.408 23.1984 133.872 22.983 133.182 22.983C132.731 22.983 132.337 23.0824 131.999 23.2812C131.667 23.4735 131.412 23.7519 131.233 24.1165C131.054 24.4744 130.962 24.9053 130.955 25.4091ZM150.926 34.2784C149.269 34.2784 147.85 33.9503 146.67 33.294C145.49 32.6312 144.585 31.7098 143.956 30.5298C143.326 29.3433 143.011 27.9678 143.011 26.4034C143.011 24.839 143.326 23.4669 143.956 22.2869C144.585 21.1004 145.49 20.179 146.67 19.5227C147.85 18.8598 149.269 18.5284 150.926 18.5284C152.424 18.5284 153.72 18.8002 154.814 19.3438C155.914 19.8807 156.766 20.643 157.369 21.6307C157.972 22.6117 158.277 23.7652 158.284 25.0909H153.193C153.12 24.2888 152.888 23.679 152.497 23.2614C152.112 22.8371 151.615 22.625 151.005 22.625C150.528 22.625 150.11 22.7642 149.752 23.0426C149.395 23.3144 149.116 23.7287 148.917 24.2855C148.718 24.8357 148.619 25.5284 148.619 26.3636C148.619 27.1989 148.718 27.8949 148.917 28.4517C149.116 29.0019 149.395 29.4162 149.752 29.6946C150.11 29.9664 150.528 30.1023 151.005 30.1023C151.41 30.1023 151.768 30.0095 152.079 29.8239C152.391 29.6316 152.643 29.3532 152.835 28.9886C153.034 28.6174 153.153 28.1667 153.193 27.6364H158.284C158.264 28.982 157.956 30.1553 157.359 31.1562C156.762 32.1506 155.917 32.9195 154.824 33.4631C153.736 34.0066 152.437 34.2784 150.926 34.2784ZM163.889 39.7273C163.259 39.7273 162.66 39.6776 162.089 39.5781C161.519 39.4853 161.019 39.3561 160.588 39.1903L161.781 35.2926C162.232 35.4517 162.643 35.5545 163.014 35.6009C163.392 35.6473 163.714 35.6207 163.979 35.5213C164.25 35.4219 164.446 35.233 164.565 34.9545L164.685 34.6761L159.315 18.7273H165.043L167.509 29.3068H167.668L170.173 18.7273H175.94L170.372 35.2727C170.094 36.1146 169.689 36.8703 169.159 37.5398C168.635 38.2159 167.946 38.7495 167.091 39.1406C166.236 39.5317 165.169 39.7273 163.889 39.7273Z" fill="#142C16"/>
</svg>
