<svg width="130" height="58" viewBox="0 0 130 58" fill="none" xmlns="http://www.w3.org/2000/svg">
<g clip-path="url(#clip0_58_8388)">
<path fill-rule="evenodd" clip-rule="evenodd" d="M48.8713 8.83748C60.0518 19.9538 60.0524 37.9761 48.8724 49.0918C37.6927 60.2074 19.566 60.2068 8.38572 49.0905C-2.79478 37.9744 -2.79533 19.9519 8.38461 8.83639C19.5644 -2.27916 37.6908 -2.27879 48.8713 8.83748ZM115.159 33.1867H122.123V39.6277C120.845 40.1122 118.336 40.597 115.958 40.597C108.255 40.597 105.694 36.7093 105.694 28.8142C105.694 21.2796 108.132 16.8456 115.828 16.8456C120.117 16.8456 122.55 18.1836 124.567 20.735L129.888 15.8745C126.639 11.2677 120.968 9.87158 115.643 9.87158C103.671 9.86685 97.376 16.3592 97.376 28.7513C97.376 41.0818 103.064 47.7667 115.579 47.7667C121.325 47.7667 126.942 46.3124 130 44.181V26.3226H115.159V33.1867ZM78.6286 40.0512H96.3511V47.2192H70.0752V10.4116H78.6286V40.0512ZM50.2235 29.8677H35.665V27.7236H52.3573C52.3801 28.1389 52.3914 28.554 52.3914 28.9742C52.3914 41.8849 41.8083 52.3491 28.7564 52.3491C15.7045 52.3491 5.11963 41.8897 5.11963 28.9726C5.11963 16.0554 15.7013 5.59766 28.7548 5.59766C29.0993 5.59766 29.4422 5.60458 29.7834 5.61862V7.74671C29.4422 7.73158 29.1004 7.72411 28.7579 7.72411C16.8942 7.72411 7.27303 17.2383 7.27303 28.9726C7.27303 40.7069 16.8925 50.2227 28.7579 50.2227C40.2969 50.2227 49.723 41.2208 50.2219 29.9275L50.2235 29.8677ZM35.6315 38.8004H29.7808V16.9443H27.6177V40.9575H29.7858V40.9431H35.6365L35.6315 38.8004ZM21.774 22.8527C21.2327 23.2157 20.5955 23.4111 19.9427 23.4142C19.5078 23.4153 19.0769 23.3313 18.6746 23.1667C18.2725 23.0022 17.9067 22.7605 17.5982 22.4555C17.29 22.1505 17.0452 21.788 16.8776 21.3888C16.7102 20.9897 16.6235 20.5616 16.6226 20.1292C16.6226 19.4802 16.8158 18.8458 17.1782 18.3059C17.5405 17.7659 18.0555 17.345 18.6584 17.0958C19.2612 16.8467 19.9247 16.7807 20.565 16.9062C21.2055 17.0316 21.7943 17.343 22.2571 17.8008C22.7197 18.2585 23.0357 18.8423 23.1651 19.4785C23.2944 20.1146 23.2313 20.7748 22.9836 21.3753C22.736 21.9758 22.3151 22.4899 21.774 22.8527Z" fill="#142C16"/>
</g>
<defs>
<clipPath id="clip0_58_8388">
<rect width="130" height="58" fill="white"/>
</clipPath>
</defs>
</svg>
