<svg width="131" height="38" viewBox="0 0 131 38" fill="none" xmlns="http://www.w3.org/2000/svg">
<g clip-path="url(#clip0_58_8662)">
<mask id="mask0_58_8662" style="mask-type:luminance" maskUnits="userSpaceOnUse" x="0" y="0" width="131" height="38">
<path d="M130.5 0H0.5V38H130.5V0Z" fill="white"/>
</mask>
<g mask="url(#mask0_58_8662)">
<mask id="mask1_58_8662" style="mask-type:luminance" maskUnits="userSpaceOnUse" x="0" y="0" width="131" height="38">
<path d="M130.5 0.5H0.5V37.5H130.5V0.5Z" fill="white"/>
</mask>
<g mask="url(#mask1_58_8662)">
<path fill-rule="evenodd" clip-rule="evenodd" d="M52.2451 0.568557C51.6373 0.568557 51.3678 0.93068 51.1422 1.44885C36.954 34.145 35.7634 36.7297 35.7634 36.7297C43.8037 36.7297 43.8037 36.7297 43.8037 36.7297C45.477 32.6278 45.477 32.6278 45.477 32.6278C57.5908 32.6278 57.5908 32.6278 57.5908 32.6278C59.2703 36.7297 59.2703 36.7297 59.2703 36.7297C68.7268 36.7297 68.7268 36.7297 68.7268 36.7297C68.7268 36.7297 67.9184 35.0503 53.348 1.44885C53.1224 0.93068 52.8531 0.568557 52.2451 0.568557ZM48.0338 26.372C51.5245 17.8125 51.5245 17.8125 51.5245 17.8125C55.0275 26.372 55.0275 26.372 55.0275 26.372H48.0338ZM92.4091 20.3037C95.1728 18.6554 97.2659 15.7772 97.2659 11.6504C97.2659 8.41005 95.9688 5.73794 93.7126 3.93381C91.4253 2.09818 88.7807 1.10539 83.3724 1.10539C71.8039 1.10539 71.8039 1.10539 71.8039 1.10539C71.8039 36.7297 71.8039 36.7297 71.8039 36.7297C80.3518 36.7297 80.3518 36.7297 80.3518 36.7297C80.3518 23.4688 80.3518 23.4688 80.3518 23.4688C83.0026 23.4688 83.0026 23.4688 83.0026 23.4688C85.8854 23.4688 87.3394 24.5614 88.5487 27.4522C89.5703 29.8994 90.2909 32.8026 91.2311 36.7297C100.763 36.7297 100.763 36.7297 100.763 36.7297C99.4092 32.6903 98.7323 30.7797 97.7172 27.9329C96.3259 24.0372 94.6402 21.6397 92.4091 20.3037ZM86.9445 15.9334C85.9105 16.7262 84.5757 16.9759 82.1755 16.9759C80.3518 16.9759 80.3518 16.9759 80.3518 16.9759C80.3518 16.9759 80.333 7.47999 80.3518 7.47999C82.1755 7.47999 82.1755 7.47999 82.1755 7.47999C84.6821 7.47999 85.9292 7.75463 86.9383 8.51619C88.0914 9.39027 88.6052 10.7014 88.6052 12.2186C88.6052 13.873 88.0287 15.0904 86.9445 15.9334ZM16.5868 16.2018C2.06665 1.72984 2.06666 1.72984 2.06666 1.72984C1.62799 1.29902 1.18933 0.993152 0.5 0.993152C0.5 36.7297 0.5 36.7297 0.5 36.7297C7.96384 36.7297 7.96384 36.7297 7.96384 36.7297C7.96384 19.6418 7.96384 19.6418 7.96384 19.6418C16.5869 28.2326 16.5868 28.2326 16.5868 28.2326C25.2163 19.6418 25.2163 19.6418 25.2163 19.6418C25.2163 36.7297 25.2163 36.7297 25.2163 36.7297C32.6801 36.7297 32.6801 36.7297 32.6801 36.7297C32.6801 0.993153 32.6801 0.993152 32.6801 0.993152C31.9908 0.993152 31.5521 1.29902 31.1135 1.72984L16.5868 16.2018ZM127.378 18.955C123.568 15.3465 116.656 14.7283 113.923 12.6057C112.852 11.7753 112.469 10.5515 112.82 9.38405C113.253 7.93569 114.7 6.98671 116.825 6.98671C119.751 6.98671 122.377 8.31647 124.195 10.4704C129.076 5.38217 129.076 5.38217 129.076 5.38217C126.2 2.3355 121.606 0.5 116.768 0.5C111.128 0.5 106.873 3.21579 104.974 7.54855C103.501 10.9137 104.009 14.4224 105.82 16.9448C109.323 21.827 116.718 21.9768 119.92 24.4803C121.061 25.3732 121.7 26.8153 121.017 28.3699C120.428 29.7309 118.943 30.6549 116.511 30.7174C113.14 30.7985 110.132 29.2252 107.92 26.472C103.031 31.5664 103.031 31.5664 103.031 31.5664C106.265 35.4685 111.078 37.3478 116.894 37.3478C122.546 37.3478 127.51 35.1564 129.534 30.4863C131.307 26.4033 130.668 22.0643 127.378 18.955Z" fill="#142C16"/>
</g>
</g>
</g>
<defs>
<clipPath id="clip0_58_8662">
<rect width="130" height="38" fill="white" transform="translate(0.5)"/>
</clipPath>
</defs>
</svg>
