<svg width="386" height="86" viewBox="0 0 386 86" fill="none" xmlns="http://www.w3.org/2000/svg">
<g clip-path="url(#clip0_58_8911)">
<path d="M120.702 64.1409C114.692 64.1178 109.797 62.0812 106.017 58.0314C102.238 53.9817 100.361 48.8247 100.388 42.5607C100.411 36.3005 102.299 31.1299 106.052 27.0492C109.804 22.9685 114.719 20.9435 120.794 20.9744C125.491 20.9744 129.417 22.2072 132.573 24.6725C136.144 27.3775 138.19 31.1918 138.71 36.1148L128.498 36.0454C128.272 34.2299 127.395 32.5589 126.03 31.3443C124.559 30.0699 122.662 29.3993 120.719 29.4662C117.483 29.4662 115.023 30.6642 113.339 33.0601C111.656 35.4559 110.806 38.6324 110.791 42.5896C110.791 46.454 111.683 49.6053 113.467 52.0437C114.27 53.2113 115.349 54.1611 116.607 54.8084C117.866 55.4557 119.265 55.7805 120.679 55.7534C122.692 55.8402 124.663 55.1657 126.204 53.8637C127.654 52.5946 128.561 50.8131 128.735 48.8903L138.964 48.9251C138.703 52.9673 136.91 56.756 133.954 59.5153C130.706 62.6223 126.289 64.1641 120.702 64.1409ZM141.455 63.2888L141.611 21.8439L151.147 21.8786L150.991 63.3237L141.455 63.2888ZM180.897 59.9095C177.981 62.8774 174.171 64.3515 169.467 64.3323C164.762 64.313 160.958 62.8058 158.053 59.8109C155.136 56.8354 153.697 53.085 153.736 48.56C153.774 44.0348 155.252 40.2922 158.168 37.3322C161.108 34.3721 164.928 32.8998 169.629 32.9152C174.329 32.9307 178.128 34.432 181.025 37.419C183.919 40.4101 185.36 44.1643 185.347 48.6817C185.336 53.1992 183.854 56.9418 180.897 59.9095ZM164.832 55.1737C165.322 55.9518 166.006 56.5876 166.818 57.0178C167.629 57.448 168.538 57.6577 169.455 57.6256C170.376 57.6575 171.289 57.448 172.105 57.0181C172.921 56.5883 173.611 55.9525 174.107 55.1737C175.213 53.5547 175.772 51.3732 175.783 48.6295C175.795 45.8859 175.253 43.6908 174.159 42.0447C173.671 41.2633 172.987 40.6234 172.176 40.1883C171.365 39.753 170.455 39.5379 169.536 39.5638C168.621 39.5229 167.712 39.725 166.901 40.1494C166.089 40.5738 165.403 41.2056 164.913 41.981C163.826 43.6 163.279 45.8008 163.271 48.5831C163.264 51.3654 163.784 53.5623 164.832 55.1737ZM198.027 64.4018C194.676 64.4018 192.108 63.397 190.324 61.3876C188.54 59.3782 187.654 56.6731 187.665 53.2725L187.741 33.7962L197.102 33.8311L197.039 51.3365C197.039 54.6984 198.514 56.3853 201.465 56.3969C202.185 56.4341 202.905 56.3062 203.567 56.0229C204.231 55.7396 204.82 55.3085 205.291 54.7623C206.26 53.5379 206.756 52.005 206.691 50.4439L206.754 33.8659L216.173 33.9064L216.065 63.5844L207.048 63.5497V59.8979H206.904C205.908 61.3217 204.577 62.4765 203.027 63.2593C201.478 64.0422 199.761 64.4286 198.027 64.3845V64.4018ZM231.719 64.0076C228.714 64.0076 226.402 63.3894 224.784 62.1529C223.166 60.9161 222.356 58.7907 222.351 55.7767L222.41 39.8363H218.48V33.9238H222.41L222.45 24.5334L231.638 24.5683L231.599 33.9585H236.974V39.871H231.599L231.546 53.7826C231.546 54.8665 231.819 55.6202 232.378 56.0491C233.107 56.5212 233.965 56.7466 234.829 56.6925C235.141 56.6925 235.545 56.6925 236.043 56.6925C236.539 56.6925 236.835 56.6925 236.909 56.6925V63.5902C235.203 63.9427 233.46 64.0771 231.719 63.9902V64.0076ZM257.784 64.6859C253.7 64.6859 250.72 63.1092 248.844 59.9558H248.729V63.7236L239.712 63.6888L239.869 22.2439L249.288 22.2844L249.23 37.4133H249.403C250.352 36.0606 251.622 34.9671 253.099 34.2331C254.575 33.499 256.212 33.1476 257.859 33.2108C259.629 33.1735 261.384 33.5607 262.975 34.3399C264.566 35.1193 265.947 36.2682 267.008 37.6915C269.318 40.6826 270.475 44.4367 270.475 48.9542C270.475 53.8619 269.318 57.7107 267.008 60.5007C264.695 63.2908 261.613 64.6801 257.76 64.6685L257.784 64.6859ZM255.154 57.2025C255.987 57.2345 256.813 57.05 257.553 56.667C258.294 56.2842 258.922 55.7159 259.378 55.0172C260.392 53.5489 260.9 51.5008 260.904 48.873C260.904 46.2877 260.424 44.2358 259.43 42.6998C258.978 41.9645 258.339 41.3626 257.578 40.9554C256.819 40.5482 255.964 40.3501 255.103 40.3812C254.198 40.3298 253.294 40.5169 252.482 40.9236C251.672 41.3303 250.982 41.9427 250.478 42.6998C249.409 44.2455 248.868 46.2993 248.86 48.8614C248.86 51.3385 249.421 53.3421 250.543 54.8723C251.063 55.609 251.755 56.2055 252.56 56.6091C253.364 57.0125 254.255 57.2104 255.154 57.1851V57.2025ZM298.92 60.3906C295.996 63.3545 292.184 64.827 287.489 64.8076C282.792 64.7883 278.983 63.287 276.063 60.3037C273.146 57.3127 271.696 53.5585 271.712 49.041C271.726 44.5236 273.207 40.7714 276.149 37.7843C279.086 34.8242 282.906 33.3519 287.61 33.3673C292.314 33.3828 296.113 34.8861 299.006 37.8769C301.899 40.8642 303.339 44.6184 303.324 49.1396C303.308 53.6609 301.84 57.4113 298.92 60.3906ZM282.843 55.6084C283.328 56.3904 284.012 57.029 284.825 57.4597C285.637 57.8903 286.548 58.0976 287.466 58.0604C288.386 58.0973 289.298 57.8939 290.116 57.4702C290.934 57.0465 291.627 56.4169 292.128 55.6434C293.236 54.0242 293.792 51.8427 293.799 49.0991C293.808 46.3554 293.268 44.1605 292.181 42.5142C291.67 41.755 290.981 41.1323 290.177 40.6998C289.372 40.2672 288.474 40.0378 287.56 40.0315C286.647 40.0251 285.745 40.2422 284.935 40.6636C284.123 41.0851 283.427 41.6984 282.906 42.4505C281.82 44.0697 281.27 46.2703 281.259 49.0526C281.247 51.8349 281.775 54.0204 282.843 55.6084ZM331.804 60.495C328.88 63.4551 325.068 64.9274 320.371 64.912C315.676 64.8964 311.867 63.3894 308.947 60.3906C306.03 57.4151 304.572 53.6647 304.572 49.1396C304.572 44.6144 306.052 40.8718 309.01 37.9119C311.946 34.9517 315.766 33.4794 320.471 33.4948C325.175 33.5104 328.973 35.0136 331.867 38.0045C334.76 40.9916 336.199 44.7439 336.185 49.2614C336.169 53.7788 334.708 57.5232 331.804 60.495ZM315.725 55.7534C316.212 56.5353 316.896 57.1739 317.707 57.6047C318.519 58.0352 319.432 58.2426 320.35 58.2053C321.27 58.2366 322.182 58.0269 322.999 57.5971C323.815 57.1672 324.504 56.5318 325.002 55.7534C326.104 54.1343 326.659 51.9529 326.672 49.2091C326.683 46.4655 326.143 44.2705 325.054 42.6243C324.565 41.843 323.881 41.2031 323.07 40.768C322.26 40.3327 321.349 40.1176 320.429 40.1435C319.515 40.1026 318.606 40.3046 317.794 40.7291C316.982 41.1535 316.297 41.7853 315.806 42.5607C314.72 44.1797 314.172 46.3805 314.159 49.1628C314.149 51.9451 314.67 54.1419 315.725 55.7534ZM353.659 65.0278C349.341 65.0278 345.907 64.0773 343.356 62.176C342.121 61.295 341.111 60.1338 340.407 58.7871C339.704 57.4404 339.329 55.946 339.311 54.426L348.21 54.4609C348.546 57.3939 350.351 58.8682 353.625 58.8835C354.805 58.9499 355.977 58.6827 357.013 58.1127C357.395 57.8976 357.714 57.5826 357.934 57.201C358.153 56.8193 358.266 56.3853 358.261 55.9448C358.266 55.6701 358.228 55.3964 358.151 55.1332C358.066 54.8926 357.927 54.6746 357.747 54.4956C357.555 54.2984 357.37 54.1246 357.168 53.9681C356.937 53.7808 356.673 53.6339 356.394 53.5333C356.048 53.4 355.746 53.29 355.497 53.2088C355.249 53.1275 354.879 53.0465 354.401 52.9479L353.273 52.7104C353.006 52.6523 352.579 52.5712 352.002 52.4726L350.73 52.2639C349.496 52.0668 348.459 51.8601 347.615 51.6437C346.654 51.388 345.718 51.0447 344.817 50.6177C343.908 50.2259 343.07 49.6829 342.339 49.0121C341.643 48.3233 341.104 47.4933 340.755 46.5775C340.324 45.4365 340.124 44.2207 340.166 43.0012C340.13 41.6237 340.447 40.2598 341.089 39.0415C341.731 37.823 342.675 36.7911 343.829 36.0454C346.264 34.399 349.312 33.5818 352.972 33.5934C357.092 33.5934 360.285 34.4455 362.554 36.1496C363.661 36.9601 364.572 38.0106 365.218 39.223C365.865 40.4353 366.23 41.7782 366.287 43.1519L357.619 43.117C357.319 40.7984 355.741 39.6392 352.891 39.6392C351.854 39.5851 350.82 39.822 349.909 40.3231C349.55 40.5217 349.253 40.8154 349.049 41.1721C348.845 41.5289 348.742 41.9351 348.753 42.3461C348.75 42.5643 348.788 42.7812 348.869 42.9838C348.948 43.1852 349.076 43.3643 349.238 43.5054C349.403 43.6532 349.576 43.7887 349.76 43.9112C349.985 44.0588 350.227 44.1775 350.481 44.2647C350.788 44.3807 351.06 44.4793 351.32 44.5603C351.661 44.6589 352.009 44.7363 352.361 44.7922L353.452 45.0008L354.608 45.2386C355.111 45.3372 355.515 45.4066 355.822 45.4414C357.133 45.6791 358.208 45.8994 359.058 46.0965C360.092 46.3288 361.103 46.6506 362.081 47.0588C363.073 47.4667 363.984 48.0565 364.761 48.7977C365.49 49.551 366.064 50.4388 366.455 51.4119C366.958 52.6329 367.2 53.946 367.166 55.2665C367.166 58.4352 365.914 60.866 363.41 62.5585C360.905 64.2511 357.655 65.0743 353.659 65.0278ZM380.764 64.5525C377.759 64.5525 375.447 63.9341 373.829 62.6976C372.211 61.461 371.394 59.3395 371.379 56.333L371.437 40.3928H367.507V34.4803H371.437L371.477 25.0899L380.667 25.1248L380.625 34.515H386V40.4275H380.625L380.573 54.3391C380.573 55.423 380.845 56.1765 381.406 56.6055C382.133 57.0775 382.992 57.3031 383.856 57.249C384.168 57.249 384.574 57.249 385.07 57.249H385.937V64.1467C384.236 64.5035 382.499 64.6437 380.764 64.5641V64.5525Z" fill="#142C16"/>
<path d="M68.0709 42.6186C68.0637 44.2967 67.8933 45.9702 67.5623 47.6151L68.8222 48.8788C69.8279 44.6879 69.8279 40.3173 68.8222 36.1264L67.568 37.3843C67.9086 39.1079 68.0771 40.8613 68.0709 42.6186ZM81.6866 42.6707C81.6695 48.0979 80.5303 53.4626 78.3405 58.4257L80.525 60.6167C83.1881 54.9537 84.5692 48.7698 84.5692 42.5084C84.5692 36.2471 83.1881 30.0632 80.525 24.4002L78.3405 26.5913C80.5692 31.6558 81.7094 37.1347 81.6866 42.6707ZM73.5669 66.506C69.8958 71.3312 65.1644 75.2421 59.7407 77.9345C54.3171 80.6267 48.3474 82.0278 42.2959 82.0289H42.1397C31.7738 81.8847 21.8822 77.6482 14.6096 70.238C7.3371 62.8277 3.26982 52.8408 3.28959 42.4427C3.30936 32.0446 7.41459 22.0733 14.7153 14.6909C22.0159 7.30844 31.9235 3.1098 42.2901 3.00525H42.4461C47.621 3.0116 52.7435 4.04714 57.5169 6.05199C62.2903 8.05682 66.62 10.9912 70.2554 14.6852C71.4443 15.8909 72.5561 17.1706 73.5842 18.5167L75.6416 16.4531C74.6032 15.1211 73.4899 13.8496 72.307 12.6448C67.4091 7.69271 61.3693 4.02863 54.7224 1.9772C48.0754 -0.0742439 41.0266 -0.449695 34.2005 0.884098C27.3743 2.21789 20.9814 5.21976 15.5883 9.62374C10.1951 14.0277 5.96819 19.6979 3.2819 26.1319C0.595635 32.5658 -0.467047 39.5651 0.188013 46.5095C0.843071 53.4539 3.19565 60.129 7.03732 65.9436C10.879 71.758 16.0912 76.5325 22.2121 79.8438C28.3329 83.1551 35.1738 84.9011 42.1281 84.9272H42.2959C48.726 84.9254 55.071 83.4507 60.847 80.616C66.6227 77.7812 71.677 73.6611 75.6243 68.5696L73.5669 66.506ZM77.1499 42.6533C77.138 46.8545 76.3645 51.0184 74.8672 54.9419L76.7337 56.8142C80.5135 47.6538 80.5135 37.3631 76.7337 28.2027L74.8615 30.0808C76.3894 34.0946 77.1652 38.3569 77.1499 42.6533ZM70.3305 63.2888C67.0956 67.6968 62.8729 71.2804 58.0032 73.7502C53.1333 76.2203 47.7527 77.5073 42.2959 77.5077H42.1572C32.9864 77.3731 24.2379 73.6202 17.8065 67.0618C11.3751 60.5035 7.7786 51.6677 7.79608 42.4688C7.81358 33.2696 11.4436 24.4478 17.8999 17.9141C24.3562 11.3804 33.119 7.6609 42.2901 7.56131H42.4286C47.8631 7.58691 53.2164 8.88396 58.0632 11.3493C62.9101 13.8147 67.1164 17.3804 70.3478 21.7627L72.0815 20.0239C68.6324 15.4037 64.1584 11.6523 59.0136 9.06672C53.869 6.48108 48.1948 5.13218 42.4403 5.12677H42.2901C32.4778 5.22962 23.1014 9.20662 16.1925 16.1959C9.28373 23.1852 5.39929 32.6237 5.38106 42.4659C5.3628 52.308 9.21222 61.7608 16.095 68.7758C22.9778 75.7908 32.3396 79.8028 42.1514 79.9422H42.2959C48.0711 79.9424 53.7673 78.595 58.9337 76.0066C64.1004 73.4181 68.5956 69.6594 72.0642 65.0278L70.3305 63.2888ZM72.6075 42.6359C72.5983 45.5955 72.1604 48.5381 71.3072 51.3712L72.8676 52.9363C75.1445 46.1838 75.1445 38.8678 72.8676 32.1153L71.3187 33.6629C72.1908 36.5731 72.6252 39.5973 72.6075 42.6359ZM67.0884 60.0255C64.2919 64.015 60.5793 67.2713 56.2642 69.519C51.9491 71.7669 47.1582 72.9401 42.2959 72.9401H42.1976C34.2295 72.8155 26.6309 69.5494 21.0455 63.8486C15.4602 58.1476 12.3373 50.4701 12.3525 42.4773C12.3676 34.4846 15.5197 26.8191 21.1268 21.1396C26.7337 15.46 34.3448 12.223 42.3132 12.129H42.4346C46.4142 12.1354 50.3532 12.9334 54.0236 14.4765C57.6938 16.0197 61.0226 18.2775 63.8173 21.1193C65.0121 22.332 66.1061 23.6406 67.0884 25.032L68.4871 23.6349C65.5149 19.4784 61.6024 16.0881 57.0705 13.7423C52.5388 11.3965 47.5168 10.1623 42.4171 10.1408H42.2901C33.8594 10.3243 25.8351 13.8091 19.9331 19.85C14.0312 25.8908 10.7201 34.0083 10.708 42.466C10.696 50.9238 13.9838 59.0507 19.8685 65.1085C25.7532 71.1662 33.7676 74.6742 42.1976 74.8819H42.3247C47.4407 74.8746 52.4821 73.6522 57.0366 71.3148C61.591 68.9773 65.5287 65.5913 68.5275 61.4341L67.0884 60.0255ZM63.8116 56.7388C61.357 60.4716 57.979 63.5018 54.0077 65.5334C50.0362 67.5649 45.6072 68.5283 41.1536 68.3295C36.6998 68.1307 32.3737 66.7762 28.5981 64.3987C24.8223 62.0212 21.7262 58.7017 19.612 54.765C17.498 50.8283 16.4384 46.4087 16.5367 41.9383C16.635 37.4679 17.888 33.0995 20.173 29.2601C22.4582 25.4208 25.6973 22.2415 29.5739 20.0335C33.4505 17.8252 37.832 16.6635 42.2901 16.6618H42.394C45.7807 16.6671 49.1326 17.3455 52.2563 18.6578C55.3798 19.9702 58.2133 21.8904 60.5926 24.3074C61.7981 25.5302 62.8819 26.8677 63.8289 28.3011L64.8982 27.223C62.4106 23.5284 59.0604 20.4995 55.1392 18.4003C51.2181 16.3009 46.8447 15.1947 42.3998 15.1779H42.2901C35.2108 15.3967 28.494 18.368 23.5594 23.4638C18.6247 28.5595 15.859 35.3801 15.847 42.4838C15.8349 49.5876 18.5776 56.4177 23.495 61.53C28.4123 66.6425 35.1192 69.6366 42.1976 69.8796H42.3074C46.7726 69.877 51.1692 68.7754 55.1109 66.6714C59.0528 64.5672 62.4195 61.5247 64.9155 57.8113L63.8116 56.7388ZM63.5284 42.6186V43.5635L64.4993 44.5372C64.5571 43.9054 64.5919 43.2679 64.5919 42.6243C64.6052 41.9256 64.5764 41.227 64.5051 40.5319L63.5284 41.5056C63.5226 41.8419 63.5342 42.2301 63.5284 42.6012V42.6186ZM60.5349 53.4349C58.6478 56.598 55.9758 59.2172 52.7794 61.0364C49.583 62.8559 45.971 63.8137 42.2959 63.8164H42.1976C36.626 63.7142 31.3176 61.4198 27.4172 57.4279C23.517 53.436 21.337 48.0665 21.3476 42.4773C21.3582 36.8881 23.5584 31.5268 27.474 27.55C31.3896 23.5729 36.7064 21.2988 42.2784 21.2179H42.3651C46.0276 21.2329 49.6239 22.1978 52.8046 24.0188C55.9853 25.8401 58.6424 28.4554 60.5174 31.611L61.2688 30.8285C59.2824 27.5896 56.5061 24.9118 53.2016 23.0477C49.8972 21.1837 46.1737 20.1948 42.3824 20.1746H42.2901C36.4435 20.256 30.8634 22.6396 26.7534 26.8109C22.6434 30.9823 20.3332 36.6069 20.3209 42.4715C20.3088 48.336 22.5958 53.9704 26.6885 58.1588C30.7812 62.3472 36.3515 64.7539 42.1976 64.8597H42.2841C46.0933 64.8561 49.838 63.8739 53.1614 62.0069C56.4848 60.1398 59.2759 57.4502 61.2688 54.1942L60.5349 53.4349ZM57.2234 50.0844C55.8838 52.7467 53.8605 55.0022 51.362 56.6187C48.8636 58.2351 45.9805 59.1538 43.0101 59.2801C40.0396 59.4064 37.0894 58.7356 34.4637 57.3369C31.8378 55.9383 29.6315 53.8624 28.0721 51.3235C26.513 48.7843 25.6571 45.8741 25.5931 42.8928C25.529 39.9115 26.259 36.9669 27.7078 34.3629C29.1565 31.7589 31.2716 29.5896 33.8349 28.0788C36.3982 26.5679 39.317 25.7703 42.2901 25.7681H42.3594C45.4407 25.7759 48.4598 26.638 51.0831 28.2595C53.7063 29.8809 55.8315 32.1984 57.2234 34.9555L57.6569 34.5208C56.8481 32.9729 55.8138 31.5545 54.588 30.3125C52.5844 28.2948 50.1158 26.8035 47.4008 25.9702C44.6856 25.1371 41.8078 24.9878 39.0214 25.5355C36.2351 26.0833 33.6264 27.3113 31.4258 29.1109C29.2253 30.9106 27.5007 33.2263 26.4047 35.8534C25.3088 38.4805 24.875 41.338 25.1421 44.1733C25.4091 47.0085 26.3685 49.7341 27.9356 52.1088C29.5027 54.4837 31.6289 56.4347 34.1266 57.7892C36.6242 59.1437 39.416 59.8599 42.2553 59.8748H42.3247C44.5776 59.8775 46.8088 59.4352 48.8912 58.5727C50.9736 57.7105 52.8661 56.4452 54.461 54.8491C55.7299 53.5824 56.7981 52.128 57.6278 50.5367L57.2234 50.0844Z" fill="#142C16"/>
</g>
<defs>
<clipPath id="clip0_58_8911">
<rect width="386" height="85.0301" fill="white"/>
</clipPath>
</defs>
</svg>
