<svg width="182" height="43" viewBox="0 0 182 43" fill="none" xmlns="http://www.w3.org/2000/svg">
<g clip-path="url(#clip0_58_8806)">
<mask id="mask0_58_8806" style="mask-type:luminance" maskUnits="userSpaceOnUse" x="0" y="0" width="182" height="43">
<path d="M182 0H0V43H182V0Z" fill="white"/>
</mask>
<g mask="url(#mask0_58_8806)">
<path d="M38.9366 0L28.6302 11.5396L18.3358 0.0147206L0 20.5426L7.85812 29.3401L18.2134 17.7477L28.5278 29.2953L38.8878 17.6962L43.045 22.3626L32.6911 33.9557L40.6121 42.8235L70.9265 8.88454L63.0055 0.0167279L50.9787 13.4807L38.9366 0ZM102.794 15.3897L98.8106 21.3602L94.6387 15.3897H91.6691L97.5105 23.7135V28.7721H100.042V23.7122L105.721 15.3897H102.794ZM116.502 21.4051V23.7557H120.809V26.3586C119.866 26.6429 118.726 26.8055 117.648 26.8055C114.338 26.8055 112.362 25.1341 112.362 22.3345C112.362 19.6607 114.487 17.8641 117.648 17.8641C119.156 17.8641 120.727 18.1967 122.191 18.827L122.424 18.9273L123.203 16.6992L122.993 16.6115C121.195 15.8567 119.338 15.474 117.474 15.474C112.849 15.474 109.741 18.2783 109.741 22.4529C109.741 26.675 112.661 29.1956 117.551 29.1956C119.48 29.1956 121.696 28.7312 123.197 28.0133L123.333 27.9477V21.4051H116.502ZM162.176 26.6483V23.3629H168.55V21.0116H162.176V17.923H169.207V15.5724H159.651V28.9996H169.323V26.6483H162.176ZM176.889 21.0632C174.921 20.7801 173.727 20.5272 173.727 19.4084C173.727 18.4268 174.717 17.8641 176.444 17.8641C178.258 17.8641 179.824 18.56 180.413 18.8598L180.628 18.9695L181.623 16.8966L181.431 16.7828C180.043 15.9631 178.127 15.474 176.308 15.474C173.051 15.474 171.106 16.9889 171.106 19.5262C171.106 20.7487 171.517 21.648 172.363 22.2756C173.4 23.0444 174.912 23.2599 176.246 23.4499C178.137 23.7202 179.296 23.9384 179.296 24.9855C179.296 26.6282 177.018 26.8055 176.038 26.8055C174.572 26.8055 173.216 26.4275 172.009 25.6814L171.799 25.5523L170.641 27.6372L170.828 27.761C171.808 28.4154 173.504 29.1956 176.019 29.1956C179.602 29.1956 181.917 27.5047 181.917 24.8878C181.917 21.7871 179.129 21.3857 176.889 21.0632ZM77.7194 28.9996L80.2841 21.579L84.6153 28.9527L88.9465 21.579L91.5112 28.9996H94.1489L89.538 15.4861L84.6153 23.8955L79.6926 15.4861L75.0817 28.9989L77.7194 28.9996ZM131.498 20.92L133.454 24.485H129.548L131.498 20.92ZM127.065 28.9996L128.423 26.5332L134.575 26.5292L135.931 28.9989H138.788L131.498 15.4861L124.207 28.9996H127.065ZM142.028 28.9996L144.594 21.3629L148.924 28.9521L153.256 21.3629L155.821 28.9989H158.458L153.848 15.4861L148.924 23.8955L144.002 15.4861L139.391 28.9989L142.028 28.9996ZM107.851 26.9019L105.595 29.1956L103.34 26.9019L105.595 24.6088L107.851 26.9019ZM60.3872 27.8152C60.3112 27.8398 60.2314 27.8505 60.1517 27.8467H59.9275V27.3288H60.139C60.2768 27.3288 60.3765 27.3462 60.4387 27.3823C60.5016 27.4171 60.5324 27.4874 60.5324 27.5911C60.5324 27.7015 60.4842 27.7764 60.3872 27.8152ZM60.7545 28.4937C60.7522 28.4585 60.7508 28.4233 60.7505 28.388V28.2829C60.7478 28.2034 60.7212 28.1264 60.6742 28.0621C60.6463 28.023 60.6104 27.9903 60.5688 27.9661C60.5273 27.9419 60.4812 27.9267 60.4334 27.9216C60.505 27.9129 60.574 27.8894 60.6361 27.8527C60.7278 27.7925 60.7733 27.6981 60.7733 27.5703C60.7733 27.3897 60.701 27.2692 60.5558 27.2077C60.4735 27.1742 60.3457 27.1568 60.1717 27.1568H59.6793V28.586H59.9268V28.024H60.1229C60.254 28.024 60.3457 28.0394 60.3986 28.0702C60.4869 28.123 60.5311 28.2321 60.5311 28.3967V28.5104L60.5364 28.5559L60.5398 28.572C60.5408 28.5767 60.5419 28.5814 60.5431 28.586H60.7753L60.7666 28.5686C60.7585 28.5445 60.7544 28.5192 60.7545 28.4937ZM60.1958 29.0022C59.5869 29.0022 59.0918 28.4991 59.0918 27.8801C59.0918 27.2612 59.5869 26.7573 60.1958 26.7573C60.8047 26.7573 61.2999 27.2612 61.2999 27.8801C61.2999 28.4991 60.8047 29.0022 60.1958 29.0022ZM60.1958 26.5767C59.4879 26.5767 58.9138 27.1602 58.9138 27.8801C58.9138 28.6001 59.4879 29.1836 60.1958 29.1836C60.9038 29.1836 61.4779 28.6001 61.4779 27.8801C61.4779 27.1602 60.9038 26.5767 60.1958 26.5767Z" fill="#142C16"/>
</g>
</g>
<defs>
<clipPath id="clip0_58_8806">
<rect width="182" height="43" fill="white"/>
</clipPath>
</defs>
</svg>
