<svg width="258" height="192" viewBox="0 0 258 192" fill="none" xmlns="http://www.w3.org/2000/svg">
<g clip-path="url(#clip0_58_8624)">
<path fill-rule="evenodd" clip-rule="evenodd" d="M128.687 129.434C164.309 129.434 193.176 100.555 193.176 64.9336C193.176 29.3123 164.309 0.433716 128.687 0.433716C93.0661 0.433716 64.1875 29.3123 64.1875 64.9336C64.1875 100.555 93.0661 129.434 128.687 129.434ZM92.9592 61.5447C93.0422 85.8373 111.481 100.959 129.197 100.899C151.072 100.828 164.012 82.8626 163.965 66.4621C163.905 50.0735 154.994 38.2234 135.358 33.4359C135.311 33.2343 135.276 32.7958 135.276 32.3813C135.24 19.9979 144.578 9.07224 156.31 6.64296C155.208 6.26373 153.395 6.12177 151.665 6.12177C138.25 6.16916 123.449 11.9165 112.642 20.8514C101.574 30.0234 92.8999 45.4878 92.9592 61.5447Z" fill="#142C16"/>
<path d="M13.6364 190.342L0 157.8H8.90792L17.4143 179.41L25.6584 157.8H34.1648L20.9299 190.342H13.6364Z" fill="#142C16"/>
<path d="M57.8979 173.904C57.8979 172.551 57.7423 171.265 57.4226 170.044C57.1112 168.823 56.6359 167.774 56.0049 166.897C55.3739 166.012 54.6117 165.315 53.7103 164.799C52.8089 164.274 51.7517 164.012 50.5388 164.012C49.326 164.012 48.2606 164.275 47.3674 164.799C46.466 165.315 45.6956 166.012 45.0728 166.897C44.4418 167.774 43.9665 168.823 43.6551 170.044C43.3355 171.265 43.1797 172.551 43.1797 173.904C43.1797 175.305 43.3354 176.608 43.6551 177.804C43.9665 179.001 44.4254 180.05 45.0318 180.951C45.6382 181.853 46.4086 182.566 47.3346 183.09C48.2525 183.606 49.326 183.869 50.5388 183.869C51.7517 183.869 52.8089 183.606 53.7103 183.09C54.6117 182.566 55.3739 181.853 56.0049 180.951C56.6359 180.05 57.1112 179.001 57.4226 177.804C57.7422 176.608 57.8979 175.305 57.8979 173.904ZM66.1339 173.939C66.1339 176.062 65.8061 178.143 65.1587 180.192C64.5031 182.241 63.5361 184.068 62.2495 185.691C60.9711 187.313 59.3485 188.616 57.3899 189.608C55.4313 190.6 53.1449 191.091 50.5389 191.091C47.9247 191.091 45.6383 190.599 43.6879 189.608C41.7293 188.616 40.1067 187.313 38.8201 185.691C37.5417 184.068 36.5746 182.241 35.919 180.192C35.2716 178.143 34.9438 176.062 34.9438 173.939C34.9438 171.825 35.2716 169.76 35.919 167.727C36.5746 165.703 37.5417 163.892 38.8201 162.294C40.1067 160.696 41.7293 159.418 43.6879 158.451C45.6383 157.484 47.9247 156.992 50.5389 156.992C53.1449 156.992 55.4231 157.484 57.3571 158.451C59.2911 159.418 60.9137 160.696 62.2167 162.294C63.5279 163.892 64.5031 165.703 65.1587 167.727C65.8061 169.76 66.1339 171.825 66.1339 173.939Z" fill="#142C16"/>
<path d="M91.284 164.963C89.6696 164.332 88.1699 164.013 86.7767 164.013C85.3508 164.013 84.1134 164.292 83.089 164.832C82.0564 165.373 81.2042 166.103 80.5322 167.029C79.8602 167.955 79.3603 168.995 79.0243 170.151C78.6883 171.298 78.5162 172.486 78.5162 173.707C78.5162 175.06 78.6636 176.354 78.9587 177.6C79.2456 178.837 79.6963 179.927 80.3027 180.853C80.901 181.78 81.6631 182.525 82.5809 183.091C83.4988 183.648 84.5887 183.935 85.8425 183.935C86.8751 183.935 87.924 183.648 88.9976 183.091C90.0711 182.525 90.8332 181.853 91.284 181.091V164.963ZM91.9559 190.343L91.62 187.852C90.8578 188.704 89.8498 189.458 88.5878 190.106C87.334 190.761 85.8507 191.089 84.1461 191.089C81.9089 191.089 79.9257 190.614 78.2294 189.671C76.5166 188.729 75.0825 187.467 73.9188 185.893C72.7552 184.32 71.8619 182.492 71.2555 180.419C70.6572 178.354 70.354 176.191 70.354 173.937C70.354 171.823 70.6654 169.749 71.2883 167.725C71.9193 165.701 72.8699 163.89 74.1483 162.292C75.4349 160.694 77.0329 159.415 78.9669 158.448C80.8928 157.481 83.1627 156.99 85.7605 156.99C87.4651 156.99 89.309 157.309 91.284 157.932V145.312H99.651V190.343H91.9559Z" fill="#142C16"/>
<path d="M123.22 175.084C122.318 175.131 121.384 175.215 120.433 175.321C119.483 175.436 118.581 175.584 117.721 175.764C115.902 176.124 114.648 176.739 113.943 177.616C113.246 178.501 112.894 179.452 112.894 180.492C112.894 181.566 113.287 182.435 114.082 183.09C114.877 183.738 115.992 184.065 117.442 184.065C118.532 184.065 119.589 183.844 120.605 183.393C121.622 182.943 122.498 182.377 123.22 181.705V175.084ZM123.892 190.318L123.564 187.884C122.654 188.884 121.507 189.671 120.106 190.236C118.704 190.802 117.172 191.088 115.5 191.088C114.099 191.088 112.746 190.851 111.468 190.376C110.173 189.909 109.034 189.228 108.043 188.351C107.051 187.474 106.248 186.401 105.641 185.114C105.027 183.828 104.724 182.377 104.724 180.755C104.724 179.14 105.035 177.706 105.674 176.469C106.305 175.231 107.158 174.19 108.247 173.33C109.329 172.478 110.575 171.781 111.976 171.24C113.369 170.7 114.844 170.29 116.377 170.019C117.459 169.798 118.647 169.634 119.933 169.519C121.22 169.404 122.294 169.306 123.154 169.216V168.741C123.154 166.938 122.695 165.659 121.761 164.889C120.835 164.127 119.557 163.742 117.934 163.742C116.983 163.742 116.074 163.856 115.213 164.086C114.353 164.307 113.591 164.586 112.91 164.922C112.23 165.266 111.632 165.602 111.107 165.938C110.591 166.274 110.173 166.577 109.854 166.848L107.084 160.98C107.444 160.661 107.993 160.284 108.739 159.833C109.485 159.382 110.378 158.94 111.443 158.513C112.501 158.087 113.689 157.727 115.016 157.432C116.344 157.137 117.778 156.989 119.302 156.989C121.105 156.989 122.753 157.227 124.236 157.702C125.719 158.177 127.006 158.915 128.087 159.931C129.161 160.939 130.005 162.218 130.62 163.775C131.226 165.323 131.529 167.2 131.529 169.405V190.318H123.892Z" fill="#142C16"/>
<path d="M157.393 152.736C157.122 152.605 156.598 152.408 155.811 152.162C155.016 151.916 153.975 151.793 152.664 151.793C151.501 151.793 150.517 152.146 149.73 152.842C148.944 153.539 148.55 154.678 148.55 156.251V157.8H155.573V164.553H148.616V190.342H140.241V164.553H135.922V157.8H140.241V156.046C140.241 153.932 140.511 152.146 141.052 150.679C141.593 149.22 142.347 148.023 143.314 147.106C144.281 146.18 145.42 145.499 146.723 145.073C148.034 144.647 149.452 144.434 150.984 144.434C153.008 144.434 154.68 144.622 156.008 145.008C157.335 145.393 158.114 145.647 158.335 145.786L157.393 152.736Z" fill="#142C16"/>
<path d="M180.215 173.904C180.215 172.551 180.052 171.265 179.74 170.044C179.429 168.823 178.953 167.774 178.322 166.897C177.691 166.012 176.929 165.315 176.028 164.799C175.126 164.274 174.069 164.012 172.856 164.012C171.643 164.012 170.578 164.275 169.685 164.799C168.783 165.315 168.013 166.012 167.382 166.897C166.759 167.774 166.284 168.823 165.964 170.044C165.653 171.265 165.497 172.551 165.497 173.904C165.497 175.305 165.653 176.608 165.964 177.804C166.284 179.001 166.743 180.05 167.349 180.951C167.956 181.853 168.726 182.566 169.644 183.09C170.57 183.606 171.643 183.869 172.856 183.869C174.069 183.869 175.126 183.606 176.028 183.09C176.929 182.566 177.691 181.853 178.322 180.951C178.953 180.05 179.429 179.001 179.74 177.804C180.051 176.608 180.215 175.305 180.215 173.904ZM188.451 173.939C188.451 176.062 188.123 178.143 187.468 180.192C186.82 182.241 185.853 184.068 184.567 185.691C183.288 187.313 181.666 188.616 179.707 189.608C177.749 190.6 175.462 191.091 172.856 191.091C170.242 191.091 167.956 190.599 166.005 189.608C164.047 188.616 162.424 187.313 161.137 185.691C159.859 184.068 158.892 182.241 158.236 180.192C157.581 178.143 157.261 176.062 157.261 173.939C157.261 171.825 157.581 169.76 158.236 167.727C158.892 165.703 159.859 163.892 161.137 162.294C162.424 160.696 164.047 159.418 166.005 158.451C167.956 157.484 170.242 156.992 172.856 156.992C175.462 156.992 177.74 157.484 179.674 158.451C181.608 159.418 183.231 160.696 184.534 162.294C185.845 163.892 186.82 165.703 187.468 167.727C188.123 169.76 188.451 171.825 188.451 173.939Z" fill="#142C16"/>
<path d="M214.438 190.343V171.782C214.438 169.307 213.922 167.389 212.889 166.037C211.848 164.693 210.414 164.013 208.562 164.013C207.259 164.013 206.055 164.349 204.956 165.029C203.85 165.701 202.891 166.447 202.08 167.258V190.343H193.713V157.801H201.342L201.744 160.366C203.055 159.293 204.522 158.457 206.169 157.875C207.808 157.285 209.464 156.998 211.127 156.998C212.84 156.998 214.413 157.252 215.856 157.768C217.298 158.293 218.535 159.112 219.568 160.235C220.609 161.358 221.404 162.825 221.969 164.619C222.526 166.422 222.813 168.586 222.813 171.101V190.343H214.438Z" fill="#142C16"/>
<path d="M248.856 170.159C248.766 169.036 248.529 168.052 248.143 167.225C247.758 166.389 247.283 165.717 246.717 165.201C246.152 164.676 245.546 164.299 244.89 164.045C244.226 163.8 243.562 163.676 242.882 163.676C241.432 163.676 240.055 164.217 238.744 165.299C237.433 166.381 236.662 167.995 236.433 170.159H248.856ZM236.236 176.165C236.416 178.911 237.269 180.894 238.809 182.107C240.342 183.32 242.333 183.934 244.767 183.934C245.898 183.934 246.963 183.828 247.955 183.631C248.946 183.426 249.832 183.172 250.602 182.853C251.372 182.541 252.028 182.222 252.569 181.91C253.11 181.591 253.511 181.296 253.79 181.025L256.019 187.851C255.699 188.073 255.191 188.376 254.495 188.761C253.798 189.146 252.929 189.499 251.897 189.843C250.864 190.179 249.643 190.466 248.25 190.72C246.857 190.965 245.324 191.088 243.661 191.088C241.538 191.088 239.53 190.752 237.613 190.08C235.703 189.4 234.023 188.351 232.589 186.934C231.147 185.516 230 183.754 229.147 181.64C228.287 179.525 227.861 177.001 227.861 174.076C227.861 171.33 228.254 168.897 229.041 166.782C229.828 164.668 230.909 162.889 232.278 161.447C233.655 160.013 235.253 158.907 237.072 158.136C238.9 157.374 240.842 156.989 242.915 156.989C244.988 156.989 246.898 157.333 248.66 158.005C250.413 158.677 251.929 159.726 253.216 161.144C254.494 162.562 255.511 164.397 256.248 166.651C256.994 168.896 257.363 171.576 257.363 174.682V176.165H236.236Z" fill="#142C16"/>
</g>
<defs>
<clipPath id="clip0_58_8624">
<rect width="258" height="191" fill="white" transform="translate(0 0.433716)"/>
</clipPath>
</defs>
</svg>
