<svg width="130" height="29" viewBox="0 0 130 29" fill="none" xmlns="http://www.w3.org/2000/svg">
<mask id="mask0_58_8634" style="mask-type:luminance" maskUnits="userSpaceOnUse" x="0" y="0" width="130" height="29">
<path d="M130 0.5H0V28.5H130V0.5Z" fill="white"/>
</mask>
<g mask="url(#mask0_58_8634)">
<path d="M39.7289 0.76709C36.4256 0.968334 34.9922 2.52177 33.9169 3.62515C32.7643 4.80286 32.1239 7.28323 32.1239 7.28323V0.817648H19.245C18.272 0.817648 17.3496 1.21815 16.6583 2.17084C15.9417 3.09874 12.9972 7.86019 12.9972 7.86019H63.9263V0.76709H39.7289ZM103.845 0.76709C100.568 0.968334 99.1085 2.52177 98.0331 3.62515C96.8805 4.80286 96.2399 7.28323 96.2399 7.28323V7.86019H129.732V0.76709H103.845ZM65.1803 0.792865V7.86019H72.4275V0.792865H65.1803ZM88.943 0.792865V7.86019H96.1629V0.792865H88.943ZM12.6891 8.28646L0.245117 27.4344H8.74617L20.73 9.13804L12.6891 8.28646ZM65.2573 8.38658V18.6966C65.2461 18.4854 65.232 18.1861 65.232 18.1861C65.0526 17.1332 63.0041 12.4719 58.6 12.0704C55.9625 11.8196 32.4827 9.99058 32.4827 9.99058C32.9437 12.2965 33.9938 13.4742 34.7104 14.1255C36.3494 15.6542 38.9351 16.1062 38.9351 16.1062C39.5495 16.1558 57.0381 17.5843 57.0381 17.5843C57.6016 17.6091 58.6517 17.7598 58.6262 19.113C58.6262 19.2884 58.4723 20.4672 57.1403 20.4672H31.8166V9.94003L24.7752 9.4394C24.7499 9.4394 24.7499 27.4344 24.7499 27.4344H58.6C64.489 26.2815 65.1041 21.0183 65.1041 21.0183C65.2076 20.4433 65.2432 19.9368 65.2573 19.4877V20.943C66.4098 26.9574 71.9663 27.4344 71.9663 27.4344C71.9663 27.4344 72.53 27.4591 72.6322 27.484H89.1479C89.1479 27.484 96.2147 26.9327 96.2147 20.2659L96.1629 10.4169L89.0454 9.99058V18.1861C89.0454 18.1861 89.0192 20.5415 86.6898 20.5415H74.5013C74.5013 20.5415 72.4275 20.366 72.4275 18.2108V8.88822L65.2573 8.38658ZM96.6759 10.4169C97.367 12.7971 98.3147 13.5247 99.0315 14.1761C100.67 15.7295 103.102 16.0804 103.102 16.0804C103.717 16.131 121.385 17.5843 121.385 17.5843C121.948 17.6091 123.1 17.6597 123.1 19.0129C123.1 19.4143 122.896 19.8406 122.639 20.0656C122.639 20.0656 122.025 20.3918 121.436 20.3918H96.2916L96.2147 27.484H122.127C128.632 27.1082 129.553 21.0679 129.553 21.0679C129.783 19.4897 129.605 18.1861 129.605 18.1861C129.425 16.7575 127.351 12.4462 122.921 12.0209C120.31 11.7701 96.6759 10.4169 96.6759 10.4169Z" fill="#142C16"/>
</g>
</svg>
