<svg width="130" height="24" viewBox="0 0 130 24" fill="none" xmlns="http://www.w3.org/2000/svg">
<g clip-path="url(#clip0_58_8812)">
<mask id="mask0_58_8812" style="mask-type:luminance" maskUnits="userSpaceOnUse" x="0" y="0" width="130" height="23">
<path d="M130 0.53009H0V22.5301H130V0.53009Z" fill="white"/>
</mask>
<g mask="url(#mask0_58_8812)">
<path d="M28.908 0.700989L19.5 21.5695H22.9211L26.3422 13.8721H34.2107L37.6317 21.5695H41.2239L31.6448 0.700989H28.908ZM27.7106 10.7932L30.2764 4.97733L32.8422 10.7932H27.7106Z" fill="#142C16"/>
<path d="M75.9472 15.5835L64.3156 0.872864H61.4077V21.3993H64.6577V6.34658L76.6314 21.3993H79.0262V0.872864H75.9472V15.5835Z" fill="#142C16"/>
<path d="M86.04 0.872864H82.79V21.5704H86.04V0.872864Z" fill="#142C16"/>
<path d="M21.2107 11.1354C21.2107 10.6223 21.2107 10.1091 21.0396 9.59593H6.15793V12.5039H17.9606C17.2764 15.9249 14.1975 18.6618 10.4343 18.6618C6.15793 18.6618 2.90791 15.2407 2.90791 11.1354C2.90791 7.03013 6.32899 3.60906 10.4343 3.60906C13.0001 3.60906 15.0527 4.80643 16.5922 6.68802H20.1843C18.4738 3.0959 14.8817 0.53009 10.6053 0.53009C4.7895 0.53009 0 5.31959 0 11.1354C0 16.9513 4.7895 21.7408 10.6053 21.7408C16.079 21.7408 20.5264 17.8065 21.2107 12.5039C21.2107 12.1617 21.2107 11.6486 21.2107 11.1354Z" fill="#142C16"/>
<path d="M99.2108 0.53009C93.395 0.53009 88.6055 5.31959 88.6055 11.1354C88.6055 16.9513 93.395 21.7408 99.2108 21.7408C103.487 21.7408 107.079 19.1749 108.79 15.5828H105.198C103.829 17.4644 101.605 18.6618 99.0398 18.6618C94.7634 18.6618 91.5134 15.2407 91.5134 11.1354C91.5134 6.85908 94.9346 3.60906 99.0398 3.60906C102.803 3.60906 105.882 6.17486 106.566 9.76699H94.7634V12.6749H109.645C109.645 12.1617 109.816 11.6486 109.816 11.1354C109.816 10.6223 109.816 10.1091 109.645 9.59593C109.132 4.46432 104.684 0.53009 99.2108 0.53009Z" fill="#142C16"/>
<path d="M130 21.3985L125.039 13.0169C127.434 11.9905 128.974 10.109 128.974 7.20103C128.974 3.09574 125.553 0.700989 121.447 0.700989H112.553V21.3985H115.803V13.7011H121.447C121.618 13.7011 121.618 13.7011 121.789 13.7011L126.237 21.3985H130ZM115.803 3.77995H121.447C123.671 3.77995 125.382 4.80628 125.382 7.20103C125.382 9.59578 123.671 10.6221 121.447 10.6221H115.803V3.77995Z" fill="#142C16"/>
<path d="M58.6718 7.3729C58.6718 3.78078 55.7639 0.872864 52.1717 0.872864H42.0796V21.5704H45.3296V13.873H51.3165L55.7639 21.5704H59.6981L54.9086 13.3598C57.1323 12.3335 58.6718 9.93871 58.6718 7.3729ZM45.5006 3.78078H52.3428C54.2244 3.78078 55.7639 5.32026 55.7639 7.20185C55.7639 9.08344 54.2244 10.6229 52.3428 10.6229H45.5006V3.78078Z" fill="#142C16"/>
</g>
</g>
<defs>
<clipPath id="clip0_58_8812">
<rect width="130" height="23" fill="white" transform="translate(0 0.0300903)"/>
</clipPath>
</defs>
</svg>
