<svg width="82" height="68" viewBox="0 0 82 68" fill="none" xmlns="http://www.w3.org/2000/svg">
<mask id="mask0_58_8374" style="mask-type:luminance" maskUnits="userSpaceOnUse" x="0" y="0" width="82" height="68">
<path d="M82 0.5H0V67.5H82V0.5Z" fill="white"/>
</mask>
<g mask="url(#mask0_58_8374)">
<mask id="mask1_58_8374" style="mask-type:luminance" maskUnits="userSpaceOnUse" x="0" y="0" width="82" height="68">
<path d="M82 0.5H0V67.5H82V0.5Z" fill="white"/>
</mask>
<g mask="url(#mask1_58_8374)">
<mask id="mask2_58_8374" style="mask-type:luminance" maskUnits="userSpaceOnUse" x="0" y="0" width="82" height="68">
<path d="M82 0.5H0V67.5H82V0.5Z" fill="white"/>
</mask>
<g mask="url(#mask2_58_8374)">
<path d="M67.2968 47.5966H53.3349V19.753H57.9422V43.5786C57.9422 44.8791 59.0075 45.936 60.3166 45.936C61.6283 45.936 62.6911 44.8791 62.6911 43.5786L62.6886 38.7308H67.2968V47.5966ZM49.9826 29.0342C49.9826 30.4197 48.7608 32.878 46.9473 32.878C48.7608 32.878 49.9826 34.4353 49.9826 35.6144V43.96C49.9826 45.3795 48.8316 47.5966 45.3761 47.5966H36.1614V19.753H45.3761C47.1554 19.753 49.9826 21.208 49.9826 24.2896V29.0342ZM32.6709 42.7479C32.6709 45.5207 30.8566 48.0111 25.6892 48.0111C20.5233 48.0111 18.709 44.7561 18.709 42.7479V38.7308H23.3156L23.3181 43.5786C23.3181 44.8791 24.3825 45.936 25.6924 45.936C27.0032 45.936 28.0644 44.8461 28.0644 43.5456L28.0635 19.753H32.6709V42.7479ZM21.0127 30.4058C22.4841 30.4058 23.6776 31.5891 23.6776 33.0522C23.6776 34.5121 22.4841 35.697 21.0127 35.697C19.5396 35.697 18.347 34.5121 18.347 33.0522C18.347 31.5891 19.5396 30.4058 21.0127 30.4058ZM25.2714 19.753L21.0127 29.3794L16.754 19.753H25.2714ZM0 66.9888H81.5361V0.499512H0V66.9888ZM43.2821 22.3846H40.7687V31.7344L43.2821 31.7426C44.9574 31.7426 45.3761 31.4578 45.3761 27.0954C45.3761 22.7323 44.9574 22.3846 43.2821 22.3846ZM43.5609 34.0926H40.7687V45.3101L43.5609 45.3167C45.3761 45.3167 45.3761 44.0972 45.3761 39.7356C45.3761 35.3709 45.3761 34.0926 43.5609 34.0926Z" fill="#142C16"/>
</g>
</g>
</g>
</svg>
