<svg width="92" height="93" viewBox="0 0 92 93" fill="none" xmlns="http://www.w3.org/2000/svg">
<g clip-path="url(#clip0_58_8487)">
<mask id="mask0_58_8487" style="mask-type:luminance" maskUnits="userSpaceOnUse" x="0" y="0" width="92" height="93">
<path d="M92 0H0V93H92V0Z" fill="white"/>
</mask>
<g mask="url(#mask0_58_8487)">
<mask id="mask1_58_8487" style="mask-type:luminance" maskUnits="userSpaceOnUse" x="0" y="0" width="92" height="93">
<path d="M92 0.5H0V92.5H92V0.5Z" fill="white"/>
</mask>
<g mask="url(#mask1_58_8487)">
<mask id="mask2_58_8487" style="mask-type:luminance" maskUnits="userSpaceOnUse" x="0" y="0" width="92" height="93">
<path d="M92 0.5H0V92.5H92V0.5Z" fill="white"/>
</mask>
<g mask="url(#mask2_58_8487)">
<path fill-rule="evenodd" clip-rule="evenodd" d="M46 0.5L92 46.5L46 92.5L0 46.5L46 0.5ZM22.218 41.0885C20.8344 41.0899 19.5079 41.6403 18.5294 42.6185C17.551 43.5968 17.0005 44.9232 16.9988 46.3068C17.0003 47.6906 17.5506 49.0171 18.5291 49.9956C19.5076 50.9741 20.8343 51.5244 22.218 51.5259C23.6016 51.5242 24.928 50.9738 25.9063 49.9954C26.8845 49.0169 27.4348 47.6904 27.4363 46.3068C27.4346 44.9234 26.8842 43.597 25.906 42.6188C24.9278 41.6405 23.6015 41.0902 22.218 41.0885ZM73.8521 41.6985H64.9492V51.3677H66.6604V43.4098H72.14V51.3677H73.8512L73.8521 41.6985ZM58.3188 41.6985H49.415V51.3677H58.3188V49.6564H51.1272V47.3888H56.7263V45.6775H51.1272V43.4098H58.3188V41.6985ZM42.585 41.6314L37.7494 43.5653L32.9148 41.6314V51.3686H34.6261V44.1587L37.7494 45.408L40.8728 44.1587V51.3686H42.584L42.585 41.6314ZM22.2171 42.8375C23.137 42.8385 24.019 43.2042 24.6695 43.8546C25.3201 44.5049 25.6861 45.3869 25.6873 46.3068C25.6864 47.2269 25.3204 48.109 24.6699 48.7596C24.0193 49.4102 23.1371 49.7761 22.2171 49.7771C21.2973 49.7756 20.4157 49.4094 19.7655 48.7589C19.1153 48.1084 18.7497 47.2266 18.7487 46.3068C18.7502 45.3874 19.1161 44.506 19.7662 43.8559C20.4163 43.2058 21.2976 42.839 22.2171 42.8375Z" fill="#142C16"/>
</g>
</g>
</g>
</g>
<defs>
<clipPath id="clip0_58_8487">
<rect width="92" height="93" fill="white"/>
</clipPath>
</defs>
</svg>
