<svg width="130" height="21" viewBox="0 0 130 21" fill="none" xmlns="http://www.w3.org/2000/svg">
<g clip-path="url(#clip0_58_8533)">
<mask id="mask0_58_8533" style="mask-type:luminance" maskUnits="userSpaceOnUse" x="0" y="0" width="130" height="21">
<path d="M130 0H0V21H130V0Z" fill="white"/>
</mask>
<g mask="url(#mask0_58_8533)">
<mask id="mask1_58_8533" style="mask-type:luminance" maskUnits="userSpaceOnUse" x="0" y="0" width="130" height="21">
<path d="M130 0.5H0V20.5H130V0.5Z" fill="white"/>
</mask>
<g mask="url(#mask1_58_8533)">
<mask id="mask2_58_8533" style="mask-type:luminance" maskUnits="userSpaceOnUse" x="0" y="0" width="130" height="21">
<path d="M130 0.5H0V20.4432H130V0.5Z" fill="white"/>
</mask>
<g mask="url(#mask2_58_8533)">
<mask id="mask3_58_8533" style="mask-type:luminance" maskUnits="userSpaceOnUse" x="0" y="0" width="130" height="21">
<path d="M129.935 0.5H0V20.3527H129.935V0.5Z" fill="white"/>
</mask>
<g mask="url(#mask3_58_8533)">
<mask id="mask4_58_8533" style="mask-type:luminance" maskUnits="userSpaceOnUse" x="0" y="0" width="130" height="21">
<path d="M129.924 0.5H0V20.3527H129.924V0.5Z" fill="white"/>
</mask>
<g mask="url(#mask4_58_8533)">
<mask id="mask5_58_8533" style="mask-type:luminance" maskUnits="userSpaceOnUse" x="-10" y="-10" width="150" height="41">
<path d="M-9.95068 -9.42896H139.883V30.2794H-9.95068V-9.42896Z" fill="white"/>
</mask>
<g mask="url(#mask5_58_8533)">
<path d="M123.354 9.21952V11.922H125.257V14.6033C125.263 14.8429 125.25 15.1014 125.209 15.3081C125.133 15.8083 124.657 16.6598 123.306 16.6598C121.962 16.6598 121.495 15.8083 121.414 15.3081C121.38 15.1014 121.365 14.8429 121.365 14.6033V6.13439C121.365 5.83484 121.385 5.50696 121.449 5.25878C121.541 4.80741 121.942 3.91727 123.296 3.91727C124.716 3.91727 125.071 4.85572 125.152 5.25878C125.206 5.52575 125.209 5.97356 125.209 5.97356V7.00192H129.886V6.39399C129.886 6.39399 129.908 5.75964 129.851 5.16764C129.499 1.6916 126.629 0.591845 123.337 0.591845C120.039 0.591845 117.227 1.70183 116.817 5.16764C116.78 5.48458 116.723 6.0547 116.723 6.39399V14.1845C116.723 14.5238 116.734 14.7866 116.797 15.4067C117.103 18.787 120.039 19.9853 123.324 19.9853C126.629 19.9853 129.545 18.787 129.855 15.4067C129.911 14.7866 129.916 14.5238 129.924 14.1845V9.21952H123.354ZM91.1003 1.09033H86.4028V14.7987C86.4104 15.0377 86.4028 15.3061 86.3618 15.5027C86.2637 15.963 85.8728 16.8486 84.5767 16.8486C83.2975 16.8486 82.8964 15.963 82.8057 15.5027C82.7588 15.3061 82.7528 15.0377 82.7588 14.7987V1.09033H78.0627V14.3733C78.0568 14.7157 78.0837 15.4152 78.104 15.5984C78.428 19.0597 81.1623 20.1835 84.5767 20.1835C87.9977 20.1835 90.7303 19.0597 91.0606 15.5984C91.0865 15.4152 91.1206 14.7157 91.1003 14.3733V1.09033ZM47.9397 1.09033L45.5963 15.5751L43.2545 1.09033H35.6774L35.2755 19.6206H39.9174L40.0431 2.46655L43.2372 19.6206H47.947L51.1438 2.46655L51.27 19.6206H55.9236L55.5082 1.09033H47.9397ZM19.8849 1.09033L16.4444 19.6206H21.4618L24.0543 2.46655L26.5848 19.6206H31.5671L28.141 1.09033H19.8849ZM107.517 16.0093L103.143 1.09033H96.2504V19.4274H100.81L100.545 4.03103L105.243 19.4274H111.853V1.09033H107.264L107.517 16.0093ZM65.3418 5.91288C65.2592 5.54693 65.2831 5.15814 65.3257 4.95493C65.4586 4.36176 65.8581 3.71479 67.0091 3.71479C68.082 3.71479 68.7108 4.38197 68.7108 5.38323V6.51628H73.2898V5.22476C73.2898 1.23214 69.7018 0.604932 67.1043 0.604932C63.8325 0.604932 61.1606 1.68089 60.6728 4.68511C60.5437 5.50268 60.5118 6.22839 60.7171 7.15444C61.5126 10.9003 68.0492 11.987 68.9979 14.3559C69.1654 14.8046 69.1174 15.377 69.032 15.714C68.8899 16.3306 68.4742 16.9506 67.2419 16.9506C66.0861 16.9506 65.3904 16.2877 65.3904 15.2886L65.389 13.5103H60.4602V14.9239C60.4602 19.02 63.6761 20.2559 67.1398 20.2559C70.4571 20.2559 73.1969 19.125 73.6364 16.0593C73.846 14.4753 73.688 13.4437 73.6038 13.0551C72.8358 9.21308 65.8691 8.05742 65.3418 5.91288ZM4.93689 5.86743C4.84697 5.49388 4.86795 5.09959 4.91803 4.89403C5.04494 4.3037 5.44679 3.64531 6.61804 3.64531C7.70441 3.64531 8.34406 4.31892 8.34406 5.32827V6.47512H12.9769V5.17337C12.9769 1.14244 9.33405 0.5 6.70797 0.5C3.40883 0.5 0.713105 1.59262 0.219892 4.6185C0.0849042 5.44913 0.0617625 6.17983 0.256854 7.11613C1.06107 10.9046 7.66218 12.0001 8.62261 14.3973C8.80245 14.8429 8.74807 15.4152 8.65887 15.7655C8.50648 16.3883 8.08743 17.0173 6.84485 17.0173C5.68458 17.0173 4.99056 16.343 4.99056 15.33L4.9841 13.5469H0V14.9639C0 19.1067 3.26144 20.3527 6.75208 20.3527C10.108 20.3527 12.8638 19.2117 13.3134 16.1107C13.5369 14.5122 13.3692 13.472 13.2938 13.0775C12.5099 9.18834 5.46563 8.03649 4.93689 5.86743Z" fill="#142C16"/>
</g>
</g>
</g>
</g>
</g>
</g>
</g>
<defs>
<clipPath id="clip0_58_8533">
<rect width="130" height="21" fill="white"/>
</clipPath>
</defs>
</svg>
