<svg width="127" height="47" viewBox="0 0 127 47" fill="none" xmlns="http://www.w3.org/2000/svg">
<g clip-path="url(#clip0_58_8485)">
<path d="M0.838379 16.456V23.198L19.256 21.197V13.9L0.838379 16.456ZM6.71568 23.608V46.711H13.459V22.927L6.71568 23.608ZM21.743 13.555V46.711H28.848V12.568L21.743 13.555ZM30.172 12.384V20.012L40.431 18.897V10.961L30.172 12.384ZM30.172 25.689V33.455L36.906 33.092V25.116L30.172 25.689ZM30.172 39.053V46.711H40.431V38.747L30.172 39.053ZM66.964 7.26703V46.711H76.278V5.97403L66.964 7.26703ZM78.017 5.73203V14.805L91.591 13.331V3.84804L78.017 5.73203ZM78.017 21.629V30.87L86.914 30.39V20.876L78.017 21.629ZM78.017 37.625V46.711H91.591V37.22L78.017 37.625ZM43.146 10.583V46.711H51.239V9.46004L43.146 10.583ZM52.75 38.38V46.711H64.498V38.03L52.75 38.38ZM122.022 3.40203C119.078 0.655028 114.762 -0.470967 110.041 0.198033V10.262C111.953 10.157 113.502 10.857 114.192 12.268C115.282 14.492 114.158 17.829 111.505 20.921C107.411 25.691 96.525 35.457 96.525 35.457L112.153 34.949C121.702 25.736 125.131 20.144 125.746 13.165C126.069 9.47203 124.712 5.91403 122.022 3.40203ZM126.297 46.711V36.181L94.598 37.124L126.297 46.711ZM94.598 37.124L94.602 46.711H126.297L94.598 37.124ZM108.219 0.424038C99.01 2.36104 94.488 9.05104 95.01 19.968L104.828 19.108C104.381 12.94 106.291 11.477 108.223 10.673L108.219 0.424038Z" fill="#142C16"/>
</g>
<defs>
<clipPath id="clip0_58_8485">
<rect width="127" height="47" fill="white"/>
</clipPath>
</defs>
</svg>
