<svg width="525" height="178" viewBox="0 0 525 178" fill="none" xmlns="http://www.w3.org/2000/svg">
<path d="M358.02 177.901C352.42 175.101 350.92 170.601 351.02 164.501C351.32 143.101 351.12 121.701 351.12 100.201C351.12 91.6007 354.22 88.6007 362.82 88.4007C364.62 88.4007 366.52 88.5007 368.32 88.4007C374.92 87.8007 379.12 90.6007 382.12 96.6007C386.82 106.401 392.22 115.801 398.22 125.301C398.22 117.001 398.22 108.601 398.22 100.301C398.22 91.5007 401.62 88.4007 410.92 88.4007C420.42 88.4007 423.62 91.4007 423.62 100.301C423.62 121.701 423.52 143.101 423.72 164.601C423.82 170.901 421.92 175.401 415.92 177.801C411.92 177.801 407.92 177.801 403.92 177.801C399.82 175.601 397.62 171.901 395.52 167.901C389.32 156.001 382.92 144.201 376.12 131.601C376.12 143.601 376.12 154.601 376.12 165.601C376.12 173.301 375.02 174.901 367.92 177.701C364.62 177.901 361.32 177.901 358.02 177.901Z" fill="#142C16"/>
<path d="M0.219653 113.001C1.51965 112.701 1.31965 111.501 1.41965 110.601C3.71965 98.2007 11.7197 91.7007 23.7197 89.6007C34.2197 87.8007 44.6197 87.8007 54.8197 91.2007C66.2197 95.0007 73.7197 107.201 72.2197 119.001C71.8197 121.801 70.2197 123.301 67.6197 123.401C61.4197 123.601 55.3197 123.601 49.1197 123.501C46.2197 123.401 44.7197 121.701 44.1197 118.801C43.7197 116.501 43.1197 114.301 42.3197 112.101C41.0197 108.601 38.7197 106.601 34.7197 107.001C30.5197 107.501 28.8197 110.301 28.3197 114.101C28.2197 115.101 28.1197 116.101 28.1197 117.101C28.1197 127.701 28.1197 138.401 28.1197 149.001C28.1197 150.601 28.4197 152.301 28.7197 153.901C29.4197 156.801 31.3197 158.401 34.2197 158.801C37.3197 159.201 39.8197 158.401 41.4197 155.501C42.2197 154.101 42.8197 152.501 43.2197 150.901C46.2197 140.801 46.2197 140.801 56.7197 140.801C59.9197 140.801 63.0197 140.801 66.2197 140.801C70.6197 140.701 72.5197 142.801 72.2197 147.301C71.3197 164.601 63.1197 173.801 45.9197 176.801C45.5197 176.901 45.3197 177.401 44.9197 177.701C38.6197 177.701 32.2197 177.701 25.9197 177.701C25.0197 175.801 23.0197 176.301 21.6197 176.001C10.7197 173.501 3.61965 167.401 1.41965 156.201C1.21965 155.101 1.71965 153.401 0.0196533 152.801C0.219653 139.601 0.219653 126.301 0.219653 113.001Z" fill="#142C16"/>
<path d="M459.92 177.901C455.52 175.701 453.92 172.301 454.52 167.401C456.52 151.501 453.12 137.001 443.52 123.801C438.02 116.301 434.02 107.801 429.42 99.8007C425.92 93.6007 428.52 88.9007 435.52 88.5007C436.02 88.5007 436.52 88.5007 437.02 88.5007C459.82 88.8007 454.22 85.8007 464.22 105.001C466.32 109.001 468.32 113.001 470.42 116.901C470.52 117.101 470.92 117.201 471.72 117.601C475.62 110.001 479.62 102.401 483.32 94.7007C485.32 90.4007 488.32 88.3007 493.12 88.5007C497.32 88.7007 501.42 88.4007 505.62 88.6007C513.42 88.9007 516.02 93.5007 512.22 100.201C504.92 113.001 497.52 125.801 490.02 138.601C488.12 141.901 487.12 145.201 487.22 149.001C487.42 155.101 486.92 161.301 487.42 167.401C487.72 172.201 486.32 175.701 482.12 178.001C474.62 177.901 467.22 177.901 459.92 177.901Z" fill="#142C16"/>
<path d="M224.12 0.30069C229.62 2.20069 231.42 5.90069 231.32 11.7007C231.02 31.1007 231.12 50.6007 231.22 70.0007C231.22 74.8007 230.32 78.7007 225.22 80.1007C217.72 82.1007 211.82 80.3007 209.02 75.1007C203.62 64.7007 198.32 54.1007 192.92 43.7007C192.22 42.3007 192.02 40.4007 190.12 39.7007L190.02 40.1007C191.62 50.8007 190.72 61.6007 190.72 72.4007C190.72 78.3007 187.12 80.5007 179.42 80.5007C172.52 80.4007 169.32 77.9007 169.22 71.8007C169.02 60.7007 169.12 49.6007 169.12 38.4007C169.12 29.6007 169.32 20.8007 169.02 12.0007C168.82 6.40069 170.62 2.50069 176.02 0.40069C180.02 0.40069 184.02 0.40069 188.02 0.40069C192.02 1.80069 194.12 4.90069 195.92 8.50069C200.32 17.6007 204.92 26.5007 209.62 35.8007C209.62 27.5007 209.82 19.7007 209.52 12.0007C209.32 6.10069 211.22 2.20069 216.92 0.40069C219.42 0.30069 221.72 0.30069 224.12 0.30069Z" fill="#142C16"/>
<path d="M100.22 177.901C99.8196 176.401 98.3196 176.701 97.3196 176.501C86.1196 173.801 80.5196 166.301 79.3196 155.401C77.7196 141.701 77.7196 127.901 79.0196 114.101C80.7196 96.2007 87.9196 89.7007 105.92 88.6007C110.62 88.3007 115.22 88.7007 119.72 89.9007C128.82 92.3007 134.62 98.1007 136.22 107.301C139.12 123.801 138.92 140.401 136.62 156.901C134.82 169.401 128.62 174.601 115.82 176.901C115.12 177.001 114.52 177.101 114.32 177.801C109.52 177.901 104.82 177.901 100.22 177.901ZM114.42 133.101C114.42 126.601 114.52 120.101 114.42 113.701C114.32 110.001 112.72 107.301 108.52 107.101C104.12 106.901 101.92 109.501 101.72 113.401C101.02 126.501 101.02 139.601 101.72 152.801C101.92 156.701 103.92 159.301 108.42 159.101C112.72 158.901 114.02 156.301 114.52 152.601C115.32 146.101 114.62 139.601 114.42 133.101Z" fill="#142C16"/>
<path d="M148.12 177.901C144.62 175.201 144.02 171.701 144.02 167.501C144.22 143.901 144.12 120.301 144.12 96.8007C144.12 90.4007 145.92 88.5007 152.42 88.4007C153.72 88.4007 155.12 88.5007 156.42 88.4007C161.42 88.1007 164.12 90.3007 164.92 95.3007C166.62 105.901 168.52 116.601 170.32 127.201C170.52 128.101 170.32 129.201 171.92 130.301C173.42 121.701 174.82 113.401 176.22 105.101C176.82 101.501 177.62 97.9007 178.12 94.3007C178.72 90.3007 181.12 88.6007 184.92 88.4007C187.12 88.3007 189.22 88.3007 191.42 88.4007C196.62 88.7007 198.52 90.6007 198.52 95.9007C198.62 120.601 198.42 145.401 198.62 170.101C198.62 174.401 196.32 176.201 193.22 177.901C191.92 177.901 190.52 177.901 189.22 177.901C185.62 175.301 185.02 171.701 185.12 167.501C185.32 155.601 185.22 143.601 185.22 131.701C184.32 133.101 183.82 134.601 183.52 136.101C181.72 146.901 179.82 157.701 178.22 168.501C177.62 172.601 176.32 176.001 172.32 177.801C171.32 177.801 170.32 177.801 169.32 177.801C166.42 175.301 165.12 172.101 164.72 168.401C164.12 163.501 163.12 158.601 162.32 153.701C161.02 146.101 159.62 138.501 158.22 131.001C157.52 143.401 157.32 155.701 157.62 168.001C157.72 172.701 156.62 175.901 152.32 177.901C150.82 177.901 149.52 177.901 148.12 177.901Z" fill="#142C16"/>
<path d="M319.02 0.30069C319.22 0.60069 319.32 1.00069 319.52 1.10069C333.12 4.70069 337.42 8.90069 338.52 22.8007C339.62 35.8007 339.92 49.0007 338.02 62.0007C336.32 73.1007 329.52 79.3007 318.32 80.1007C315.52 80.3007 312.62 80.3007 309.82 80.2007C297.82 79.5007 290.62 73.2007 289.12 61.4007C287.42 47.5007 287.42 33.6007 289.12 19.7007C290.42 9.20069 295.52 4.00069 306.02 1.40069C306.82 1.20069 307.72 1.40069 307.92 0.30069C311.72 0.30069 315.32 0.30069 319.02 0.30069ZM319.22 40.4007C319.22 34.8007 319.32 29.1007 319.22 23.5007C319.12 20.0007 317.82 17.3007 313.72 17.2007C309.62 17.2007 308.22 20.1007 308.22 23.5007C308.02 34.9007 308.02 46.3007 308.22 57.8007C308.32 61.2007 309.92 64.0007 314.02 63.8007C317.72 63.6007 319.12 61.1007 319.22 57.7007C319.22 52.0007 319.22 46.2007 319.22 40.4007Z" fill="#142C16"/>
<path d="M463.92 0.30069C468.82 2.40069 474.32 3.30069 478.32 7.30069C481.82 10.7007 483.12 14.6007 481.42 19.0007C479.02 25.6007 470.32 27.1007 465.32 22.0007C464.42 21.0007 463.72 19.8007 462.82 18.9007C460.32 16.5007 455.42 16.4007 453.22 18.6007C450.92 21.0007 451.52 24.5007 455.02 27.1007C459.92 30.8007 465.82 33.0007 471.12 36.0007C477.42 39.5007 482.62 44.0007 484.92 51.0007C489.02 62.6007 484.02 73.8007 472.72 78.0007C462.82 81.6007 452.82 81.4007 442.92 77.6007C438.92 76.1007 435.62 73.5007 433.12 70.1007C429.72 65.5007 430.52 59.7007 434.82 56.3007C439.32 52.9007 445.62 53.6007 448.92 58.3007C451.12 61.4007 453.42 64.1007 457.62 64.0007C459.82 63.9007 461.92 63.4007 463.02 61.2007C464.22 58.9007 463.32 57.0007 461.92 55.2007C460.22 52.9007 457.72 51.5007 455.22 50.1007C451.02 47.8007 446.62 45.7007 442.42 43.3007C433.32 38.0007 428.12 30.3007 429.82 19.4007C431.42 9.30069 438.42 4.20069 447.72 1.60069C448.72 1.30069 450.22 1.90069 450.62 0.30069C455.22 0.30069 459.62 0.30069 463.92 0.30069Z" fill="#142C16"/>
<path d="M70.2196 0.30069C79.3196 2.90069 84.7196 8.80069 85.7196 18.3007C86.6196 27.0007 87.0196 35.6007 81.5196 43.1007C80.0196 45.1007 80.1196 46.9007 80.6196 49.1007C82.3196 56.4007 83.9196 63.6007 85.5196 70.9007C86.5196 75.6007 84.7196 79.0007 80.9196 80.0007C75.7196 81.3007 71.9196 79.2007 70.8196 74.0007C69.4196 67.9007 68.5196 61.6007 67.2196 55.5007C66.8196 53.6007 67.4196 50.2007 64.6196 50.4007C62.1196 50.6007 63.3196 53.7007 63.3196 55.5007C63.1196 61.1007 63.3196 66.8007 63.2196 72.4007C63.1196 77.7007 60.5196 80.2007 55.6196 80.2007C50.7196 80.2007 48.3196 77.7007 48.3196 72.3007C48.3196 50.7007 48.4196 29.1007 48.2196 7.60069C48.2196 4.40069 49.8196 2.50069 51.4196 0.30069C57.5196 0.30069 63.9196 0.30069 70.2196 0.30069ZM71.3196 25.7007C71.3196 23.2007 71.3196 21.1007 70.1196 19.1007C68.8196 17.1007 66.8196 16.0007 64.6196 16.6007C62.4196 17.1007 63.1196 19.3007 63.1196 20.9007C63.0196 23.9007 63.0196 26.9007 63.1196 29.9007C63.2196 31.5007 62.0196 33.9007 64.8196 34.4007C67.3196 34.8007 69.3196 33.7007 70.5196 31.3007C71.4196 29.4007 71.2196 27.4007 71.3196 25.7007Z" fill="#142C16"/>
<path d="M367.02 0.30069C376.02 3.10069 381.22 9.00069 382.32 18.6007C383.32 27.4007 383.42 35.9007 377.92 43.4007C376.32 45.5007 376.82 47.4007 377.22 49.5007C378.72 56.3007 380.42 63.1007 381.92 69.9007C383.22 75.7007 381.42 79.3007 377.12 80.2007C371.52 81.4007 368.22 78.9007 367.02 72.8007C365.72 66.1007 364.42 59.5007 363.12 52.8007C362.92 51.6007 362.62 50.3007 361.12 50.4007C359.52 50.5007 359.62 52.0007 359.62 53.1007C359.62 59.6007 359.72 66.1007 359.52 72.5007C359.42 77.8007 357.02 80.1007 352.42 80.3007C347.52 80.5007 344.72 78.2007 344.72 73.3007C344.62 51.0007 344.72 28.8007 344.62 6.50069C344.62 3.60069 346.52 2.20069 347.92 0.30069C354.32 0.30069 360.62 0.30069 367.02 0.30069ZM368.02 25.4007C368.02 22.9007 367.82 20.4007 366.12 18.4007C364.82 16.9007 363.12 16.1007 361.22 16.6007C359.32 17.1007 359.72 19.0007 359.72 20.4007C359.62 23.6007 359.62 26.7007 359.72 29.9007C359.82 31.5007 358.72 33.9007 361.42 34.4007C363.92 34.8007 365.92 33.7007 367.02 31.3007C367.92 29.4007 368.02 27.4007 368.02 25.4007Z" fill="#142C16"/>
<path d="M523.92 13.3007C522.22 14.3007 521.42 16.5007 519.12 16.6007C513.22 16.9007 512.52 20.7007 512.52 25.6007C512.72 41.0007 512.42 56.5007 512.62 71.9007C512.72 80.9007 507.62 81.0007 501.52 80.0007C497.62 79.4007 497.32 75.9007 497.32 72.6007C497.32 57.2007 497.22 41.7007 497.42 26.3007C497.52 21.1007 496.72 17.4007 490.52 16.4007C486.02 15.7007 484.62 6.60069 488.02 2.40069C488.62 1.70069 489.32 1.00069 489.92 0.40069C500.12 0.40069 510.32 0.50069 520.62 0.30069C523.12 0.30069 524.32 0.50069 524.02 3.50069C523.62 6.70069 523.92 10.0007 523.92 13.3007Z" fill="#142C16"/>
<path d="M0.219604 28.2007C2.3196 26.1007 4.8196 25.4007 7.8196 25.4007C17.3196 25.6007 26.7196 25.4007 36.2196 25.5007C41.6196 25.5007 42.8196 26.9007 42.9196 32.4007C42.9196 38.4007 41.9196 39.7007 36.3196 39.8007C34.3196 39.9007 32.3196 39.8007 30.3196 39.8007C27.4196 39.8007 25.4196 41.2007 25.5196 44.2007C25.6196 46.9007 27.4196 48.3007 30.2196 48.2007C32.5196 48.2007 34.9196 48.3007 37.2196 48.2007C42.4196 48.1007 43.0196 51.4007 43.0196 55.5007C43.0196 59.4007 42.4196 62.4007 37.5196 62.4007C27.0196 62.4007 16.5196 62.4007 6.0196 62.5007C3.6196 62.5007 2.0196 61.3007 0.219604 60.1007C0.219604 57.1007 0.219604 54.1007 0.219604 51.1007C2.2196 48.9007 4.5196 48.0007 7.6196 48.1007C11.0196 48.2007 15.9196 49.5007 16.0196 44.1007C16.1196 38.7007 11.3196 39.7007 7.8196 39.7007C4.8196 39.8007 2.3196 39.2007 0.219604 37.1007C0.219604 34.2007 0.219604 31.2007 0.219604 28.2007Z" fill="#142C16"/>
<path d="M41.2196 0.300676C44.4196 4.20068 42.7196 8.90068 42.8196 13.2007C43.1196 23.8007 43.5196 22.2007 33.8196 22.3007C24.5196 22.4007 15.2196 22.3007 5.91962 22.3007C3.91962 22.3007 1.91962 22.4007 0.219615 21.3007C0.219615 16.3007 0.619615 11.3007 0.119615 6.30068C-0.480385 1.10068 1.11962 -0.799324 6.21962 0.300676C9.71962 1.50068 9.31961 4.40068 9.21961 7.20068C9.11961 9.70068 9.31962 11.9007 12.6196 11.9007C15.8196 12.0007 16.7196 10.3007 16.3196 7.50068C15.9196 4.10068 17.4196 2.80068 20.8196 2.80068C24.4196 2.80068 25.6196 4.20068 25.2196 7.60068C24.8196 10.9007 26.5196 11.9007 29.6196 11.9007C32.9196 11.9007 34.5196 10.8007 34.2196 7.30068C34.0196 4.80068 33.5196 2.00068 36.2196 0.300676C37.9196 0.300676 39.5196 0.300676 41.2196 0.300676Z" fill="#142C16"/>
<path d="M12.3196 79.0007C11.1196 79.2007 10.1196 79.7007 9.51958 80.8007C6.51958 86.1007 5.01958 86.4007 0.31958 83.1007C0.31958 77.4007 0.31958 71.8007 0.31958 66.1007C4.21958 65.1007 8.31958 62.9007 9.81958 69.4007C10.3196 71.4007 12.8196 71.0007 14.6196 71.0007C22.4196 71.0007 30.1196 71.0007 37.9196 71.0007C39.9196 71.0007 42.1196 70.8007 42.7196 73.4007C43.2196 75.7007 43.4196 78.1007 40.3196 78.9007C30.9196 77.6007 21.6196 77.5007 12.3196 79.0007Z" fill="#142C16"/>
<path d="M156.12 0.30069C156.22 0.40069 156.22 0.70069 156.42 0.70069C162.32 3.00069 164.12 6.00069 163.22 12.0007C162.52 16.5007 159.22 18.8007 153.72 18.8007C149.22 18.8007 145.52 17.4007 144.22 12.6007C142.72 6.80069 144.82 3.30069 150.92 0.80069C151.02 0.80069 151.12 0.50069 151.12 0.40069C152.82 0.30069 154.52 0.30069 156.12 0.30069Z" fill="#142C16"/>
<path d="M241.92 1.20069C242.12 0.90069 242.22 0.60069 242.12 0.30069C255.82 0.30069 269.42 0.30069 283.12 0.30069C283.02 0.50069 282.92 0.70069 282.92 1.00069C282.92 1.10069 283.02 1.20069 283.12 1.30069C269.32 1.30069 255.62 1.30069 241.92 1.20069Z" fill="#142C16"/>
<path d="M390.72 1.20069C390.82 0.90069 390.92 0.60069 391.02 0.30069C402.32 0.30069 413.72 0.30069 425.02 0.30069C425.02 0.60069 425.12 0.90069 425.12 1.30069C413.62 1.20069 402.12 1.20069 390.72 1.20069Z" fill="#142C16"/>
<path d="M205.82 132.501C205.82 121.401 205.82 110.201 205.82 99.1007C205.82 91.4007 209.12 88.0007 216.62 88.1007C233.22 88.4007 249.92 86.6007 266.32 90.1007C277.02 92.4007 286.72 96.7007 289.32 108.601C293.12 126.001 286.82 137.001 271.52 141.901C263.22 144.601 254.62 145.001 245.92 145.301C239.22 145.501 238.62 146.101 238.62 152.901C238.62 157.701 238.72 162.501 238.62 167.301C238.42 173.501 235.32 176.801 229.12 177.101C224.52 177.301 219.82 177.301 215.12 177.101C208.82 176.801 205.92 173.601 205.82 167.201C205.72 161.401 205.82 155.601 205.82 149.801C205.82 144.101 205.82 138.301 205.82 132.501ZM238.72 116.701C238.72 118.401 238.72 120.001 238.72 121.701C238.82 126.701 240.42 128.101 245.42 127.701C246.72 127.601 248.02 127.401 249.32 127.101C255.92 125.801 258.52 121.701 257.52 114.701C256.62 108.601 251.82 105.501 243.62 106.001C236.52 106.401 239.22 111.901 238.62 115.701C238.62 116.001 238.72 116.301 238.72 116.701Z" fill="#142C16"/>
<path d="M316.22 88.3007C334.02 88.4007 330.32 86.5007 333.62 102.601C338.22 125.201 342.42 147.901 346.72 170.501C347.72 175.701 346.52 177.201 341.22 177.401C338.52 177.501 335.92 177.401 333.22 177.401C326.62 177.401 326.02 176.801 325.02 170.101C324.02 163.001 315.82 159.201 309.62 162.901C307.32 164.301 307.22 166.701 306.92 169.001C305.72 177.401 305.72 177.401 297.32 177.401C283.92 177.401 284.02 177.401 286.62 164.301C291.12 141.201 295.62 118.101 299.72 94.9007C300.62 89.9007 302.82 88.0007 307.62 88.4007C310.62 88.5007 313.42 88.3007 316.22 88.3007ZM316.12 112.401C314.72 121.401 313.42 129.301 312.22 137.101C311.92 139.201 311.42 141.401 313.72 142.901C315.22 143.901 316.82 143.901 318.42 142.901C320.72 141.401 320.22 139.201 319.92 137.101C318.72 129.201 317.52 121.401 316.12 112.401Z" fill="#142C16"/>
<path d="M132.62 80.3007C131.42 80.3007 130.32 80.2007 129.12 80.3007C125.22 80.7007 123.52 79.1007 123.02 75.1007C122.02 66.9007 119.22 65.3007 111.02 67.0007C107.92 67.7007 107.82 70.1007 107.42 72.3007C106.02 80.3007 106.02 80.3007 98.3197 80.3007C87.6197 80.3007 87.8197 80.3007 89.7197 69.7007C93.6197 48.7007 97.5197 27.7007 101.12 6.60067C101.82 2.40067 103.42 0.400671 107.92 0.700671C112.72 1.00067 117.62 1.00067 122.42 0.700671C126.62 0.500671 128.22 2.30067 128.92 6.30067C132.92 28.7007 137.12 51.0007 141.12 73.3007C142.22 79.9007 141.52 80.3007 132.62 80.3007ZM115.32 23.7007C115.12 23.7007 114.92 23.8007 114.82 23.8007C113.72 31.0007 112.72 38.1007 111.62 45.3007C111.22 47.8007 111.92 49.7007 114.62 50.1007C117.02 50.4007 118.62 49.0007 118.32 46.6007C117.42 39.0007 116.32 31.4007 115.32 23.7007Z" fill="#142C16"/>
<path d="M241.92 1.20068C255.62 1.20068 269.32 1.30068 283.02 1.30068C289.02 3.30068 286.92 8.40068 286.72 12.2007C286.52 16.0007 283.42 17.1007 279.82 17.1007C276.02 17.0007 272.12 17.1007 268.32 17.1007C263.82 17.1007 262.32 19.8007 262.22 23.9007C262.12 29.2007 263.72 31.7007 268.12 32.0007C271.12 32.2007 274.12 32.0007 277.12 32.1007C282.22 32.4007 282.52 36.0007 282.52 40.0007C282.52 44.0007 282.62 48.0007 277.12 48.4007C274.92 48.6007 272.82 48.4007 270.62 48.4007C263.82 48.5007 262.22 50.1007 262.22 57.1007C262.22 62.6007 262.12 68.1007 262.32 73.5007C262.42 78.1007 260.52 80.3007 255.82 80.3007C252.12 80.3007 248.52 80.3007 244.82 80.3007C239.12 80.2007 237.72 78.9007 237.72 73.2007C237.62 57.6007 237.72 42.0007 237.72 26.4007C237.72 20.1007 237.72 13.8007 237.72 7.50068C237.82 4.60068 238.12 1.70068 241.92 1.20068Z" fill="#142C16"/>
<path d="M390.72 1.20068C402.12 1.20068 413.62 1.30068 425.02 1.30068C430.02 4.70068 427.72 9.80068 427.22 14.0007C426.72 17.8007 422.62 16.9007 419.72 17.0007C418.02 17.0007 416.42 17.0007 414.72 17.0007C408.02 17.0007 405.02 21.7007 407.72 27.9007C408.42 29.4007 409.42 30.3007 411.12 30.4007C411.92 30.4007 412.82 30.5007 413.62 30.5007C424.42 30.7007 425.02 31.4007 424.12 42.5007C423.92 45.5007 422.52 47.1007 419.52 47.2007C418.22 47.2007 416.82 47.2007 415.52 47.2007C408.02 47.2007 407.32 47.9007 407.32 55.4007C407.32 63.6007 407.82 64.1007 416.12 64.1007C416.82 64.1007 417.42 64.1007 418.12 64.1007C428.12 64.1007 430.22 66.9007 428.12 76.8007C427.52 79.4007 425.92 80.3007 423.42 80.3007C413.22 80.3007 403.12 80.3007 392.92 80.3007C389.32 80.3007 387.92 78.4007 387.92 75.0007C387.92 51.9007 387.92 28.8007 387.92 5.70068C387.92 3.70068 388.12 1.70068 390.72 1.20068Z" fill="#142C16"/>
<path d="M144.02 52.2007C144.02 45.6007 143.92 38.9007 144.02 32.3007C144.12 26.4007 147.42 23.5007 153.62 23.5007C159.92 23.5007 163.12 26.3007 163.22 32.3007C163.32 45.4007 163.32 58.5007 163.22 71.6007C163.22 77.7007 160.22 80.2007 153.62 80.2007C147.12 80.2007 144.12 77.6007 144.02 71.5007C143.92 65.1007 144.02 58.7007 144.02 52.2007Z" fill="#142C16"/>
<path d="M12.3196 79.0007C21.6196 77.6007 30.9196 77.7007 40.2196 78.9007C30.9196 78.9007 21.6196 78.9007 12.3196 79.0007Z" fill="#142C16"/>
<path d="M190.12 40.0007L190.22 39.6007C190.22 39.7007 190.12 40.0007 190.12 40.0007Z" fill="#142C16"/>
</svg>
