<svg width="168" height="42" viewBox="0 0 168 42" fill="none" xmlns="http://www.w3.org/2000/svg">
<g clip-path="url(#clip0_58_8640)">
<mask id="mask0_58_8640" style="mask-type:luminance" maskUnits="userSpaceOnUse" x="0" y="0" width="168" height="42">
<path d="M168 0H0V42H168V0Z" fill="white"/>
</mask>
<g mask="url(#mask0_58_8640)">
<path d="M124.794 40.917V27.6506H119.85V25.699H132.082V27.6506H127.137V40.917H124.794Z" fill="#142C16"/>
<path d="M138.738 40.917V25.699H141.246L145.721 34.7368L147.151 37.9431H147.221C147.174 37.1686 147.104 36.3477 147.01 35.4803C146.932 34.6129 146.893 33.7688 146.893 32.9478V25.699H149.143V40.917H146.635L142.159 31.8791L140.73 28.6729H140.66C140.707 29.4628 140.769 30.2837 140.847 31.1356C140.941 31.972 140.988 32.8007 140.988 33.6216V40.917H138.738Z" fill="#142C16"/>
<path d="M157.861 40.917V25.699H160.181V38.9653H167.563V40.917H157.861Z" fill="#142C16"/>
<path d="M19.6421 40.917V25.699H23.5321C25.0631 25.699 26.3598 25.9855 27.4221 26.5586C28.5 27.1317 29.3202 27.9836 29.8826 29.1143C30.445 30.2295 30.7262 31.608 30.7262 33.2499C30.7262 34.8917 30.445 36.2857 29.8826 37.4319C29.3202 38.5781 28.5156 39.4455 27.4689 40.0341C26.4222 40.6227 25.149 40.917 23.6493 40.917H19.6421ZM21.9855 39.035H23.3915C24.4694 39.035 25.3677 38.8182 26.0864 38.3845C26.8206 37.9353 27.3752 37.2848 27.7501 36.4329C28.1251 35.581 28.3125 34.52 28.3125 33.2499C28.3125 31.9798 28.1251 30.9265 27.7501 30.0901C27.3752 29.2537 26.8206 28.6264 26.0864 28.2082C25.3677 27.79 24.4694 27.5809 23.3915 27.5809H21.9855V39.035Z" fill="#142C16"/>
<path d="M39.5748 40.917L34.7241 25.699H37.208L39.528 33.6216C39.7935 34.5045 40.0279 35.3409 40.231 36.1308C40.4341 36.9053 40.6684 37.734 40.934 38.6168H41.0277C41.3089 37.734 41.5511 36.9053 41.7541 36.1308C41.9729 35.3409 42.2072 34.5045 42.4571 33.6216L44.7536 25.699H47.1439L42.3166 40.917H39.5748Z" fill="#142C16"/>
<path d="M75.5648 41.1958C74.6117 41.1958 73.7212 41.0254 72.8933 40.6846C72.0809 40.3284 71.3623 39.8172 70.7374 39.1512C70.1281 38.4697 69.6438 37.641 69.2845 36.6652C68.9408 35.6894 68.769 34.5819 68.769 33.3428C68.769 31.6855 69.0736 30.2682 69.6829 29.0911C70.2921 27.8984 71.1201 26.9923 72.1668 26.3727C73.2135 25.7377 74.4086 25.4202 75.7518 25.4202C76.6898 25.4202 77.5248 25.6138 78.2598 26.001C78.9938 26.3727 79.5948 26.8064 80.0638 27.3021L78.7518 28.7658C78.3608 28.3476 77.9158 28.0223 77.4158 27.79C76.9318 27.5576 76.3768 27.4415 75.7518 27.4415C74.8461 27.4415 74.0493 27.6816 73.3619 28.1617C72.6746 28.6264 72.1356 29.2924 71.745 30.1598C71.3701 31.0272 71.1826 32.065 71.1826 33.2731C71.1826 34.4813 71.3701 35.5268 71.745 36.4096C72.1356 37.2925 72.6746 37.974 73.3619 38.4542C74.0649 38.9344 74.8773 39.1744 75.7988 39.1744C76.4708 39.1744 77.0718 39.035 77.6038 38.7562C78.1348 38.4619 78.6268 38.067 79.0798 37.5713L80.3918 38.9886C79.7988 39.6856 79.1028 40.2277 78.3068 40.6149C77.5098 41.0022 76.5958 41.1958 75.5648 41.1958Z" fill="#142C16"/>
<path d="M57.6039 41.1958C56.4323 41.1958 55.3934 40.886 54.4873 40.2664C53.5968 39.6314 52.8938 38.7253 52.3783 37.5481C51.8783 36.3554 51.6284 34.9227 51.6284 33.2499C51.6284 31.5925 51.8783 30.183 52.3783 29.0214C52.8938 27.8442 53.5968 26.9536 54.4873 26.3495C55.3934 25.7299 56.4323 25.4202 57.6039 25.4202C58.7756 25.4202 59.8067 25.7299 60.6971 26.3495C61.6032 26.9536 62.3062 27.8442 62.8062 29.0214C63.3217 30.183 63.5795 31.5925 63.5795 33.2499C63.5795 34.9227 63.3217 36.3554 62.8062 37.5481C62.3062 38.7253 61.6032 39.6314 60.6971 40.2664C59.8067 40.886 58.7756 41.1958 57.6039 41.1958ZM57.6039 39.1744C58.3226 39.1744 58.9474 38.9421 59.4786 38.4774C60.0098 37.9973 60.4238 37.3158 60.7206 36.4329C61.0174 35.55 61.1658 34.489 61.1658 33.2499C61.1658 32.0108 61.0174 30.9652 60.7206 30.1133C60.4238 29.246 60.0098 28.5877 59.4786 28.1385C58.9474 27.6738 58.3226 27.4415 57.6039 27.4415C56.8853 27.4415 56.2604 27.6738 55.7292 28.1385C55.1981 28.5877 54.7841 29.246 54.4873 30.1133C54.1904 30.9652 54.042 32.0108 54.042 33.2499C54.042 34.489 54.1904 35.55 54.4873 36.4329C54.7841 37.3158 55.1981 37.9973 55.7292 38.4774C56.2604 38.9421 56.8853 39.1744 57.6039 39.1744Z" fill="#142C16"/>
<path d="M86.6792 15.6072V0.38916H91.2492C92.2952 0.38916 93.2172 0.513073 94.0142 0.760897C94.8262 0.993234 95.4592 1.38047 95.9122 1.92258C96.3802 2.4647 96.6152 3.19269 96.6152 4.10654C96.6152 4.85002 96.3962 5.53153 95.9592 6.1511C95.5212 6.77066 94.8492 7.19661 93.9432 7.42895V7.52188C95.0532 7.69226 95.9122 8.07948 96.5212 8.68355C97.1302 9.28762 97.4352 10.1085 97.4352 11.1463C97.4352 12.1531 97.1852 12.9895 96.6852 13.6555C96.2012 14.3061 95.5212 14.794 94.6462 15.1193C93.7722 15.4445 92.7642 15.6072 91.6232 15.6072H86.6792ZM89.0222 6.7087H90.9672C92.1552 6.7087 93.0062 6.51509 93.5222 6.12786C94.0532 5.72515 94.3182 5.13656 94.3182 4.36211C94.3182 3.60315 94.0452 3.06877 93.4982 2.75899C92.9512 2.44921 92.1312 2.29432 91.0382 2.29432H89.0222V6.7087ZM89.0222 13.702H91.3422C92.5612 13.702 93.4982 13.4929 94.1542 13.0747C94.8102 12.641 95.1382 11.9517 95.1382 11.0069C95.1382 10.1395 94.8102 9.51996 94.1542 9.14822C93.5142 8.761 92.5762 8.56738 91.3422 8.56738H89.0222V13.702Z" fill="#142C16"/>
<path d="M104.284 15.6072V0.38916H113.939V2.34079H106.627V6.68547H112.814V8.63708H106.627V13.6555H114.173V15.6072H104.284Z" fill="#142C16"/>
<path d="M139.087 15.6072V0.38916H142.977C144.508 0.38916 145.805 0.675708 146.867 1.24881C147.945 1.8219 148.765 2.6738 149.328 3.8045C149.89 4.91972 150.171 6.29824 150.171 7.94009C150.171 9.58193 149.89 10.9759 149.328 12.1221C148.765 13.2683 147.961 14.1357 146.914 14.7243C145.868 15.3129 144.594 15.6072 143.095 15.6072H139.087ZM141.431 13.7252H142.837C143.915 13.7252 144.813 13.5084 145.532 13.0747C146.266 12.6255 146.82 11.975 147.195 11.1231C147.57 10.2712 147.758 9.21019 147.758 7.94009C147.758 6.66998 147.57 5.61673 147.195 4.78032C146.82 3.94391 146.266 3.3166 145.532 2.89839C144.813 2.48019 143.915 2.27109 142.837 2.27109H141.431V13.7252Z" fill="#142C16"/>
<path d="M161.985 15.886C160.892 15.886 159.861 15.6846 158.892 15.2819C157.924 14.8792 157.08 14.3293 156.361 13.6323L157.72 12.0524C158.314 12.5945 158.986 13.036 159.736 13.3767C160.486 13.702 161.282 13.8646 162.126 13.8646C163.095 13.8646 163.844 13.6633 164.376 13.2606C164.907 12.8579 165.172 12.3467 165.172 11.7272C165.172 11.2315 165.055 10.8365 164.821 10.5422C164.586 10.2479 164.266 10.0001 163.86 9.79876C163.469 9.59741 163.016 9.39605 162.501 9.19469L160.345 8.24211C159.829 8.04075 159.314 7.77744 158.798 7.45217C158.298 7.11141 157.884 6.68546 157.556 6.17432C157.228 5.64769 157.064 5.01264 157.064 4.26917C157.064 3.47922 157.283 2.77447 157.72 2.15491C158.158 1.51986 158.767 1.02421 159.548 0.667959C160.329 0.296221 161.228 0.110352 162.243 0.110352C163.196 0.110352 164.087 0.288476 164.915 0.644724C165.742 0.985484 166.453 1.44241 167.047 2.01551L165.828 3.50246C165.329 3.06876 164.782 2.73575 164.188 2.50341C163.61 2.25559 162.923 2.13167 162.126 2.13167C161.329 2.13167 160.681 2.3098 160.181 2.66605C159.681 3.0223 159.431 3.5102 159.431 4.12976C159.431 4.57895 159.556 4.94294 159.806 5.22174C160.072 5.50055 160.407 5.73288 160.814 5.91875C161.235 6.10462 161.665 6.29049 162.103 6.47636L164.188 7.38247C164.829 7.63029 165.399 7.93233 165.899 8.28858C166.414 8.62934 166.82 9.05529 167.117 9.56643C167.414 10.0776 167.562 10.7049 167.562 11.4483C167.562 12.2693 167.336 13.0205 166.883 13.702C166.446 14.368 165.805 14.9024 164.961 15.3051C164.133 15.6924 163.141 15.886 161.985 15.886Z" fill="#142C16"/>
<path fill-rule="evenodd" clip-rule="evenodd" d="M55.9874 0.38916L50.9258 15.6071H53.316L54.6364 11.2392H59.9753L61.2834 15.6071H63.7674L58.7057 0.38916H55.9874ZM59.4257 9.4038H55.1913L55.8234 7.31277C56.0734 6.47636 56.3155 5.63995 56.5498 4.80354C56.7998 3.95164 57.0341 3.09975 57.2529 2.24785H57.3466L58.0496 4.80354L58.7995 7.31277L59.4257 9.4038Z" fill="#142C16"/>
<path fill-rule="evenodd" clip-rule="evenodd" d="M69.4722 0.38916V15.6072H71.8155V9.42703H74.3256L77.815 15.6072H80.462L76.685 9.11726C76.88 9.0585 77.069 8.99137 77.252 8.91589C78.08 8.57513 78.728 8.064 79.197 7.38248C79.681 6.70096 79.924 5.83357 79.924 4.78032C79.924 3.69608 79.681 2.82869 79.197 2.17815C78.728 1.52761 78.08 1.07068 77.252 0.807365C76.424 0.528562 75.479 0.38916 74.4166 0.38916H69.4722ZM74.1354 7.54511H71.8155V2.24785H74.1354C75.26 2.24785 76.119 2.44147 76.713 2.82869C77.307 3.20043 77.604 3.85097 77.604 4.78032C77.604 5.70966 77.307 6.40667 76.713 6.87134C76.119 7.32052 75.26 7.54511 74.1354 7.54511Z" fill="#142C16"/>
<path fill-rule="evenodd" clip-rule="evenodd" d="M90.1938 25.699L85.1318 40.917H87.5228L88.8428 36.549H94.1818L95.4898 40.917H97.9738L92.9118 25.699H90.1938ZM93.6318 34.7136H89.3978L90.0298 32.6226C90.2798 31.7862 90.5218 30.9497 90.7558 30.1133C91.0058 29.2614 91.2408 28.4095 91.4588 27.5576H91.5528L92.2558 30.1133L93.0058 32.6226L93.6318 34.7136Z" fill="#142C16"/>
<path fill-rule="evenodd" clip-rule="evenodd" d="M107.401 25.699L102.339 40.917H104.729L106.05 36.549H111.389L112.697 40.917H115.181L110.119 25.699H107.401ZM110.839 34.7136H106.605L107.237 32.6226C107.487 31.7862 107.729 30.9497 107.963 30.1133C108.213 29.2614 108.447 28.4095 108.666 27.5576H108.76L109.463 30.1133L110.213 32.6226L110.839 34.7136Z" fill="#142C16"/>
<path fill-rule="evenodd" clip-rule="evenodd" d="M5.16564 25.6989L0.104004 40.9169H2.49422L3.81464 36.549H9.15354L10.4616 40.9169H12.9455L7.88393 25.6989H5.16564ZM8.60387 34.7135H4.36949L5.00161 32.6225C5.25156 31.7861 5.49371 30.9497 5.72805 30.1133C5.978 29.2614 6.21234 28.4095 6.43105 27.5576H6.52478L7.22779 30.1133L7.97766 32.6225L8.60387 34.7135Z" fill="#142C16"/>
<path d="M132.092 0.388184H119.903V2.33289H124.807V14.5567H119.903V16.5014H132.092V14.5567H127.189V2.33289H132.092V0.388184Z" fill="#142C16"/>
</g>
</g>
<defs>
<clipPath id="clip0_58_8640">
<rect width="168" height="42" fill="white"/>
</clipPath>
</defs>
</svg>
