<svg width="241" height="63" viewBox="0 0 241 63" fill="none" xmlns="http://www.w3.org/2000/svg">
<g clip-path="url(#clip0_2502_1464)">
<path d="M26.2064 1H0V2.12347C2.3347 3.5073 3.3741 5.14908 3.3741 11.7212V50.8092C3.3741 57.381 2.3347 59.0256 0 60.4071V61.5327H24.5572C25.1999 61.5327 25.8374 61.5202 26.4623 61.4978C26.7103 59.0177 26.9583 55.4147 27.1294 51.8256L27.2235 49.306C27.209 49.1672 27.1419 49.058 26.9755 49.2317C24.8473 51.4637 24.7434 51.1243 23.8579 50.8664C22.8653 50.5783 19.8892 49.4975 19.455 49.1896C19.0603 48.9166 19.1748 48.7705 19.626 48.5798C21.8581 47.6344 26.6307 45.5116 27.3004 45.2314C27.3235 45.2221 27.3425 45.2064 27.3563 45.186C27.3702 45.1656 27.3774 45.1419 27.3774 45.1175L27.432 43.6887C27.4333 43.6677 27.4294 43.6466 27.4208 43.6275C27.4116 43.6085 27.3978 43.5914 27.3813 43.5789C27.3642 43.5664 27.3438 43.5585 27.3228 43.5552C27.3024 43.5525 27.2807 43.5552 27.261 43.5624C26.0979 43.9966 20.174 46.4418 19.3057 46.7615C18.3485 47.1187 17.8176 47.0713 17.044 46.5457C16.4612 46.1418 14.5383 43.8821 14.2212 43.344C14.1022 43.1434 13.9732 42.9447 14.3548 42.8658C14.737 42.7862 26.2367 40.4502 27.4669 40.2193C27.4984 40.2153 27.5274 40.1995 27.5478 40.1752C27.5682 40.1508 27.5793 40.1199 27.5787 40.0877L27.6353 38.6891C27.6359 38.67 27.6326 38.651 27.6247 38.6339C27.6175 38.6161 27.6063 38.6003 27.5918 38.5878C27.578 38.5753 27.5609 38.5654 27.5432 38.5602C27.5247 38.5543 27.5057 38.5529 27.4866 38.5549C26.1696 38.7608 17.2197 40.3383 16.223 40.5021C15.1514 40.6784 14.9179 40.2686 14.5462 39.8002C14.1739 39.3312 12.9437 36.6156 12.7996 36.3676C12.5516 35.8992 12.524 35.6959 12.9707 35.6657C16.721 35.4177 26.4768 34.85 27.6879 34.773C27.7188 34.771 27.7484 34.7572 27.7701 34.7348C27.7918 34.7125 27.805 34.6829 27.807 34.6519L27.8563 33.3422C27.857 33.3244 27.8537 33.3067 27.8478 33.2896C27.8412 33.2731 27.8313 33.258 27.8188 33.2448C27.8063 33.2323 27.7912 33.2225 27.7747 33.2152C27.7583 33.2086 27.7405 33.2054 27.7221 33.206C26.465 33.2481 16.3914 33.5553 15.7191 33.533C15.0468 33.5106 14.7442 33.4363 14.3745 32.6554C14.0423 31.9561 13.6305 28.9498 13.5785 28.6202C13.5489 28.3722 13.5213 28.1689 13.9528 28.2505C17.3789 28.8833 26.6038 29.9076 27.8438 30.0609C27.8616 30.0635 27.8793 30.0615 27.8964 30.0563C27.9135 30.051 27.9293 30.0425 27.9431 30.0306C27.9563 30.0188 27.9675 30.005 27.9754 29.9885C27.9826 29.9727 27.9872 29.955 27.9879 29.9372L28.0346 28.732C28.0359 28.6998 28.0254 28.6689 28.0056 28.6445C27.9852 28.6195 27.9569 28.6031 27.926 28.5978C26.8689 28.434 18.4327 27.167 17.5078 26.996C16.5033 26.8124 16.327 26.6236 16.0915 25.8921C15.9303 25.3961 15.7586 22.9161 15.7566 22.6681C15.754 22.42 15.729 22.2293 16.1013 22.3404C21.8061 24.0048 27.055 25.3317 28.0076 25.5645C28.026 25.5691 28.0458 25.5691 28.0642 25.5652C28.0833 25.5612 28.1004 25.5533 28.1155 25.5415C28.1313 25.5303 28.1431 25.5152 28.1523 25.4981C28.1609 25.481 28.1655 25.4626 28.1661 25.4435L28.2109 24.2804C28.2128 24.2508 28.2043 24.2219 28.1872 24.1975C28.1701 24.1738 28.1451 24.1567 28.1168 24.1489C27.209 23.9008 20.3352 22.0602 19.7602 21.8694C19.1077 21.651 18.5597 21.3464 18.4354 20.5847C18.3294 19.6637 18.2893 18.7361 18.3163 17.8099C18.3413 17.4377 18.386 17.3385 18.6959 17.4895C21.2805 18.7671 27.0998 20.9445 28.1563 21.3386C28.176 21.3458 28.1964 21.3484 28.2168 21.3458C28.2372 21.3432 28.2569 21.3359 28.274 21.3247C28.2911 21.3136 28.305 21.2984 28.3155 21.2807C28.3253 21.2629 28.3313 21.2425 28.3326 21.2221L28.3747 20.0965C28.376 20.0702 28.3694 20.0439 28.3549 20.0216C28.3405 19.9992 28.3201 19.9821 28.2951 19.9722C27.5905 19.6821 22.6521 17.6632 21.8463 17.3087C21.0397 16.9541 20.9009 16.6863 20.8213 15.9596C20.7674 15.2482 20.7806 14.5332 20.8615 13.8243C20.9207 13.4126 20.8911 13.311 21.5187 13.683C22.7738 14.4269 27.3405 16.8078 28.3076 17.3087C28.3267 17.3188 28.3484 17.3238 28.3701 17.3234C28.3918 17.3229 28.4135 17.3169 28.4319 17.3061C28.451 17.2951 28.4668 17.2797 28.478 17.2611C28.4891 17.2425 28.4951 17.2214 28.4964 17.1997L28.5411 16.0911C28.5411 16.0668 28.5352 16.0429 28.5227 16.0219C28.5102 16.001 28.4924 15.9837 28.4714 15.972C27.9754 15.7091 25.0585 14.1443 24.3711 13.7673C23.483 13.2712 23.2304 12.9042 23.2106 12.4876C23.1863 11.8158 23.2165 11.1433 23.2994 10.4763C23.379 9.90086 23.508 9.82396 23.8875 10.1265C25.5348 11.441 27.7892 12.9166 28.4517 13.3506C28.4707 13.3629 28.4931 13.3699 28.5155 13.3708C28.5385 13.3718 28.5608 13.3668 28.5812 13.3562C28.601 13.3456 28.6181 13.3299 28.6306 13.3106C28.6424 13.2914 28.649 13.2692 28.6503 13.2464L28.6898 12.2545C28.6904 12.2344 28.6865 12.2144 28.6779 12.1963C28.6694 12.1781 28.6562 12.1623 28.6398 12.1503C28.2556 11.8428 25.815 10.0695 25.815 10.0695C25.642 9.91506 25.5302 9.70391 25.4999 9.47425C25.5256 8.85864 25.6085 8.24679 25.7479 7.64651C25.8374 7.3985 25.8894 7.26956 26.1571 7.53487C26.9287 8.3154 27.7412 9.05462 28.5905 9.74956C28.7266 9.86116 28.7793 9.88346 28.7793 9.76943C28.7793 8.63353 28.2609 6.37917 29.3845 5.75916C29.4029 5.74942 29.4233 5.74429 29.4437 5.74429C29.4647 5.74429 29.4851 5.74942 29.5035 5.75916C30.6271 6.37917 30.1107 8.63353 30.1107 9.76943C30.1107 9.88346 30.1607 9.86116 30.2969 9.74956C31.1475 9.05488 31.9606 8.3156 32.7329 7.53487C32.9986 7.26956 33.0526 7.40344 33.1375 7.64651C33.2809 8.24626 33.3684 8.85825 33.398 9.47425C33.3644 9.70364 33.2526 9.91426 33.0802 10.0695C33.0802 10.0695 30.6396 11.8428 30.2548 12.1503C30.239 12.1627 30.2265 12.1786 30.218 12.1967C30.2094 12.2147 30.2048 12.2345 30.2055 12.2545L30.2449 13.2464C30.2456 13.2692 30.2528 13.2914 30.2647 13.3106C30.2765 13.3299 30.2936 13.3456 30.314 13.3562C30.3344 13.3668 30.3568 13.3718 30.3791 13.3708C30.4021 13.3699 30.4245 13.3629 30.4436 13.3506C31.106 12.9216 33.3605 11.446 35.0077 10.1265C35.3873 9.82396 35.5162 9.90086 35.5951 10.4763C35.6774 11.1434 35.707 11.8158 35.6846 12.4876C35.6649 12.9042 35.4142 13.2812 34.5235 13.7673C33.8394 14.1443 30.9172 15.7091 30.4239 15.972C30.4022 15.9837 30.3844 16.001 30.3725 16.0219C30.36 16.0429 30.3541 16.0668 30.3541 16.0911L30.3962 17.1997C30.3975 17.2214 30.4041 17.2426 30.416 17.2611C30.4271 17.2796 30.4436 17.295 30.462 17.3059C30.4811 17.3166 30.5028 17.3226 30.5245 17.3231C30.5462 17.3236 30.5679 17.3187 30.587 17.3087C31.5521 16.8127 36.1214 14.4294 37.3792 13.683C38.0042 13.311 37.9739 13.4126 38.0338 13.8243C38.1134 14.5333 38.1265 15.2482 38.0732 15.9596C37.9963 16.6863 37.843 16.964 37.049 17.3087C36.255 17.6533 31.2942 19.6821 30.5995 19.9722C30.5752 19.9821 30.5541 19.9992 30.5403 20.0216C30.5258 20.0439 30.5192 20.0702 30.5206 20.0965L30.5653 21.2221C30.566 21.2425 30.5712 21.2629 30.5811 21.2807C30.591 21.2984 30.6048 21.3136 30.6219 21.3247C30.639 21.3366 30.658 21.3438 30.6784 21.3458C30.6988 21.3484 30.7192 21.3458 30.7383 21.3386C31.7955 20.9445 37.6174 18.7671 40.202 17.4895C40.5066 17.3385 40.554 17.4377 40.5763 17.8099C40.6053 18.7361 40.5665 19.6637 40.4599 20.5847C40.3382 21.3464 39.7876 21.651 39.135 21.8694C38.562 22.0602 31.6935 23.9055 30.7784 24.1489C30.7502 24.1567 30.7251 24.1738 30.708 24.1975C30.6909 24.2219 30.6824 24.2508 30.6837 24.2804L30.7284 25.4435C30.7291 25.4626 30.7344 25.4816 30.7429 25.4987C30.7521 25.5165 30.7646 25.531 30.7798 25.5428C30.7955 25.5547 30.8133 25.5626 30.8324 25.5665C30.8514 25.5704 30.8712 25.5698 30.8896 25.5645C31.8422 25.3165 37.0911 23.9975 42.7965 22.3404C43.1709 22.2293 43.1485 22.3904 43.1459 22.6681C43.1439 22.9457 42.9702 25.3961 42.8084 25.8921C42.5755 26.6236 42.3972 26.8124 41.392 26.996C40.4599 27.167 32.0237 28.434 30.9745 28.5978C30.9429 28.6024 30.9139 28.6189 30.8942 28.6439C30.8738 28.6689 30.8633 28.6998 30.8653 28.732L30.912 29.9372C30.9133 29.955 30.9179 29.9721 30.9258 29.9879C30.933 30.0043 30.9442 30.0181 30.9574 30.03C30.9712 30.0411 30.987 30.0503 31.0034 30.0556C31.0205 30.0609 31.0383 30.0628 31.056 30.0609C32.2961 29.9076 41.5216 28.8833 44.947 28.2505C45.3786 28.1689 45.349 28.3696 45.3213 28.6202C45.2819 28.9498 44.8602 31.9561 44.5253 32.6554C44.1556 33.4363 43.8629 33.5106 43.1781 33.533C42.4939 33.5553 32.4355 33.2481 31.1777 33.206C31.16 33.2054 31.1422 33.2086 31.1258 33.2152C31.1093 33.2225 31.0942 33.2323 31.0824 33.2455C31.0699 33.258 31.06 33.2731 31.0541 33.2902C31.0475 33.3067 31.0449 33.3244 31.0462 33.3422L31.0935 34.6519C31.0949 34.6835 31.1087 34.7131 31.131 34.7355C31.1534 34.7579 31.183 34.7717 31.2146 34.773C32.423 34.85 42.1788 35.4229 45.9265 35.6657C46.3759 35.6959 46.3535 35.8992 46.1002 36.3676C45.9614 36.6156 44.7161 39.3437 44.3464 39.8055C43.9767 40.2666 43.7412 40.683 42.6696 40.5067C41.6775 40.3436 32.723 38.7707 31.406 38.5602C31.3869 38.5575 31.3679 38.5595 31.3494 38.5648C31.3317 38.5707 31.3146 38.5799 31.3008 38.5931C31.2863 38.6056 31.2751 38.6214 31.2679 38.6385C31.26 38.6562 31.2567 38.6753 31.2573 38.6944L31.2994 40.0877C31.3001 40.1173 31.3106 40.1449 31.3297 40.1673C31.3488 40.1897 31.3744 40.2041 31.4034 40.2094C32.6309 40.4403 44.1556 42.7789 44.5175 42.8559C44.8799 42.9322 44.7661 43.1335 44.649 43.3341C44.3319 43.8723 42.417 46.1319 41.8262 46.5359C41.0651 47.0615 40.5244 47.1088 39.5665 46.7516C38.6962 46.4319 32.7724 43.9867 31.6119 43.5525C31.5915 43.5453 31.5698 43.5427 31.5488 43.546C31.5277 43.5486 31.508 43.5571 31.4902 43.5696C31.4731 43.5815 31.4593 43.5986 31.4494 43.6177C31.4402 43.6367 31.435 43.6578 31.4356 43.6788L31.4929 45.1077C31.4935 45.132 31.5014 45.1564 31.5152 45.1761C31.5297 45.1965 31.5494 45.2123 31.5718 45.2215C32.2369 45.5017 36.9996 47.6246 39.2468 48.5699C39.6955 48.7607 39.8099 48.9067 39.4152 49.1797C38.9712 49.4869 35.9997 50.5684 35.0149 50.8559C34.1321 51.1039 34.0229 51.4611 31.8948 49.2218C31.7356 49.0554 31.6685 49.1574 31.6468 49.2962L31.7382 51.8157C31.8968 55.1542 32.1349 58.4948 32.3533 60.9452C49.9032 58.1921 59.1604 45.8912 59.1604 29.7958C59.1604 13.2787 47.9159 1 26.2064 1Z" fill="#142C16"/>
<path d="M227.474 22.9795V22.6606H222.789V22.9795C223.46 23.3746 223.755 23.8423 223.755 25.7133V36.8443C223.755 38.7143 223.46 39.1821 222.789 39.5773V39.8998H227.474V39.5773C226.805 39.1821 226.509 38.7143 226.509 36.8443V32.0421H236.441V36.8443C236.441 38.7143 236.146 39.1821 235.476 39.5773V39.8998H240.16V39.5773C239.491 39.1821 239.192 38.7143 239.192 36.8443V25.7133C239.192 23.8423 239.491 23.3746 240.16 22.9795V22.6606H235.476V22.9795C236.146 23.3746 236.441 23.8423 236.441 25.7133V30.1472H226.509V25.7133C226.509 23.8423 226.805 23.3746 227.474 22.9795ZM214.578 39.5773C213.832 39.1618 213.488 38.6665 213.488 36.723V24.5315H215.579C218.281 24.5315 218.799 24.9267 219.517 25.8135L219.842 25.7133L219.319 22.4391C217.978 22.5927 216.631 22.6671 215.284 22.6606H208.943C207.594 22.6671 206.244 22.5927 204.904 22.4391L204.384 25.7133L204.705 25.8135C205.423 24.9267 205.946 24.5315 208.644 24.5315H210.752V36.723C210.752 38.6665 210.404 39.148 209.661 39.5773V39.8998H214.606L214.578 39.5773ZM197.383 22.9795C198.1 23.3985 198.473 23.8911 198.473 25.8374V33.1998C198.473 36.3517 196.765 38.1015 193.765 38.1015C190.646 38.1015 188.959 36.4005 188.959 33.3726V25.7133C188.959 23.8423 189.258 23.3746 189.927 22.9795V22.6606H185.258V22.9795C185.926 23.3746 186.226 23.8423 186.226 25.7133V33.5462C186.226 37.7789 188.874 40.2664 193.409 40.2664C197.944 40.2664 200.592 37.7549 200.592 33.1998V25.8512C200.592 23.9049 200.965 23.4261 201.684 22.9933V22.6744H197.397L197.383 22.9795ZM173.279 22.2664C167.73 22.2664 164.112 26.5274 164.112 31.4014C164.112 36.033 167.431 40.2664 173.303 40.2664C178.851 40.2664 182.469 36.0089 182.469 31.1313C182.469 26.5027 179.148 22.2664 173.279 22.2664ZM173.525 38.3716C169.86 38.3716 167.033 35.1948 167.033 30.8611C167.033 26.7241 169.437 24.1612 173.055 24.1612C176.673 24.1612 179.545 27.338 179.545 31.6716C179.545 35.8114 177.143 38.3716 173.525 38.3716ZM144.267 39.5773C143.497 39.2584 143.177 38.6665 143.424 36.7708L144.563 28.1999L150.214 39.6774H151.259L156.981 28.176L158.048 36.8681C158.271 38.7143 158.024 39.2584 157.306 39.5773V39.8998H162.01V39.5773C161.369 39.2307 161.094 38.7143 160.847 36.9683L158.867 22.463H157.602L151.137 35.7351L144.668 22.463H143.406L141.35 36.8681C141.103 38.6665 140.73 39.2096 140.012 39.5773V39.8998H144.274L144.267 39.5773ZM133.588 39.5773C132.846 39.1618 132.497 38.6665 132.497 36.723V24.5315H134.589C137.29 24.5315 137.809 24.9267 138.53 25.8135L138.851 25.7133L138.332 22.4391C136.991 22.5927 135.642 22.6671 134.292 22.6606H127.952C126.603 22.6671 125.255 22.5927 123.913 22.4391L123.394 25.7133L123.718 25.8135C124.436 24.9267 124.956 24.5315 127.657 24.5315H129.748V36.723C129.748 38.6665 129.399 39.148 128.657 39.5773V39.8998H133.588V39.5773ZM111.91 39.5773C111.363 39.307 110.942 38.7143 110.942 36.8443V24.4653H113.2C115.946 24.4653 117.337 25.5048 117.337 27.8158C117.337 29.8945 116.023 31.2113 113.52 31.2113H111.886V31.4602L112.653 33.0087H113.395C114.214 33.0087 114.461 33.2789 115.674 34.9072L118.772 39.0432C119.268 39.7086 119.612 39.9062 120.258 39.9062H123.307V39.5845C122.662 39.3383 122.167 38.9707 120.975 37.4434L118.846 34.7344C117.707 33.3064 117.085 32.5934 116.343 32.3094C118.894 31.6441 120.209 29.8457 120.209 27.6807C120.209 24.504 118.079 22.6818 113.471 22.6818H107.24V23.0006C107.787 23.2709 108.206 23.8626 108.206 25.7336V36.8645C108.206 38.7355 107.787 39.3282 107.24 39.5984V39.9199H111.924L111.91 39.5773ZM102.768 37.2385L96.0523 22.463H95.0626L88.3499 37.2385C87.6808 38.6942 87.3322 39.2345 86.6073 39.5773V39.8998H91.0684V39.5773C90.1762 39.2307 89.8765 38.6942 90.6711 36.8958L91.5877 34.7996H98.7221L99.6386 36.8958C100.43 38.6942 100.158 39.2345 99.3668 39.5773V39.8998H104.445V39.5773C103.8 39.2307 103.479 38.6942 102.81 37.2385H102.768ZM92.3789 33.0262L95.1671 26.7241L97.9553 33.0262H92.3789ZM76.6953 22.6606H69.1602V22.9795C69.8294 23.3746 70.129 23.8423 70.129 25.7133V36.8443C70.129 38.7143 69.8294 39.1821 69.1602 39.5773V39.8998H76.1969C82.7387 39.8998 86.1088 36.0577 86.1088 30.8125C86.1088 26.0836 82.8397 22.6606 76.6709 22.6606H76.6953ZM76.0017 38.0288H72.865V24.5177H76.2422C80.7487 24.5177 83.2127 26.7839 83.2127 31.4466C83.2127 35.51 80.9577 38.0013 76.0052 38.0013" fill="#142C16"/>
</g>
<defs>
<clipPath id="clip0_2502_1464">
<rect width="240.16" height="62.5327" fill="white"/>
</clipPath>
</defs>
</svg>
