<svg width="130" height="33" viewBox="0 0 130 33" fill="none" xmlns="http://www.w3.org/2000/svg">
<g clip-path="url(#clip0_58_8843)">
<mask id="mask0_58_8843" style="mask-type:luminance" maskUnits="userSpaceOnUse" x="0" y="0" width="130" height="33">
<path d="M130 0H0V33H130V0Z" fill="white"/>
</mask>
<g mask="url(#mask0_58_8843)">
<mask id="mask1_58_8843" style="mask-type:luminance" maskUnits="userSpaceOnUse" x="0" y="0" width="130" height="33">
<path d="M130 0.5H0V32.5H130V0.5Z" fill="white"/>
</mask>
<g mask="url(#mask1_58_8843)">
<mask id="mask2_58_8843" style="mask-type:luminance" maskUnits="userSpaceOnUse" x="0" y="0" width="130" height="33">
<path d="M129.5 0.5H0.5V32.5H129.5V0.5Z" fill="white"/>
</mask>
<g mask="url(#mask2_58_8843)">
<path d="M78.6124 9.62689C76.7314 9.62689 74.9064 10.1212 73.3021 11.0025C73.3021 6.27184 73.356 2.1479 73.4684 0.553223L63.6766 2.42315V3.30229L64.6171 3.41184C66.0006 3.57686 66.498 4.40261 66.6623 6.21638C66.939 9.73643 66.939 28.3781 66.6623 31.3462C69.4299 32.0063 72.1974 32.337 75.0168 32.3911C82.8172 32.3911 87.5196 27.6064 87.5196 20.0199C87.5196 13.9706 83.7018 9.62689 78.6124 9.62689ZM75.239 30.8519C74.6815 30.8512 74.1253 30.7957 73.5788 30.6862C73.4125 28.5972 73.3021 19.9624 73.358 12.376C74.0832 12.1104 74.8519 11.9801 75.624 11.9911C78.8325 11.9911 80.6596 15.7303 80.6596 20.3493C80.6051 26.3432 78.3916 30.8519 75.239 30.8519ZM26.7748 9.84598L25.2808 10.2308C23.8972 5.83157 21.7956 3.30229 17.811 3.30229H12.7236C12.503 6.16229 12.3927 10.8367 12.4468 15.7303L15.8759 15.6207C18.146 15.5653 19.0844 13.8604 19.6399 11.3852H20.9113V21.7782H19.6399C19.0864 19.249 18.1459 17.6002 15.8218 17.4907L12.3927 17.379C12.4468 21.1182 12.5592 24.2541 12.6694 26.1241C12.89 28.8724 13.6641 30.0823 15.6573 30.4116L17.3719 30.5766V31.8427H0.830078V30.5766L2.21373 30.4116C4.14884 30.1364 4.98105 28.9286 5.20164 26.1241C5.58866 21.5591 5.64283 12.1007 5.20164 6.82235C4.98105 4.07121 4.205 2.86341 2.21373 2.58816L0.830078 2.42315V1.21119H26.6645L26.7768 9.84389L26.7748 9.84598ZM35.0168 9.35163C42.3763 9.35163 45.9719 14.3013 45.9719 20.8436C45.9719 27.3873 41.8768 32.3911 34.5193 32.3911C27.1598 32.3911 23.5101 27.4435 23.5101 20.9553C23.5643 14.4109 27.6591 9.35163 35.0168 9.35163ZM34.6856 10.7813C31.4212 10.7813 30.5346 15.1264 30.5346 20.8991C30.5346 26.6718 31.9746 31.0176 34.9623 31.0176C37.9507 31.0176 39.1113 26.6718 39.1113 20.8991C39.1113 15.1243 37.6174 10.7813 34.6856 10.7813ZM89.3426 21.1182C89.3426 15.0709 93.1603 9.40571 100.739 9.40571C106.881 9.40571 109.813 13.9145 109.867 19.8549H96.1487C95.9824 25.2428 98.7473 29.2032 104.004 29.2032C106.272 29.2032 107.545 28.6533 108.983 27.6085L109.59 28.3781C108.1 30.4671 104.89 32.4466 100.687 32.4466C93.9932 32.3904 89.3446 27.7721 89.3446 21.1182H89.3426ZM96.1487 18.3137L103.007 18.1507C103.063 15.1243 102.566 10.7813 100.075 10.7813C97.6426 10.8367 96.2046 14.9052 96.1487 18.3157V18.3137ZM127.459 16.1692L126.353 16.4444C125.191 12.5971 123.364 10.9463 120.711 10.9463C118.941 10.9463 117.668 12.2664 117.668 14.1897C117.668 16.1151 119.107 17.1038 123.256 18.6985C127.405 20.2931 128.566 21.8878 128.566 24.9676C128.566 29.5879 125.025 32.3911 119.161 32.3911C116.506 32.3911 113.908 31.8961 111.417 31.0155L111.251 24.6369L112.357 24.3637C113.962 28.817 116.063 30.4116 118.83 30.4116C121.596 30.4116 122.48 28.7629 122.48 27.0025C122.48 25.2428 121.485 24.2521 117.724 22.934C113.962 21.6146 111.748 20.1836 111.748 16.3363C111.748 12.4855 115.068 9.35163 120.599 9.35163C123.146 9.35163 125.579 9.7905 127.237 10.5081L127.459 16.1692ZM62.7341 16.0056C59.7464 14.0261 56.5379 14.9052 55.9279 15.9494C55.7071 19.8549 55.7637 23.8132 55.9838 27.7187C56.1508 29.5325 56.7042 30.3576 58.0297 30.5212L59.8023 30.6328V31.8961H46.192V30.6328L47.1325 30.5212C48.5166 30.3576 49.0134 29.5325 49.1784 27.7187C49.455 23.488 49.455 19.2448 49.1784 15.0148C49.0134 13.201 48.4601 12.376 47.1325 12.2102L46.19 12.1007V11.2215L55.9838 9.35163L55.8741 14.4109C58.1401 9.18662 62.6782 8.4711 65.1125 9.95553L62.7341 16.0056Z" fill="#142C16"/>
</g>
</g>
</g>
</g>
<defs>
<clipPath id="clip0_58_8843">
<rect width="130" height="33" fill="white"/>
</clipPath>
</defs>
</svg>
