<svg width="102" height="97" viewBox="0 0 102 97" fill="none" xmlns="http://www.w3.org/2000/svg">
<mask id="mask0_58_8457" style="mask-type:luminance" maskUnits="userSpaceOnUse" x="0" y="0" width="102" height="97">
<path d="M102 0.5H0V96.5H102V0.5Z" fill="white"/>
</mask>
<g mask="url(#mask0_58_8457)">
<mask id="mask1_58_8457" style="mask-type:luminance" maskUnits="userSpaceOnUse" x="0" y="0" width="102" height="97">
<path d="M102 0.5H0V96.5H102V0.5Z" fill="white"/>
</mask>
<g mask="url(#mask1_58_8457)">
<path d="M25.04 1.3562H34.5436V50.2963H25.04V1.3562Z" fill="#142C16"/>
<path d="M65.6338 25.9355H75.1374V50.2964H65.6338V25.9355Z" fill="#142C16"/>
<path d="M25.04 42.1274H74.336V50.2962H25.04V42.1274Z" fill="#142C16"/>
<path d="M25.04 1.3562H49.6977V9.52456H25.04V1.3562Z" fill="#142C16"/>
<path d="M14.9261 71.8255H19.1193V75.7878C19.0796 75.8375 19.015 75.9119 18.9257 76.0113C18.8413 76.1056 18.6501 76.2719 18.3522 76.5103C18.0592 76.7436 17.7464 76.9522 17.4137 77.1359C17.086 77.3146 16.654 77.4785 16.1178 77.6275C15.5865 77.7764 15.0379 77.8509 14.4718 77.8509C12.8432 77.8509 11.4678 77.3072 10.3457 76.2198C9.22852 75.1274 8.66992 73.8141 8.66992 72.2798C8.66992 70.7456 9.22852 69.4347 10.3457 68.3473C11.4678 67.26 12.8432 66.7163 14.4718 66.7163C15.0329 66.7163 15.5667 66.7907 16.0731 66.9397C16.5796 67.0837 16.9942 67.26 17.3169 67.4685C17.6446 67.677 17.9326 67.8856 18.1809 68.0941C18.4341 68.3027 18.6153 68.4789 18.7246 68.6229L18.8959 68.8464L17.4435 70.2987C17.4137 70.259 17.3715 70.2044 17.3169 70.1348C17.2673 70.0604 17.1506 69.9362 16.9669 69.7625C16.7881 69.5887 16.592 69.4372 16.3785 69.3081C16.165 69.1741 15.8844 69.0524 15.5369 68.9432C15.1893 68.829 14.8343 68.7719 14.4718 68.7719C13.4738 68.7719 12.6396 69.107 11.9693 69.7773C11.299 70.4477 10.9638 71.2818 10.9638 72.2798C10.9638 73.2779 11.299 74.112 11.9693 74.7823C12.6396 75.4527 13.4738 75.7878 14.4718 75.7878C14.9485 75.7878 15.3829 75.7183 15.7752 75.5793C16.1675 75.4353 16.443 75.2913 16.6019 75.1473L16.8328 74.9537V73.5013H14.9261V71.8255Z" fill="#142C16"/>
<path d="M24.6797 77.62V66.9397H29.4091C30.4668 66.9397 31.3406 67.2798 32.0308 67.9601C32.726 68.6353 33.0735 69.4645 33.0735 70.4477C33.0735 70.8747 33.0065 71.2744 32.8724 71.6468C32.7384 72.0192 32.5795 72.3196 32.3958 72.548C32.217 72.7764 32.0333 72.9725 31.8446 73.1364C31.6559 73.3002 31.4946 73.4119 31.3605 73.4715L31.1669 73.5758L33.4534 77.62H31.0104L28.9548 73.8812H26.9737V77.62H24.6797ZM30.787 70.4477C30.787 70.0306 30.648 69.6855 30.3699 69.4124C30.0968 69.1393 29.7518 69.0028 29.3347 69.0028H26.9737V71.8255H29.3347C29.7518 71.8255 30.0968 71.6939 30.3699 71.4308C30.648 71.1627 30.787 70.835 30.787 70.4477Z" fill="#142C16"/>
<path d="M38.5596 77.62V66.9397H40.8535V77.62H38.5596Z" fill="#142C16"/>
<path d="M51.2999 74.4919C51.2999 74.1344 51.1186 73.8464 50.7562 73.6279C50.3987 73.4094 49.9592 73.2282 49.4379 73.0842C48.9215 72.9353 48.4051 72.7615 47.8887 72.5629C47.3773 72.3643 46.9404 72.0366 46.5779 71.5797C46.2154 71.1229 46.0342 70.5445 46.0342 69.8444C46.0342 68.9804 46.3793 68.2431 47.0694 67.6323C47.7646 67.0216 48.6658 66.7163 49.773 66.7163C50.21 66.7163 50.632 66.7684 51.0392 66.8727C51.4463 66.972 51.779 67.0911 52.0372 67.2302C52.3004 67.3642 52.5288 67.5033 52.7224 67.6472C52.921 67.7863 53.0625 67.9079 53.1469 68.0122L53.281 68.1612L51.9106 69.6135C51.851 69.544 51.7666 69.4596 51.6574 69.3603C51.5531 69.256 51.3297 69.1194 50.9871 68.9506C50.6444 68.7818 50.2919 68.6974 49.9294 68.6974C49.4925 68.6974 49.14 68.8091 48.8718 69.0326C48.6087 69.256 48.4771 69.5266 48.4771 69.8444C48.4771 70.2019 48.6559 70.4899 49.0134 70.7083C49.3758 70.9218 49.8128 71.1031 50.3242 71.252C50.8406 71.401 51.357 71.5748 51.8734 71.7734C52.3947 71.972 52.8366 72.2997 53.1991 72.7565C53.5615 73.2133 53.7428 73.7918 53.7428 74.4919C53.7428 75.48 53.3828 76.2868 52.6628 76.9125C51.9478 77.5381 50.9597 77.8509 49.6986 77.8509C49.202 77.8509 48.7204 77.7888 48.2537 77.6647C47.7919 77.5455 47.4096 77.4015 47.1067 77.2327C46.8088 77.0639 46.5456 76.8926 46.3172 76.7188C46.0888 76.545 45.925 76.3985 45.8256 76.2794L45.6543 76.0932L47.0322 74.7228C47.1017 74.8022 47.1985 74.9065 47.3227 75.0356C47.4518 75.1597 47.7348 75.3285 48.1717 75.542C48.6087 75.7555 49.0655 75.8623 49.5422 75.8623C50.0933 75.8623 50.5228 75.7332 50.8306 75.475C51.1435 75.2168 51.2999 74.8891 51.2999 74.4919Z" fill="#142C16"/>
<path d="M67.9953 66.9397V77.62H65.7088V73.2704H61.1358V77.62H58.8418V66.9397H61.1358V71.2148H65.7088V66.9397H67.9953Z" fill="#142C16"/>
<path d="M73.7944 77.62V66.9397H76.0883V77.62H73.7944Z" fill="#142C16"/>
<path d="M89.1262 66.9397H91.4128V77.62H89.4316L84.1734 70.835V77.62H81.8794V66.9397H83.868L89.1262 73.7322V66.9397Z" fill="#142C16"/>
<path d="M0.158203 95.6466V84.9663H4.88763C5.94523 84.9663 6.81912 85.3064 7.5093 85.9866C8.20444 86.6619 8.552 87.4911 8.552 88.4742C8.552 88.9012 8.48497 89.3009 8.35091 89.6733C8.21685 90.0457 8.05796 90.3461 7.87424 90.5745C7.69549 90.8029 7.51178 90.9991 7.3231 91.1629C7.13442 91.3268 6.97305 91.4385 6.83898 91.4981L6.64534 91.6024L8.93185 95.6466H6.48893L4.43331 91.9077H2.45216V95.6466H0.158203ZM6.26549 88.4742C6.26549 88.0571 6.12647 87.7121 5.84841 87.439C5.57532 87.1659 5.23023 87.0293 4.81315 87.0293H2.45216V89.8521H4.81315C5.23023 89.8521 5.57532 89.7205 5.84841 89.4574C6.12647 89.1892 6.26549 88.8615 6.26549 88.4742Z" fill="#142C16"/>
<path d="M16.7942 87.8189C16.1288 88.4942 15.7961 89.3259 15.7961 90.314C15.7961 91.2971 16.1288 92.1263 16.7942 92.8016C17.4595 93.4768 18.2689 93.8145 19.2222 93.8145C20.1805 93.8145 20.9923 93.4768 21.6577 92.8016C22.323 92.1263 22.6557 91.2971 22.6557 90.314C22.6557 89.3259 22.323 88.4942 21.6577 87.8189C20.9923 87.1387 20.1805 86.7985 19.2222 86.7985C18.2689 86.7985 17.4595 87.1387 16.7942 87.8189ZM15.1035 94.2465C13.9863 93.1541 13.4277 91.8408 13.4277 90.3065C13.4277 88.7722 13.9863 87.4614 15.1035 86.374C16.2256 85.2866 17.5985 84.7429 19.2222 84.7429C20.8508 84.7429 22.2237 85.2866 23.3409 86.374C24.463 87.4614 25.0241 88.7722 25.0241 90.3065C25.0241 91.8408 24.463 93.1541 23.3409 94.2465C22.2237 95.3339 20.8508 95.8776 19.2222 95.8776C17.5985 95.8776 16.2256 95.3339 15.1035 94.2465Z" fill="#142C16"/>
<path d="M35.0531 95.6466H30.2119V84.9663H34.7924C35.7606 84.9663 36.56 85.2493 37.1906 85.8153C37.8262 86.3814 38.144 87.0393 38.144 87.789C38.144 88.072 38.1042 88.3426 38.0248 88.6008C37.9454 88.8541 37.8436 89.0651 37.7194 89.2339C37.5953 89.4027 37.4712 89.5492 37.347 89.6733C37.2279 89.7925 37.1286 89.8769 37.0491 89.9266L36.9225 90.0011C36.9722 90.0209 37.0342 90.0507 37.1087 90.0904C37.1881 90.1252 37.3297 90.217 37.5332 90.366C37.7368 90.51 37.9156 90.6689 38.0695 90.8427C38.2234 91.0165 38.3624 91.2548 38.4866 91.5577C38.6157 91.8556 38.6802 92.1758 38.6802 92.5184C38.6802 93.3725 38.3401 94.1073 37.6599 94.723C36.9796 95.3387 36.1107 95.6466 35.0531 95.6466ZM32.5059 93.7399H34.9414C35.3584 93.7399 35.7035 93.6083 35.9766 93.3452C36.2547 93.082 36.3937 92.7568 36.3937 92.3695C36.3937 91.9822 36.2547 91.657 35.9766 91.3938C35.7035 91.1257 35.3584 90.9916 34.9414 90.9916H32.5059V93.7399ZM34.636 86.8729H32.5059V89.1669H34.636C35.0134 89.1669 35.3113 89.0626 35.5297 88.8541C35.7482 88.6455 35.8575 88.3675 35.8575 88.0199C35.8575 87.6723 35.7482 87.3943 35.5297 87.1857C35.3113 86.9772 35.0134 86.8729 34.636 86.8729Z" fill="#142C16"/>
<path d="M46.6243 87.8189C45.9589 88.4942 45.6262 89.3259 45.6262 90.314C45.6262 91.2971 45.9589 92.1263 46.6243 92.8016C47.2896 93.4768 48.0989 93.8145 49.0523 93.8145C50.0106 93.8145 50.8224 93.4768 51.4877 92.8016C52.1531 92.1263 52.4858 91.2971 52.4858 90.314C52.4858 89.3259 52.1531 88.4942 51.4877 87.8189C50.8224 87.1387 50.0106 86.7985 49.0523 86.7985C48.0989 86.7985 47.2896 87.1387 46.6243 87.8189ZM44.9336 94.2465C43.8164 93.1541 43.2578 91.8408 43.2578 90.3065C43.2578 88.7722 43.8164 87.4614 44.9336 86.374C46.0557 85.2866 47.4286 84.7429 49.0523 84.7429C50.6809 84.7429 52.0538 85.2866 53.171 86.374C54.2931 87.4614 54.8542 88.7722 54.8542 90.3065C54.8542 91.8408 54.2931 93.1541 53.171 94.2465C52.0538 95.3339 50.6809 95.8776 49.0523 95.8776C47.4286 95.8776 46.0557 95.3339 44.9336 94.2465Z" fill="#142C16"/>
<path d="M58.3667 84.9663H66.7531V87.0293H63.7069V95.6466H61.4204V87.0293H58.3667V84.9663Z" fill="#142C16"/>
<path d="M71.4795 95.6466V84.9663H73.7735V95.6466H71.4795Z" fill="#142C16"/>
<path d="M84.756 84.7429C85.3171 84.7429 85.8508 84.8174 86.3573 84.9664C86.8638 85.1104 87.2784 85.2866 87.6011 85.4952C87.9288 85.7037 88.2168 85.9122 88.4651 86.1208C88.7183 86.3293 88.8995 86.5056 89.0088 86.6496L89.1801 86.873L87.7277 88.3254C87.6979 88.2856 87.6557 88.231 87.6011 88.1615C87.5515 88.087 87.4348 87.9629 87.2511 87.7891C87.0723 87.6153 86.8762 87.4639 86.6627 87.3348C86.4492 87.2007 86.1686 87.0791 85.8211 86.9698C85.4735 86.8556 85.1185 86.7985 84.756 86.7985C83.758 86.7985 82.9238 87.1337 82.2535 87.804C81.5832 88.4743 81.248 89.3085 81.248 90.3065C81.248 91.3045 81.5832 92.1387 82.2535 92.809C82.9238 93.4793 83.758 93.8145 84.756 93.8145C85.1433 93.8145 85.5132 93.7623 85.8657 93.6581C86.2232 93.5488 86.5187 93.4222 86.752 93.2782C86.9854 93.1293 87.1915 92.9803 87.3702 92.8314C87.549 92.6824 87.6781 92.5533 87.7575 92.4441L87.8767 92.2877L89.2545 93.74C89.2148 93.7996 89.1527 93.879 89.0683 93.9783C88.9889 94.0727 88.8077 94.244 88.5246 94.4922C88.2466 94.7355 87.9462 94.9515 87.6235 95.1402C87.3057 95.3239 86.8861 95.4927 86.3648 95.6467C85.8484 95.8006 85.3121 95.8776 84.756 95.8776C83.1274 95.8776 81.752 95.3339 80.6299 94.2465C79.5127 93.1541 78.9541 91.8408 78.9541 90.3065C78.9541 88.7722 79.5127 87.4614 80.6299 86.374C81.752 85.2866 83.1274 84.7429 84.756 84.7429Z" fill="#142C16"/>
<path d="M98.7847 92.5185C98.7847 92.161 98.6035 91.8731 98.241 91.6546C97.8835 91.4361 97.4441 91.2549 96.9227 91.1109C96.4063 90.9619 95.8899 90.7881 95.3735 90.5895C94.8621 90.3909 94.4252 90.0632 94.0627 89.6064C93.7002 89.1496 93.519 88.5712 93.519 87.871C93.519 87.0071 93.8641 86.2697 94.5543 85.659C95.2494 85.0483 96.1506 84.7429 97.2579 84.7429C97.6948 84.7429 98.1169 84.7951 98.524 84.8993C98.9312 84.9986 99.2638 85.1178 99.522 85.2568C99.7852 85.3909 100.014 85.5299 100.208 85.6739C100.406 85.8129 100.548 85.9346 100.632 86.0389L100.766 86.1878L99.3954 87.6402C99.3358 87.5706 99.2514 87.4862 99.1422 87.3869C99.0379 87.2827 98.8145 87.1461 98.4719 86.9773C98.1293 86.8085 97.7767 86.7241 97.4143 86.7241C96.9773 86.7241 96.6248 86.8358 96.3567 87.0592C96.0935 87.2827 95.9619 87.5533 95.9619 87.871C95.9619 88.2285 96.1407 88.5165 96.4982 88.735C96.8606 88.9485 97.2976 89.1297 97.809 89.2787C98.3254 89.4277 98.8418 89.6014 99.3582 89.8001C99.8795 89.9987 100.322 90.3264 100.684 90.7832C101.047 91.24 101.228 91.8184 101.228 92.5185C101.228 93.5066 100.868 94.3135 100.148 94.9391C99.4327 95.5647 98.4446 95.8776 97.1834 95.8776C96.6869 95.8776 96.2052 95.8155 95.7385 95.6914C95.2767 95.5722 94.8944 95.4282 94.5915 95.2594C94.2936 95.0906 94.0304 94.9193 93.802 94.7455C93.5736 94.5717 93.4098 94.4252 93.3105 94.306L93.1392 94.1198L94.517 92.7494C94.5865 92.8289 94.6834 92.9331 94.8075 93.0622C94.9366 93.1864 95.2196 93.3552 95.6566 93.5687C96.0935 93.7822 96.5503 93.889 97.027 93.889C97.5781 93.889 98.0076 93.7599 98.3155 93.5017C98.6283 93.2435 98.7847 92.9158 98.7847 92.5185Z" fill="#142C16"/>
</g>
</g>
</svg>
