<svg width="130" height="28" viewBox="0 0 130 28" fill="none" xmlns="http://www.w3.org/2000/svg">
<mask id="mask0_58_8335" style="mask-type:luminance" maskUnits="userSpaceOnUse" x="0" y="0" width="130" height="28">
<path d="M130 0.5H0V27.5H130V0.5Z" fill="white"/>
</mask>
<g mask="url(#mask0_58_8335)">
<mask id="mask1_58_8335" style="mask-type:luminance" maskUnits="userSpaceOnUse" x="0" y="0" width="130" height="28">
<path d="M130 0.5H0V27.2647H130V0.5Z" fill="white"/>
</mask>
<g mask="url(#mask1_58_8335)">
<mask id="mask2_58_8335" style="mask-type:luminance" maskUnits="userSpaceOnUse" x="0" y="0" width="130" height="28">
<path d="M130 0.5H0V27.2647H130V0.5Z" fill="white"/>
</mask>
<g mask="url(#mask2_58_8335)">
<path d="M44.5302 5.57472H45.6721V8.81488H47.101L48.4145 3.67528V1.60885H44.5302V5.57472ZM27.1635 9.98793C28.0203 9.98793 28.42 10.6579 28.42 15.9096H25.6211C25.7352 10.6579 26.1922 9.98793 27.1635 9.98793ZM32.3622 20.5455H30.5338V21.1605C30.5338 23.7299 29.7909 24.9587 28.2485 24.9587C26.4777 24.9587 25.6209 23.8413 25.6209 17.976V17.5293H32.5902C32.5902 10.6579 31.0477 7.97717 27.1632 7.97717C23.2786 7.97717 20.7649 11.8874 20.7649 17.9204C20.7649 23.8977 23.1642 27.1372 27.2774 27.1372C30.8193 27.1372 32.3616 25.182 32.3616 21.0485L32.3622 20.5455ZM80.8765 9.98793C81.7334 9.98793 82.1337 10.6579 82.1337 15.9096H79.492C79.6059 10.6579 79.9055 9.98793 80.8765 9.98793ZM86.0751 20.5455H84.2472V21.1605C84.2472 23.7299 83.5042 24.9587 81.962 24.9587C80.1911 24.9587 79.4913 23.8413 79.4913 17.976V17.5293H86.3037C86.3037 10.6579 84.7615 7.97717 80.8765 7.97717C76.9921 7.97717 74.4783 11.8874 74.4783 17.9204C74.4783 23.8977 76.8781 27.1372 80.9911 27.1372C84.5328 27.1372 86.0751 25.182 86.0751 21.0485V20.5455ZM111.326 27.1372C113.897 27.1372 114.982 25.5731 114.982 23.3383V20.5455H113.268V23.3383C113.268 24.512 113.097 24.9024 112.525 24.9024C112.011 24.9024 111.84 24.567 111.84 23.506V10.0993H114.982V8.36818H111.897V3.17293H110.126L107.498 8.59153H105.956V10.0436H107.327V22.4443C107.327 25.6844 107.898 27.1372 111.326 27.1372ZM98.0723 12.9484C98.0723 9.48492 96.4732 8.03284 93.0452 8.03284C89.6174 8.03284 87.2753 10.4346 87.2753 13.2838V14.4012H91.2166V11.7754C91.2166 10.267 91.5599 9.70892 92.4169 9.70892C93.2738 9.70892 93.6164 10.2112 93.6164 11.7754V14.8479C88.4178 16.5796 86.818 17.8646 86.818 22.1659C86.818 25.5174 88.1892 27.1372 90.5313 27.1372C92.5308 27.1372 93.4454 25.7964 93.9591 24.9587V26.8018H99.0435V25.2934H98.0723V12.9484ZM127.836 25.2934V12.0544C127.836 9.31725 126.579 8.03284 124.351 8.03284C121.666 8.03284 120.581 9.98793 120.581 9.98793V1.3855L114.925 1.99987V3.45261H116.239V25.2934H115.324V26.8018H121.609V25.2934H120.694V13.7304C120.694 11.7197 121.266 10.882 122.295 10.882C123.036 10.882 123.322 11.3287 123.322 12.446V25.2934H122.295V26.8018H129.092V25.2934H127.836ZM93.6157 16.412V22.1095C93.6157 23.7857 93.2731 24.4563 92.3022 24.4563C91.5599 24.4563 91.2166 23.8413 91.2166 21.8305C91.2166 18.4227 91.5023 17.585 93.6157 16.412ZM73.6075 25.2934V3.11726H74.9217V1.66452H67.0954V3.11726H68.6946V13.5071H63.6677V3.11726H65.3245V1.66452H57.3835V3.11726H58.7547V25.2934H57.3835V26.8018H65.3245V25.2934H63.6677V15.2389H68.6946V25.2934H67.0954V26.8018H74.9217V25.2934H73.6075ZM105.042 25.2934V1.3855L99.1582 1.99987V3.45261H100.587V25.2934H99.6725V26.8018H106.413V25.2934H105.042ZM57.0978 21.8305C57.0978 15.9096 50.5857 15.5178 50.5857 11.6077C50.5857 10.267 51.271 9.59692 52.3565 9.59692C54.0134 9.59692 54.8704 11.2167 54.9843 14.6238H56.4696V9.03821C56.4696 9.03821 54.8126 8.03284 52.2989 8.03284C49.2715 8.03284 46.8147 9.70825 46.8147 13.1161C46.8147 18.7024 53.1558 19.4845 53.1558 23.2826C53.1558 24.7911 52.4136 25.5174 51.2133 25.5174C49.3854 25.5174 48.4715 23.9533 48.3569 20.0988H46.8723V26.1318C46.8723 26.1318 48.7002 27.1372 51.385 27.1372C54.6987 27.1372 57.0978 25.2934 57.0978 21.8305ZM19.9082 25.2934V3.11726H21.1079V1.66452H14.424L11.1108 15.7975L7.56876 1.66452H0.713379V3.11726H2.14167V25.2934H0.713379V26.8018H5.96902V25.2934H4.31235V9.70826L8.48274 26.8018H10.8821L14.9952 9.59692V25.2934H13.4528V26.8018H21.1079V25.2934H19.9082ZM45.2155 25.2934V12.0544C45.2155 9.31725 43.9589 8.03284 41.7878 8.03284C39.103 8.03284 38.0174 9.98793 38.0174 9.98793V8.03284L32.3045 8.6472V10.1556H33.6187V25.2934H32.2475V26.8018H39.0453V25.2934H38.1314V13.7304C38.1314 11.7197 38.7034 10.882 39.7312 10.882C40.4742 10.882 40.7592 11.3287 40.7592 12.446V25.2934H39.7312V26.8018H46.1294V25.2934H45.2155Z" fill="#142C16"/>
</g>
</g>
</g>
</svg>
